0
SECTION
2
HEADER
9
$ACADVER
1
AC1015
9
$MEASUREMENT
70
1
9
$INSUNITS
70
4
0
ENDSEC
0
SECTION
2
TABLES
0
TABLE
2
LAYER
5
10
100
AcDbSymbolTable
70
12
0
LAYER
5
11
100
AcDbSymbolTableRecord
100
AcDbLayerTableRecord
2
0
70
0
62
7
6
CONTINUOUS
0
LAYER
5
12
100
AcDbSymbolTableRecord
100
AcDbLayerTableRecord
2
PLOT
70
0
62
8
6
CONTINUOUS
0
LAYER
5
13
100
AcDbSymbolTableRecord
100
AcDbLayerTableRecord
2
WALLS
70
0
62
7
6
CONTINUOUS
0
LAYER
5
14
100
AcDbSymbolTableRecord
100
AcDbLayerTableRecord
2
DOORS
70
0
62
3
6
CONTINUOUS
0
LAYER
5
15
100
AcDbSymbolTableRecord
100
AcDbLayerTableRecord
2
WINDOWS
70
0
62
4
6
CONTINUOUS
0
LAYER
5
16
100
AcDbSymbolTableRecord
100
AcDbLayerTableRecord
2
LABELS
70
0
62
7
6
CONTINUOUS
0
LAYER
5
17
100
AcDbSymbolTableRecord
100
AcDbLayerTableRecord
2
DIMENSIONS
70
0
62
2
6
CONTINUOUS
0
LAYER
5
18
100
AcDbSymbolTableRecord
100
AcDbLayerTableRecord
2
FURNITURE
70
0
62
8
6
CONTINUOUS
0
LAYER
5
19
100
AcDbSymbolTableRecord
100
AcDbLayerTableRecord
2
STAIRS
70
0
62
6
6
CONTINUOUS
0
LAYER
5
1A
100
AcDbSymbolTableRecord
100
AcDbLayerTableRecord
2
SITE
70
0
62
3
6
CONTINUOUS
0
LAYER
5
1B
100
AcDbSymbolTableRecord
100
AcDbLayerTableRecord
2
SCHEDULE
70
0
62
7
6
CONTINUOUS
0
LAYER
5
1C
100
AcDbSymbolTableRecord
100
AcDbLayerTableRecord
2
FRAME
70
0
62
8
6
CONTINUOUS
0
ENDTAB
0
ENDSEC
0
SECTION
2
BLOCKS
0
ENDSEC
0
SECTION
2
ENTITIES
0
LINE
5
1D
100
AcDbEntity
8
PLOT
100
AcDbLine
10
0
20
0
30
0
11
18000
21
0
31
0
0
LINE
5
1E
100
AcDbEntity
8
PLOT
100
AcDbLine
10
18000
20
0
30
0
11
18000
21
24000
31
0
0
LINE
5
1F
100
AcDbEntity
8
PLOT
100
AcDbLine
10
18000
20
24000
30
0
11
0
21
24000
31
0
0
LINE
5
20
100
AcDbEntity
8
PLOT
100
AcDbLine
10
0
20
24000
30
0
11
0
21
0
31
0
0
LINE
5
21
100
AcDbEntity
8
WALLS
100
AcDbLine
10
8400
20
22800
30
0
11
9600
21
22800
31
0
0
LINE
5
22
100
AcDbEntity
8
WALLS
100
AcDbLine
10
8400
20
6000
30
0
11
8550
21
6000
31
0
0
LINE
5
23
100
AcDbEntity
8
WALLS
100
AcDbLine
10
9450
20
6000
30
0
11
9600
21
6000
31
0
0
LINE
5
24
100
AcDbEntity
8
DOORS
100
AcDbLine
10
8550
20
6000
30
0
11
8550
21
6900
31
0
0
LINE
5
25
100
AcDbEntity
8
DIMENSIONS
100
AcDbLine
10
0
20
24650
30
0
11
18000
21
24650
31
0
0
LINE
5
26
100
AcDbEntity
8
DIMENSIONS
100
AcDbLine
10
18550
20
0
30
0
11
18550
21
24000
31
0
0
LINE
5
27
100
AcDbEntity
8
SITE
100
AcDbLine
10
14200
20
400
30
0
11
16700
21
400
31
0
0
LINE
5
28
100
AcDbEntity
8
SITE
100
AcDbLine
10
16700
20
400
30
0
11
16700
21
5400
31
0
0
LINE
5
29
100
AcDbEntity
8
SITE
100
AcDbLine
10
16700
20
5400
30
0
11
14200
21
5400
31
0
0
LINE
5
2A
100
AcDbEntity
8
SITE
100
AcDbLine
10
14200
20
5400
30
0
11
14200
21
400
31
0
0
LINE
5
2B
100
AcDbEntity
8
FURNITURE
100
AcDbLine
10
14450
20
900
30
0
11
16450
21
900
31
0
0
LINE
5
2C
100
AcDbEntity
8
FURNITURE
100
AcDbLine
10
16450
20
900
30
0
11
16450
21
4900
31
0
0
LINE
5
2D
100
AcDbEntity
8
FURNITURE
100
AcDbLine
10
16450
20
4900
30
0
11
14450
21
4900
31
0
0
LINE
5
2E
100
AcDbEntity
8
FURNITURE
100
AcDbLine
10
14450
20
4900
30
0
11
14450
21
900
31
0
0
LINE
5
2F
100
AcDbEntity
8
WALLS
100
AcDbLine
10
1200
20
5925
30
0
11
8400
21
5925
31
0
0
LINE
5
30
100
AcDbEntity
8
WALLS
100
AcDbLine
10
1200
20
9900
30
0
11
8400
21
9900
31
0
0
LINE
5
31
100
AcDbEntity
8
WALLS
100
AcDbLine
10
1125
20
6000
30
0
11
1125
21
7387.5
31
0
0
LINE
5
32
100
AcDbEntity
8
WALLS
100
AcDbLine
10
1125
20
8587.5
30
0
11
1125
21
9975
31
0
0
LINE
5
33
100
AcDbEntity
8
WALLS
100
AcDbLine
10
8325
20
6000
30
0
11
8325
21
7537.5
31
0
0
LINE
5
34
100
AcDbEntity
8
WALLS
100
AcDbLine
10
8325
20
8437.5
30
0
11
8325
21
9975
31
0
0
LINE
5
35
100
AcDbEntity
8
WALLS
100
AcDbLine
10
1200
20
6075
30
0
11
8400
21
6075
31
0
0
LINE
5
36
100
AcDbEntity
8
WALLS
100
AcDbLine
10
1200
20
10050
30
0
11
8400
21
10050
31
0
0
LINE
5
37
100
AcDbEntity
8
WALLS
100
AcDbLine
10
1275
20
6000
30
0
11
1275
21
7387.5
31
0
0
LINE
5
38
100
AcDbEntity
8
WALLS
100
AcDbLine
10
1275
20
8587.5
30
0
11
1275
21
9975
31
0
0
LINE
5
39
100
AcDbEntity
8
WALLS
100
AcDbLine
10
8475
20
6000
30
0
11
8475
21
7537.5
31
0
0
LINE
5
3A
100
AcDbEntity
8
WALLS
100
AcDbLine
10
8475
20
8437.5
30
0
11
8475
21
9975
31
0
0
LINE
5
3B
100
AcDbEntity
8
WINDOWS
100
AcDbLine
10
1160
20
7387.5
30
0
11
1160
21
8587.5
31
0
0
LINE
5
3C
100
AcDbEntity
8
WINDOWS
100
AcDbLine
10
1240
20
7387.5
30
0
11
1240
21
8587.5
31
0
0
LINE
5
3D
100
AcDbEntity
8
DOORS
100
AcDbLine
10
8400
20
7537.5
30
0
11
7500
21
7537.5
31
0
0
LINE
5
3E
100
AcDbEntity
8
DOORS
100
AcDbLine
10
7500
20
7537.5
30
0
11
7507.7
21
7655
31
0
0
LINE
5
3F
100
AcDbEntity
8
DOORS
100
AcDbLine
10
7507.7
20
7655
30
0
11
7530.7
21
7770.4
31
0
0
LINE
5
40
100
AcDbEntity
8
DOORS
100
AcDbLine
10
7530.7
20
7770.4
30
0
11
7568.5
21
7881.9
31
0
0
LINE
5
41
100
AcDbEntity
8
DOORS
100
AcDbLine
10
7568.5
20
7881.9
30
0
11
7620.6
21
7987.5
31
0
0
LINE
5
42
100
AcDbEntity
8
DOORS
100
AcDbLine
10
7620.6
20
7987.5
30
0
11
7686
21
8085.4
31
0
0
LINE
5
43
100
AcDbEntity
8
DOORS
100
AcDbLine
10
7686
20
8085.4
30
0
11
7763.6
21
8173.9
31
0
0
LINE
5
44
100
AcDbEntity
8
DOORS
100
AcDbLine
10
7763.6
20
8173.9
30
0
11
7852.1
21
8251.5
31
0
0
LINE
5
45
100
AcDbEntity
8
DOORS
100
AcDbLine
10
7852.1
20
8251.5
30
0
11
7950
21
8316.9
31
0
0
LINE
5
46
100
AcDbEntity
8
DOORS
100
AcDbLine
10
7950
20
8316.9
30
0
11
8055.6
21
8369
31
0
0
LINE
5
47
100
AcDbEntity
8
DOORS
100
AcDbLine
10
8055.6
20
8369
30
0
11
8167.1
21
8406.8
31
0
0
LINE
5
48
100
AcDbEntity
8
DOORS
100
AcDbLine
10
8167.1
20
8406.8
30
0
11
8282.5
21
8429.8
31
0
0
LINE
5
49
100
AcDbEntity
8
DOORS
100
AcDbLine
10
8282.5
20
8429.8
30
0
11
8400
21
8437.5
31
0
0
LINE
5
4A
100
AcDbEntity
8
FURNITURE
100
AcDbLine
10
1550
20
8825
30
0
11
3450
21
8825
31
0
0
LINE
5
4B
100
AcDbEntity
8
FURNITURE
100
AcDbLine
10
3450
20
8825
30
0
11
3450
21
9575
31
0
0
LINE
5
4C
100
AcDbEntity
8
FURNITURE
100
AcDbLine
10
3450
20
9575
30
0
11
1550
21
9575
31
0
0
LINE
5
4D
100
AcDbEntity
8
FURNITURE
100
AcDbLine
10
1550
20
9575
30
0
11
1550
21
8825
31
0
0
LINE
5
4E
100
AcDbEntity
8
FURNITURE
100
AcDbLine
10
1900
20
7975
30
0
11
3100
21
7975
31
0
0
LINE
5
4F
100
AcDbEntity
8
FURNITURE
100
AcDbLine
10
3100
20
7975
30
0
11
3100
21
8525
31
0
0
LINE
5
50
100
AcDbEntity
8
FURNITURE
100
AcDbLine
10
3100
20
8525
30
0
11
1900
21
8525
31
0
0
LINE
5
51
100
AcDbEntity
8
FURNITURE
100
AcDbLine
10
1900
20
8525
30
0
11
1900
21
7975
31
0
0
LINE
5
52
100
AcDbEntity
8
WALLS
100
AcDbLine
10
1200
20
13475
30
0
11
8400
21
13475
31
0
0
LINE
5
53
100
AcDbEntity
8
WALLS
100
AcDbLine
10
1125
20
9975
30
0
11
1125
21
11162.5
31
0
0
LINE
5
54
100
AcDbEntity
8
WALLS
100
AcDbLine
10
1125
20
12362.5
30
0
11
1125
21
13550
31
0
0
LINE
5
55
100
AcDbEntity
8
WALLS
100
AcDbLine
10
8325
20
9975
30
0
11
8325
21
11312.5
31
0
0
LINE
5
56
100
AcDbEntity
8
WALLS
100
AcDbLine
10
8325
20
12212.5
30
0
11
8325
21
13550
31
0
0
LINE
5
57
100
AcDbEntity
8
WALLS
100
AcDbLine
10
1200
20
13625
30
0
11
8400
21
13625
31
0
0
LINE
5
58
100
AcDbEntity
8
WALLS
100
AcDbLine
10
1275
20
9975
30
0
11
1275
21
11162.5
31
0
0
LINE
5
59
100
AcDbEntity
8
WALLS
100
AcDbLine
10
1275
20
12362.5
30
0
11
1275
21
13550
31
0
0
LINE
5
5A
100
AcDbEntity
8
WALLS
100
AcDbLine
10
8475
20
9975
30
0
11
8475
21
11312.5
31
0
0
LINE
5
5B
100
AcDbEntity
8
WALLS
100
AcDbLine
10
8475
20
12212.5
30
0
11
8475
21
13550
31
0
0
LINE
5
5C
100
AcDbEntity
8
WINDOWS
100
AcDbLine
10
1160
20
11162.5
30
0
11
1160
21
12362.5
31
0
0
LINE
5
5D
100
AcDbEntity
8
WINDOWS
100
AcDbLine
10
1240
20
11162.5
30
0
11
1240
21
12362.5
31
0
0
LINE
5
5E
100
AcDbEntity
8
DOORS
100
AcDbLine
10
8400
20
11312.5
30
0
11
7500
21
11312.5
31
0
0
LINE
5
5F
100
AcDbEntity
8
DOORS
100
AcDbLine
10
7500
20
11312.5
30
0
11
7507.7
21
11430
31
0
0
LINE
5
60
100
AcDbEntity
8
DOORS
100
AcDbLine
10
7507.7
20
11430
30
0
11
7530.7
21
11545.4
31
0
0
LINE
5
61
100
AcDbEntity
8
DOORS
100
AcDbLine
10
7530.7
20
11545.4
30
0
11
7568.5
21
11656.9
31
0
0
LINE
5
62
100
AcDbEntity
8
DOORS
100
AcDbLine
10
7568.5
20
11656.9
30
0
11
7620.6
21
11762.5
31
0
0
LINE
5
63
100
AcDbEntity
8
DOORS
100
AcDbLine
10
7620.6
20
11762.5
30
0
11
7686
21
11860.4
31
0
0
LINE
5
64
100
AcDbEntity
8
DOORS
100
AcDbLine
10
7686
20
11860.4
30
0
11
7763.6
21
11948.9
31
0
0
LINE
5
65
100
AcDbEntity
8
DOORS
100
AcDbLine
10
7763.6
20
11948.9
30
0
11
7852.1
21
12026.5
31
0
0
LINE
5
66
100
AcDbEntity
8
DOORS
100
AcDbLine
10
7852.1
20
12026.5
30
0
11
7950
21
12091.9
31
0
0
LINE
5
67
100
AcDbEntity
8
DOORS
100
AcDbLine
10
7950
20
12091.9
30
0
11
8055.6
21
12144
31
0
0
LINE
5
68
100
AcDbEntity
8
DOORS
100
AcDbLine
10
8055.6
20
12144
30
0
11
8167.1
21
12181.8
31
0
0
LINE
5
69
100
AcDbEntity
8
DOORS
100
AcDbLine
10
8167.1
20
12181.8
30
0
11
8282.5
21
12204.8
31
0
0
LINE
5
6A
100
AcDbEntity
8
DOORS
100
AcDbLine
10
8282.5
20
12204.8
30
0
11
8400
21
12212.5
31
0
0
LINE
5
6B
100
AcDbEntity
8
FURNITURE
100
AcDbLine
10
1450
20
10975
30
0
11
2050
21
10975
31
0
0
LINE
5
6C
100
AcDbEntity
8
FURNITURE
100
AcDbLine
10
2050
20
10975
30
0
11
2050
21
13250
31
0
0
LINE
5
6D
100
AcDbEntity
8
FURNITURE
100
AcDbLine
10
2050
20
13250
30
0
11
1450
21
13250
31
0
0
LINE
5
6E
100
AcDbEntity
8
FURNITURE
100
AcDbLine
10
1450
20
13250
30
0
11
1450
21
10975
31
0
0
LINE
5
6F
100
AcDbEntity
8
FURNITURE
100
AcDbLine
10
1500
20
12650
30
0
11
2000
21
12650
31
0
0
LINE
5
70
100
AcDbEntity
8
FURNITURE
100
AcDbLine
10
2000
20
12650
30
0
11
2000
21
13050
31
0
0
LINE
5
71
100
AcDbEntity
8
FURNITURE
100
AcDbLine
10
2000
20
13050
30
0
11
1500
21
13050
31
0
0
LINE
5
72
100
AcDbEntity
8
FURNITURE
100
AcDbLine
10
1500
20
13050
30
0
11
1500
21
12650
31
0
0
LINE
5
73
100
AcDbEntity
8
WALLS
100
AcDbLine
10
1200
20
17350
30
0
11
8400
21
17350
31
0
0
LINE
5
74
100
AcDbEntity
8
WALLS
100
AcDbLine
10
1125
20
13550
30
0
11
1125
21
14887.5
31
0
0
LINE
5
75
100
AcDbEntity
8
WALLS
100
AcDbLine
10
1125
20
16087.5
30
0
11
1125
21
17425
31
0
0
LINE
5
76
100
AcDbEntity
8
WALLS
100
AcDbLine
10
8325
20
13550
30
0
11
8325
21
15037.5
31
0
0
LINE
5
77
100
AcDbEntity
8
WALLS
100
AcDbLine
10
8325
20
15937.5
30
0
11
8325
21
17425
31
0
0
LINE
5
78
100
AcDbEntity
8
WALLS
100
AcDbLine
10
1200
20
17500
30
0
11
8400
21
17500
31
0
0
LINE
5
79
100
AcDbEntity
8
WALLS
100
AcDbLine
10
1275
20
13550
30
0
11
1275
21
14887.5
31
0
0
LINE
5
7A
100
AcDbEntity
8
WALLS
100
AcDbLine
10
1275
20
16087.5
30
0
11
1275
21
17425
31
0
0
LINE
5
7B
100
AcDbEntity
8
WALLS
100
AcDbLine
10
8475
20
13550
30
0
11
8475
21
15037.5
31
0
0
LINE
5
7C
100
AcDbEntity
8
WALLS
100
AcDbLine
10
8475
20
15937.5
30
0
11
8475
21
17425
31
0
0
LINE
5
7D
100
AcDbEntity
8
WINDOWS
100
AcDbLine
10
1160
20
14887.5
30
0
11
1160
21
16087.5
31
0
0
LINE
5
7E
100
AcDbEntity
8
WINDOWS
100
AcDbLine
10
1240
20
14887.5
30
0
11
1240
21
16087.5
31
0
0
LINE
5
7F
100
AcDbEntity
8
DOORS
100
AcDbLine
10
8400
20
15037.5
30
0
11
7500
21
15037.5
31
0
0
LINE
5
80
100
AcDbEntity
8
DOORS
100
AcDbLine
10
7500
20
15037.5
30
0
11
7507.7
21
15155
31
0
0
LINE
5
81
100
AcDbEntity
8
DOORS
100
AcDbLine
10
7507.7
20
15155
30
0
11
7530.7
21
15270.4
31
0
0
LINE
5
82
100
AcDbEntity
8
DOORS
100
AcDbLine
10
7530.7
20
15270.4
30
0
11
7568.5
21
15381.9
31
0
0
LINE
5
83
100
AcDbEntity
8
DOORS
100
AcDbLine
10
7568.5
20
15381.9
30
0
11
7620.6
21
15487.5
31
0
0
LINE
5
84
100
AcDbEntity
8
DOORS
100
AcDbLine
10
7620.6
20
15487.5
30
0
11
7686
21
15585.4
31
0
0
LINE
5
85
100
AcDbEntity
8
DOORS
100
AcDbLine
10
7686
20
15585.4
30
0
11
7763.6
21
15673.9
31
0
0
LINE
5
86
100
AcDbEntity
8
DOORS
100
AcDbLine
10
7763.6
20
15673.9
30
0
11
7852.1
21
15751.5
31
0
0
LINE
5
87
100
AcDbEntity
8
DOORS
100
AcDbLine
10
7852.1
20
15751.5
30
0
11
7950
21
15816.9
31
0
0
LINE
5
88
100
AcDbEntity
8
DOORS
100
AcDbLine
10
7950
20
15816.9
30
0
11
8055.6
21
15869
31
0
0
LINE
5
89
100
AcDbEntity
8
DOORS
100
AcDbLine
10
8055.6
20
15869
30
0
11
8167.1
21
15906.8
31
0
0
LINE
5
8A
100
AcDbEntity
8
DOORS
100
AcDbLine
10
8167.1
20
15906.8
30
0
11
8282.5
21
15929.8
31
0
0
LINE
5
8B
100
AcDbEntity
8
DOORS
100
AcDbLine
10
8282.5
20
15929.8
30
0
11
8400
21
15937.5
31
0
0
LINE
5
8C
100
AcDbEntity
8
FURNITURE
100
AcDbLine
10
1450
20
15375
30
0
11
2950
21
15375
31
0
0
LINE
5
8D
100
AcDbEntity
8
FURNITURE
100
AcDbLine
10
2950
20
15375
30
0
11
2950
21
17175
31
0
0
LINE
5
8E
100
AcDbEntity
8
FURNITURE
100
AcDbLine
10
2950
20
17175
30
0
11
1450
21
17175
31
0
0
LINE
5
8F
100
AcDbEntity
8
FURNITURE
100
AcDbLine
10
1450
20
17175
30
0
11
1450
21
15375
31
0
0
LINE
5
90
100
AcDbEntity
8
FURNITURE
100
AcDbLine
10
1550
20
16725
30
0
11
2850
21
16725
31
0
0
LINE
5
91
100
AcDbEntity
8
FURNITURE
100
AcDbLine
10
2850
20
16725
30
0
11
2850
21
17075
31
0
0
LINE
5
92
100
AcDbEntity
8
FURNITURE
100
AcDbLine
10
2850
20
17075
30
0
11
1550
21
17075
31
0
0
LINE
5
93
100
AcDbEntity
8
FURNITURE
100
AcDbLine
10
1550
20
17075
30
0
11
1550
21
16725
31
0
0
LINE
5
94
100
AcDbEntity
8
WALLS
100
AcDbLine
10
1200
20
19150
30
0
11
8400
21
19150
31
0
0
LINE
5
95
100
AcDbEntity
8
WALLS
100
AcDbLine
10
1125
20
17425
30
0
11
1125
21
17725
31
0
0
LINE
5
96
100
AcDbEntity
8
WALLS
100
AcDbLine
10
1125
20
18925
30
0
11
1125
21
19225
31
0
0
LINE
5
97
100
AcDbEntity
8
WALLS
100
AcDbLine
10
8325
20
17425
30
0
11
8325
21
17875
31
0
0
LINE
5
98
100
AcDbEntity
8
WALLS
100
AcDbLine
10
8325
20
18775
30
0
11
8325
21
19225
31
0
0
LINE
5
99
100
AcDbEntity
8
WALLS
100
AcDbLine
10
1200
20
19300
30
0
11
8400
21
19300
31
0
0
LINE
5
9A
100
AcDbEntity
8
WALLS
100
AcDbLine
10
1275
20
17425
30
0
11
1275
21
17725
31
0
0
LINE
5
9B
100
AcDbEntity
8
WALLS
100
AcDbLine
10
1275
20
18925
30
0
11
1275
21
19225
31
0
0
LINE
5
9C
100
AcDbEntity
8
WALLS
100
AcDbLine
10
8475
20
17425
30
0
11
8475
21
17875
31
0
0
LINE
5
9D
100
AcDbEntity
8
WALLS
100
AcDbLine
10
8475
20
18775
30
0
11
8475
21
19225
31
0
0
LINE
5
9E
100
AcDbEntity
8
WINDOWS
100
AcDbLine
10
1160
20
17725
30
0
11
1160
21
18925
31
0
0
LINE
5
9F
100
AcDbEntity
8
WINDOWS
100
AcDbLine
10
1240
20
17725
30
0
11
1240
21
18925
31
0
0
LINE
5
A0
100
AcDbEntity
8
DOORS
100
AcDbLine
10
8400
20
17875
30
0
11
7500
21
17875
31
0
0
LINE
5
A1
100
AcDbEntity
8
DOORS
100
AcDbLine
10
7500
20
17875
30
0
11
7507.7
21
17992.5
31
0
0
LINE
5
A2
100
AcDbEntity
8
DOORS
100
AcDbLine
10
7507.7
20
17992.5
30
0
11
7530.7
21
18107.9
31
0
0
LINE
5
A3
100
AcDbEntity
8
DOORS
100
AcDbLine
10
7530.7
20
18107.9
30
0
11
7568.5
21
18219.4
31
0
0
LINE
5
A4
100
AcDbEntity
8
DOORS
100
AcDbLine
10
7568.5
20
18219.4
30
0
11
7620.6
21
18325
31
0
0
LINE
5
A5
100
AcDbEntity
8
DOORS
100
AcDbLine
10
7620.6
20
18325
30
0
11
7686
21
18422.9
31
0
0
LINE
5
A6
100
AcDbEntity
8
DOORS
100
AcDbLine
10
7686
20
18422.9
30
0
11
7763.6
21
18511.4
31
0
0
LINE
5
A7
100
AcDbEntity
8
DOORS
100
AcDbLine
10
7763.6
20
18511.4
30
0
11
7852.1
21
18589
31
0
0
LINE
5
A8
100
AcDbEntity
8
DOORS
100
AcDbLine
10
7852.1
20
18589
30
0
11
7950
21
18654.4
31
0
0
LINE
5
A9
100
AcDbEntity
8
DOORS
100
AcDbLine
10
7950
20
18654.4
30
0
11
8055.6
21
18706.5
31
0
0
LINE
5
AA
100
AcDbEntity
8
DOORS
100
AcDbLine
10
8055.6
20
18706.5
30
0
11
8167.1
21
18744.3
31
0
0
LINE
5
AB
100
AcDbEntity
8
DOORS
100
AcDbLine
10
8167.1
20
18744.3
30
0
11
8282.5
21
18767.3
31
0
0
LINE
5
AC
100
AcDbEntity
8
DOORS
100
AcDbLine
10
8282.5
20
18767.3
30
0
11
8400
21
18775
31
0
0
LINE
5
AD
100
AcDbEntity
8
FURNITURE
100
AcDbLine
10
1450
20
18375
30
0
11
2000
21
18375
31
0
0
LINE
5
AE
100
AcDbEntity
8
FURNITURE
100
AcDbLine
10
2000
20
18375
30
0
11
2000
21
18975
31
0
0
LINE
5
AF
100
AcDbEntity
8
FURNITURE
100
AcDbLine
10
2000
20
18975
30
0
11
1450
21
18975
31
0
0
LINE
5
B0
100
AcDbEntity
8
FURNITURE
100
AcDbLine
10
1450
20
18975
30
0
11
1450
21
18375
31
0
0
LINE
5
B1
100
AcDbEntity
8
FURNITURE
100
AcDbLine
10
7350
20
18225
30
0
11
8150
21
18225
31
0
0
LINE
5
B2
100
AcDbEntity
8
FURNITURE
100
AcDbLine
10
8150
20
18225
30
0
11
8150
21
18975
31
0
0
LINE
5
B3
100
AcDbEntity
8
FURNITURE
100
AcDbLine
10
8150
20
18975
30
0
11
7350
21
18975
31
0
0
LINE
5
B4
100
AcDbEntity
8
FURNITURE
100
AcDbLine
10
7350
20
18975
30
0
11
7350
21
18225
31
0
0
LINE
5
B5
100
AcDbEntity
8
WALLS
100
AcDbLine
10
1200
20
22725
30
0
11
8400
21
22725
31
0
0
LINE
5
B6
100
AcDbEntity
8
WALLS
100
AcDbLine
10
1125
20
19225
30
0
11
1125
21
20412.5
31
0
0
LINE
5
B7
100
AcDbEntity
8
WALLS
100
AcDbLine
10
1125
20
21612.5
30
0
11
1125
21
22800
31
0
0
LINE
5
B8
100
AcDbEntity
8
WALLS
100
AcDbLine
10
8325
20
19225
30
0
11
8325
21
20562.5
31
0
0
LINE
5
B9
100
AcDbEntity
8
WALLS
100
AcDbLine
10
8325
20
21462.5
30
0
11
8325
21
22800
31
0
0
LINE
5
BA
100
AcDbEntity
8
WALLS
100
AcDbLine
10
1200
20
22875
30
0
11
8400
21
22875
31
0
0
LINE
5
BB
100
AcDbEntity
8
WALLS
100
AcDbLine
10
1275
20
19225
30
0
11
1275
21
20412.5
31
0
0
LINE
5
BC
100
AcDbEntity
8
WALLS
100
AcDbLine
10
1275
20
21612.5
30
0
11
1275
21
22800
31
0
0
LINE
5
BD
100
AcDbEntity
8
WALLS
100
AcDbLine
10
8475
20
19225
30
0
11
8475
21
20562.5
31
0
0
LINE
5
BE
100
AcDbEntity
8
WALLS
100
AcDbLine
10
8475
20
21462.5
30
0
11
8475
21
22800
31
0
0
LINE
5
BF
100
AcDbEntity
8
WINDOWS
100
AcDbLine
10
1160
20
20412.5
30
0
11
1160
21
21612.5
31
0
0
LINE
5
C0
100
AcDbEntity
8
WINDOWS
100
AcDbLine
10
1240
20
20412.5
30
0
11
1240
21
21612.5
31
0
0
LINE
5
C1
100
AcDbEntity
8
DOORS
100
AcDbLine
10
8400
20
20562.5
30
0
11
7500
21
20562.5
31
0
0
LINE
5
C2
100
AcDbEntity
8
DOORS
100
AcDbLine
10
7500
20
20562.5
30
0
11
7507.7
21
20680
31
0
0
LINE
5
C3
100
AcDbEntity
8
DOORS
100
AcDbLine
10
7507.7
20
20680
30
0
11
7530.7
21
20795.4
31
0
0
LINE
5
C4
100
AcDbEntity
8
DOORS
100
AcDbLine
10
7530.7
20
20795.4
30
0
11
7568.5
21
20906.9
31
0
0
LINE
5
C5
100
AcDbEntity
8
DOORS
100
AcDbLine
10
7568.5
20
20906.9
30
0
11
7620.6
21
21012.5
31
0
0
LINE
5
C6
100
AcDbEntity
8
DOORS
100
AcDbLine
10
7620.6
20
21012.5
30
0
11
7686
21
21110.4
31
0
0
LINE
5
C7
100
AcDbEntity
8
DOORS
100
AcDbLine
10
7686
20
21110.4
30
0
11
7763.6
21
21198.9
31
0
0
LINE
5
C8
100
AcDbEntity
8
DOORS
100
AcDbLine
10
7763.6
20
21198.9
30
0
11
7852.1
21
21276.5
31
0
0
LINE
5
C9
100
AcDbEntity
8
DOORS
100
AcDbLine
10
7852.1
20
21276.5
30
0
11
7950
21
21341.9
31
0
0
LINE
5
CA
100
AcDbEntity
8
DOORS
100
AcDbLine
10
7950
20
21341.9
30
0
11
8055.6
21
21394
31
0
0
LINE
5
CB
100
AcDbEntity
8
DOORS
100
AcDbLine
10
8055.6
20
21394
30
0
11
8167.1
21
21431.8
31
0
0
LINE
5
CC
100
AcDbEntity
8
DOORS
100
AcDbLine
10
8167.1
20
21431.8
30
0
11
8282.5
21
21454.8
31
0
0
LINE
5
CD
100
AcDbEntity
8
DOORS
100
AcDbLine
10
8282.5
20
21454.8
30
0
11
8400
21
21462.5
31
0
0
LINE
5
CE
100
AcDbEntity
8
FURNITURE
100
AcDbLine
10
1650
20
21200
30
0
11
3150
21
21200
31
0
0
LINE
5
CF
100
AcDbEntity
8
FURNITURE
100
AcDbLine
10
3150
20
21200
30
0
11
3150
21
22000
31
0
0
LINE
5
D0
100
AcDbEntity
8
FURNITURE
100
AcDbLine
10
3150
20
22000
30
0
11
1650
21
22000
31
0
0
LINE
5
D1
100
AcDbEntity
8
FURNITURE
100
AcDbLine
10
1650
20
22000
30
0
11
1650
21
21200
31
0
0
LINE
5
D2
100
AcDbEntity
8
WALLS
100
AcDbLine
10
9600
20
5925
30
0
11
16800
21
5925
31
0
0
LINE
5
D3
100
AcDbEntity
8
WALLS
100
AcDbLine
10
9600
20
9125
30
0
11
16800
21
9125
31
0
0
LINE
5
D4
100
AcDbEntity
8
WALLS
100
AcDbLine
10
16725
20
6000
30
0
11
16725
21
7000
31
0
0
LINE
5
D5
100
AcDbEntity
8
WALLS
100
AcDbLine
10
16725
20
8200
30
0
11
16725
21
9200
31
0
0
LINE
5
D6
100
AcDbEntity
8
WALLS
100
AcDbLine
10
9525
20
6000
30
0
11
9525
21
7150
31
0
0
LINE
5
D7
100
AcDbEntity
8
WALLS
100
AcDbLine
10
9525
20
8050
30
0
11
9525
21
9200
31
0
0
LINE
5
D8
100
AcDbEntity
8
WALLS
100
AcDbLine
10
9600
20
6075
30
0
11
16800
21
6075
31
0
0
LINE
5
D9
100
AcDbEntity
8
WALLS
100
AcDbLine
10
9600
20
9275
30
0
11
16800
21
9275
31
0
0
LINE
5
DA
100
AcDbEntity
8
WALLS
100
AcDbLine
10
16875
20
6000
30
0
11
16875
21
7000
31
0
0
LINE
5
DB
100
AcDbEntity
8
WALLS
100
AcDbLine
10
16875
20
8200
30
0
11
16875
21
9200
31
0
0
LINE
5
DC
100
AcDbEntity
8
WALLS
100
AcDbLine
10
9675
20
6000
30
0
11
9675
21
7150
31
0
0
LINE
5
DD
100
AcDbEntity
8
WALLS
100
AcDbLine
10
9675
20
8050
30
0
11
9675
21
9200
31
0
0
LINE
5
DE
100
AcDbEntity
8
WINDOWS
100
AcDbLine
10
16760
20
7000
30
0
11
16760
21
8200
31
0
0
LINE
5
DF
100
AcDbEntity
8
WINDOWS
100
AcDbLine
10
16840
20
7000
30
0
11
16840
21
8200
31
0
0
LINE
5
E0
100
AcDbEntity
8
DOORS
100
AcDbLine
10
9600
20
7150
30
0
11
10500
21
7150
31
0
0
LINE
5
E1
100
AcDbEntity
8
DOORS
100
AcDbLine
10
10500
20
7150
30
0
11
10492.3
21
7267.5
31
0
0
LINE
5
E2
100
AcDbEntity
8
DOORS
100
AcDbLine
10
10492.3
20
7267.5
30
0
11
10469.3
21
7382.9
31
0
0
LINE
5
E3
100
AcDbEntity
8
DOORS
100
AcDbLine
10
10469.3
20
7382.9
30
0
11
10431.5
21
7494.4
31
0
0
LINE
5
E4
100
AcDbEntity
8
DOORS
100
AcDbLine
10
10431.5
20
7494.4
30
0
11
10379.4
21
7600
31
0
0
LINE
5
E5
100
AcDbEntity
8
DOORS
100
AcDbLine
10
10379.4
20
7600
30
0
11
10314
21
7697.9
31
0
0
LINE
5
E6
100
AcDbEntity
8
DOORS
100
AcDbLine
10
10314
20
7697.9
30
0
11
10236.4
21
7786.4
31
0
0
LINE
5
E7
100
AcDbEntity
8
DOORS
100
AcDbLine
10
10236.4
20
7786.4
30
0
11
10147.9
21
7864
31
0
0
LINE
5
E8
100
AcDbEntity
8
DOORS
100
AcDbLine
10
10147.9
20
7864
30
0
11
10050
21
7929.4
31
0
0
LINE
5
E9
100
AcDbEntity
8
DOORS
100
AcDbLine
10
10050
20
7929.4
30
0
11
9944.4
21
7981.5
31
0
0
LINE
5
EA
100
AcDbEntity
8
DOORS
100
AcDbLine
10
9944.4
20
7981.5
30
0
11
9832.9
21
8019.3
31
0
0
LINE
5
EB
100
AcDbEntity
8
DOORS
100
AcDbLine
10
9832.9
20
8019.3
30
0
11
9717.5
21
8042.3
31
0
0
LINE
5
EC
100
AcDbEntity
8
DOORS
100
AcDbLine
10
9717.5
20
8042.3
30
0
11
9600
21
8050
31
0
0
LINE
5
ED
100
AcDbEntity
8
STAIRS
100
AcDbLine
10
14350
20
6900
30
0
11
16550
21
6900
31
0
0
LINE
5
EE
100
AcDbEntity
8
STAIRS
100
AcDbLine
10
16550
20
6900
30
0
11
16550
21
8900
31
0
0
LINE
5
EF
100
AcDbEntity
8
STAIRS
100
AcDbLine
10
16550
20
8900
30
0
11
14350
21
8900
31
0
0
LINE
5
F0
100
AcDbEntity
8
STAIRS
100
AcDbLine
10
14350
20
8900
30
0
11
14350
21
6900
31
0
0
LINE
5
F1
100
AcDbEntity
8
STAIRS
100
AcDbLine
10
14350
20
6900
30
0
11
15300
21
6900
31
0
0
LINE
5
F2
100
AcDbEntity
8
STAIRS
100
AcDbLine
10
15600
20
6900
30
0
11
16550
21
6900
31
0
0
LINE
5
F3
100
AcDbEntity
8
STAIRS
100
AcDbLine
10
14350
20
7120
30
0
11
15300
21
7120
31
0
0
LINE
5
F4
100
AcDbEntity
8
STAIRS
100
AcDbLine
10
15600
20
7120
30
0
11
16550
21
7120
31
0
0
LINE
5
F5
100
AcDbEntity
8
STAIRS
100
AcDbLine
10
14350
20
7340
30
0
11
15300
21
7340
31
0
0
LINE
5
F6
100
AcDbEntity
8
STAIRS
100
AcDbLine
10
15600
20
7340
30
0
11
16550
21
7340
31
0
0
LINE
5
F7
100
AcDbEntity
8
STAIRS
100
AcDbLine
10
14350
20
7560
30
0
11
15300
21
7560
31
0
0
LINE
5
F8
100
AcDbEntity
8
STAIRS
100
AcDbLine
10
15600
20
7560
30
0
11
16550
21
7560
31
0
0
LINE
5
F9
100
AcDbEntity
8
STAIRS
100
AcDbLine
10
14350
20
7780
30
0
11
15300
21
7780
31
0
0
LINE
5
FA
100
AcDbEntity
8
STAIRS
100
AcDbLine
10
15600
20
7780
30
0
11
16550
21
7780
31
0
0
LINE
5
FB
100
AcDbEntity
8
STAIRS
100
AcDbLine
10
14350
20
8000
30
0
11
15300
21
8000
31
0
0
LINE
5
FC
100
AcDbEntity
8
STAIRS
100
AcDbLine
10
15600
20
8000
30
0
11
16550
21
8000
31
0
0
LINE
5
FD
100
AcDbEntity
8
STAIRS
100
AcDbLine
10
14350
20
8220
30
0
11
15300
21
8220
31
0
0
LINE
5
FE
100
AcDbEntity
8
STAIRS
100
AcDbLine
10
15600
20
8220
30
0
11
16550
21
8220
31
0
0
LINE
5
FF
100
AcDbEntity
8
STAIRS
100
AcDbLine
10
14350
20
8440
30
0
11
15300
21
8440
31
0
0
LINE
5
100
100
AcDbEntity
8
STAIRS
100
AcDbLine
10
15600
20
8440
30
0
11
16550
21
8440
31
0
0
LINE
5
101
100
AcDbEntity
8
WALLS
100
AcDbLine
10
9600
20
13125
30
0
11
16800
21
13125
31
0
0
LINE
5
102
100
AcDbEntity
8
WALLS
100
AcDbLine
10
16725
20
9200
30
0
11
16725
21
10600
31
0
0
LINE
5
103
100
AcDbEntity
8
WALLS
100
AcDbLine
10
16725
20
11800
30
0
11
16725
21
13200
31
0
0
LINE
5
104
100
AcDbEntity
8
WALLS
100
AcDbLine
10
9525
20
9200
30
0
11
9525
21
10750
31
0
0
LINE
5
105
100
AcDbEntity
8
WALLS
100
AcDbLine
10
9525
20
11650
30
0
11
9525
21
13200
31
0
0
LINE
5
106
100
AcDbEntity
8
WALLS
100
AcDbLine
10
9600
20
13275
30
0
11
16800
21
13275
31
0
0
LINE
5
107
100
AcDbEntity
8
WALLS
100
AcDbLine
10
16875
20
9200
30
0
11
16875
21
10600
31
0
0
LINE
5
108
100
AcDbEntity
8
WALLS
100
AcDbLine
10
16875
20
11800
30
0
11
16875
21
13200
31
0
0
LINE
5
109
100
AcDbEntity
8
WALLS
100
AcDbLine
10
9675
20
9200
30
0
11
9675
21
10750
31
0
0
LINE
5
10A
100
AcDbEntity
8
WALLS
100
AcDbLine
10
9675
20
11650
30
0
11
9675
21
13200
31
0
0
LINE
5
10B
100
AcDbEntity
8
WINDOWS
100
AcDbLine
10
16760
20
10600
30
0
11
16760
21
11800
31
0
0
LINE
5
10C
100
AcDbEntity
8
WINDOWS
100
AcDbLine
10
16840
20
10600
30
0
11
16840
21
11800
31
0
0
LINE
5
10D
100
AcDbEntity
8
DOORS
100
AcDbLine
10
9600
20
10750
30
0
11
10500
21
10750
31
0
0
LINE
5
10E
100
AcDbEntity
8
DOORS
100
AcDbLine
10
10500
20
10750
30
0
11
10492.3
21
10867.5
31
0
0
LINE
5
10F
100
AcDbEntity
8
DOORS
100
AcDbLine
10
10492.3
20
10867.5
30
0
11
10469.3
21
10982.9
31
0
0
LINE
5
110
100
AcDbEntity
8
DOORS
100
AcDbLine
10
10469.3
20
10982.9
30
0
11
10431.5
21
11094.4
31
0
0
LINE
5
111
100
AcDbEntity
8
DOORS
100
AcDbLine
10
10431.5
20
11094.4
30
0
11
10379.4
21
11200
31
0
0
LINE
5
112
100
AcDbEntity
8
DOORS
100
AcDbLine
10
10379.4
20
11200
30
0
11
10314
21
11297.9
31
0
0
LINE
5
113
100
AcDbEntity
8
DOORS
100
AcDbLine
10
10314
20
11297.9
30
0
11
10236.4
21
11386.4
31
0
0
LINE
5
114
100
AcDbEntity
8
DOORS
100
AcDbLine
10
10236.4
20
11386.4
30
0
11
10147.9
21
11464
31
0
0
LINE
5
115
100
AcDbEntity
8
DOORS
100
AcDbLine
10
10147.9
20
11464
30
0
11
10050
21
11529.4
31
0
0
LINE
5
116
100
AcDbEntity
8
DOORS
100
AcDbLine
10
10050
20
11529.4
30
0
11
9944.4
21
11581.5
31
0
0
LINE
5
117
100
AcDbEntity
8
DOORS
100
AcDbLine
10
9944.4
20
11581.5
30
0
11
9832.9
21
11619.3
31
0
0
LINE
5
118
100
AcDbEntity
8
DOORS
100
AcDbLine
10
9832.9
20
11619.3
30
0
11
9717.5
21
11642.3
31
0
0
LINE
5
119
100
AcDbEntity
8
DOORS
100
AcDbLine
10
9717.5
20
11642.3
30
0
11
9600
21
11650
31
0
0
LINE
5
11A
100
AcDbEntity
8
FURNITURE
100
AcDbLine
10
14850
20
11600
30
0
11
16350
21
11600
31
0
0
LINE
5
11B
100
AcDbEntity
8
FURNITURE
100
AcDbLine
10
16350
20
11600
30
0
11
16350
21
12400
31
0
0
LINE
5
11C
100
AcDbEntity
8
FURNITURE
100
AcDbLine
10
16350
20
12400
30
0
11
14850
21
12400
31
0
0
LINE
5
11D
100
AcDbEntity
8
FURNITURE
100
AcDbLine
10
14850
20
12400
30
0
11
14850
21
11600
31
0
0
LINE
5
11E
100
AcDbEntity
8
WALLS
100
AcDbLine
10
9600
20
17625
30
0
11
16800
21
17625
31
0
0
LINE
5
11F
100
AcDbEntity
8
WALLS
100
AcDbLine
10
16725
20
13200
30
0
11
16725
21
14850
31
0
0
LINE
5
120
100
AcDbEntity
8
WALLS
100
AcDbLine
10
16725
20
16050
30
0
11
16725
21
17700
31
0
0
LINE
5
121
100
AcDbEntity
8
WALLS
100
AcDbLine
10
9525
20
13200
30
0
11
9525
21
15000
31
0
0
LINE
5
122
100
AcDbEntity
8
WALLS
100
AcDbLine
10
9525
20
15900
30
0
11
9525
21
17700
31
0
0
LINE
5
123
100
AcDbEntity
8
WALLS
100
AcDbLine
10
9600
20
17775
30
0
11
16800
21
17775
31
0
0
LINE
5
124
100
AcDbEntity
8
WALLS
100
AcDbLine
10
16875
20
13200
30
0
11
16875
21
14850
31
0
0
LINE
5
125
100
AcDbEntity
8
WALLS
100
AcDbLine
10
16875
20
16050
30
0
11
16875
21
17700
31
0
0
LINE
5
126
100
AcDbEntity
8
WALLS
100
AcDbLine
10
9675
20
13200
30
0
11
9675
21
15000
31
0
0
LINE
5
127
100
AcDbEntity
8
WALLS
100
AcDbLine
10
9675
20
15900
30
0
11
9675
21
17700
31
0
0
LINE
5
128
100
AcDbEntity
8
WINDOWS
100
AcDbLine
10
16760
20
14850
30
0
11
16760
21
16050
31
0
0
LINE
5
129
100
AcDbEntity
8
WINDOWS
100
AcDbLine
10
16840
20
14850
30
0
11
16840
21
16050
31
0
0
LINE
5
12A
100
AcDbEntity
8
DOORS
100
AcDbLine
10
9600
20
15000
30
0
11
10500
21
15000
31
0
0
LINE
5
12B
100
AcDbEntity
8
DOORS
100
AcDbLine
10
10500
20
15000
30
0
11
10492.3
21
15117.5
31
0
0
LINE
5
12C
100
AcDbEntity
8
DOORS
100
AcDbLine
10
10492.3
20
15117.5
30
0
11
10469.3
21
15232.9
31
0
0
LINE
5
12D
100
AcDbEntity
8
DOORS
100
AcDbLine
10
10469.3
20
15232.9
30
0
11
10431.5
21
15344.4
31
0
0
LINE
5
12E
100
AcDbEntity
8
DOORS
100
AcDbLine
10
10431.5
20
15344.4
30
0
11
10379.4
21
15450
31
0
0
LINE
5
12F
100
AcDbEntity
8
DOORS
100
AcDbLine
10
10379.4
20
15450
30
0
11
10314
21
15547.9
31
0
0
LINE
5
130
100
AcDbEntity
8
DOORS
100
AcDbLine
10
10314
20
15547.9
30
0
11
10236.4
21
15636.4
31
0
0
LINE
5
131
100
AcDbEntity
8
DOORS
100
AcDbLine
10
10236.4
20
15636.4
30
0
11
10147.9
21
15714
31
0
0
LINE
5
132
100
AcDbEntity
8
DOORS
100
AcDbLine
10
10147.9
20
15714
30
0
11
10050
21
15779.4
31
0
0
LINE
5
133
100
AcDbEntity
8
DOORS
100
AcDbLine
10
10050
20
15779.4
30
0
11
9944.4
21
15831.5
31
0
0
LINE
5
134
100
AcDbEntity
8
DOORS
100
AcDbLine
10
9944.4
20
15831.5
30
0
11
9832.9
21
15869.3
31
0
0
LINE
5
135
100
AcDbEntity
8
DOORS
100
AcDbLine
10
9832.9
20
15869.3
30
0
11
9717.5
21
15892.3
31
0
0
LINE
5
136
100
AcDbEntity
8
DOORS
100
AcDbLine
10
9717.5
20
15892.3
30
0
11
9600
21
15900
31
0
0
LINE
5
137
100
AcDbEntity
8
FURNITURE
100
AcDbLine
10
15050
20
15650
30
0
11
16550
21
15650
31
0
0
LINE
5
138
100
AcDbEntity
8
FURNITURE
100
AcDbLine
10
16550
20
15650
30
0
11
16550
21
17450
31
0
0
LINE
5
139
100
AcDbEntity
8
FURNITURE
100
AcDbLine
10
16550
20
17450
30
0
11
15050
21
17450
31
0
0
LINE
5
13A
100
AcDbEntity
8
FURNITURE
100
AcDbLine
10
15050
20
17450
30
0
11
15050
21
15650
31
0
0
LINE
5
13B
100
AcDbEntity
8
FURNITURE
100
AcDbLine
10
15150
20
17000
30
0
11
16450
21
17000
31
0
0
LINE
5
13C
100
AcDbEntity
8
FURNITURE
100
AcDbLine
10
16450
20
17000
30
0
11
16450
21
17350
31
0
0
LINE
5
13D
100
AcDbEntity
8
FURNITURE
100
AcDbLine
10
16450
20
17350
30
0
11
15150
21
17350
31
0
0
LINE
5
13E
100
AcDbEntity
8
FURNITURE
100
AcDbLine
10
15150
20
17350
30
0
11
15150
21
17000
31
0
0
LINE
5
13F
100
AcDbEntity
8
WALLS
100
AcDbLine
10
9600
20
19425
30
0
11
16800
21
19425
31
0
0
LINE
5
140
100
AcDbEntity
8
WALLS
100
AcDbLine
10
16725
20
17700
30
0
11
16725
21
18000
31
0
0
LINE
5
141
100
AcDbEntity
8
WALLS
100
AcDbLine
10
16725
20
19200
30
0
11
16725
21
19500
31
0
0
LINE
5
142
100
AcDbEntity
8
WALLS
100
AcDbLine
10
9525
20
17700
30
0
11
9525
21
18150
31
0
0
LINE
5
143
100
AcDbEntity
8
WALLS
100
AcDbLine
10
9525
20
19050
30
0
11
9525
21
19500
31
0
0
LINE
5
144
100
AcDbEntity
8
WALLS
100
AcDbLine
10
9600
20
19575
30
0
11
16800
21
19575
31
0
0
LINE
5
145
100
AcDbEntity
8
WALLS
100
AcDbLine
10
16875
20
17700
30
0
11
16875
21
18000
31
0
0
LINE
5
146
100
AcDbEntity
8
WALLS
100
AcDbLine
10
16875
20
19200
30
0
11
16875
21
19500
31
0
0
LINE
5
147
100
AcDbEntity
8
WALLS
100
AcDbLine
10
9675
20
17700
30
0
11
9675
21
18150
31
0
0
LINE
5
148
100
AcDbEntity
8
WALLS
100
AcDbLine
10
9675
20
19050
30
0
11
9675
21
19500
31
0
0
LINE
5
149
100
AcDbEntity
8
WINDOWS
100
AcDbLine
10
16760
20
18000
30
0
11
16760
21
19200
31
0
0
LINE
5
14A
100
AcDbEntity
8
WINDOWS
100
AcDbLine
10
16840
20
18000
30
0
11
16840
21
19200
31
0
0
LINE
5
14B
100
AcDbEntity
8
DOORS
100
AcDbLine
10
9600
20
18150
30
0
11
10500
21
18150
31
0
0
LINE
5
14C
100
AcDbEntity
8
DOORS
100
AcDbLine
10
10500
20
18150
30
0
11
10492.3
21
18267.5
31
0
0
LINE
5
14D
100
AcDbEntity
8
DOORS
100
AcDbLine
10
10492.3
20
18267.5
30
0
11
10469.3
21
18382.9
31
0
0
LINE
5
14E
100
AcDbEntity
8
DOORS
100
AcDbLine
10
10469.3
20
18382.9
30
0
11
10431.5
21
18494.4
31
0
0
LINE
5
14F
100
AcDbEntity
8
DOORS
100
AcDbLine
10
10431.5
20
18494.4
30
0
11
10379.4
21
18600
31
0
0
LINE
5
150
100
AcDbEntity
8
DOORS
100
AcDbLine
10
10379.4
20
18600
30
0
11
10314
21
18697.9
31
0
0
LINE
5
151
100
AcDbEntity
8
DOORS
100
AcDbLine
10
10314
20
18697.9
30
0
11
10236.4
21
18786.4
31
0
0
LINE
5
152
100
AcDbEntity
8
DOORS
100
AcDbLine
10
10236.4
20
18786.4
30
0
11
10147.9
21
18864
31
0
0
LINE
5
153
100
AcDbEntity
8
DOORS
100
AcDbLine
10
10147.9
20
18864
30
0
11
10050
21
18929.4
31
0
0
LINE
5
154
100
AcDbEntity
8
DOORS
100
AcDbLine
10
10050
20
18929.4
30
0
11
9944.4
21
18981.5
31
0
0
LINE
5
155
100
AcDbEntity
8
DOORS
100
AcDbLine
10
9944.4
20
18981.5
30
0
11
9832.9
21
19019.3
31
0
0
LINE
5
156
100
AcDbEntity
8
DOORS
100
AcDbLine
10
9832.9
20
19019.3
30
0
11
9717.5
21
19042.3
31
0
0
LINE
5
157
100
AcDbEntity
8
DOORS
100
AcDbLine
10
9717.5
20
19042.3
30
0
11
9600
21
19050
31
0
0
LINE
5
158
100
AcDbEntity
8
FURNITURE
100
AcDbLine
10
9850
20
18650
30
0
11
10400
21
18650
31
0
0
LINE
5
159
100
AcDbEntity
8
FURNITURE
100
AcDbLine
10
10400
20
18650
30
0
11
10400
21
19250
31
0
0
LINE
5
15A
100
AcDbEntity
8
FURNITURE
100
AcDbLine
10
10400
20
19250
30
0
11
9850
21
19250
31
0
0
LINE
5
15B
100
AcDbEntity
8
FURNITURE
100
AcDbLine
10
9850
20
19250
30
0
11
9850
21
18650
31
0
0
LINE
5
15C
100
AcDbEntity
8
FURNITURE
100
AcDbLine
10
15750
20
18500
30
0
11
16550
21
18500
31
0
0
LINE
5
15D
100
AcDbEntity
8
FURNITURE
100
AcDbLine
10
16550
20
18500
30
0
11
16550
21
19250
31
0
0
LINE
5
15E
100
AcDbEntity
8
FURNITURE
100
AcDbLine
10
16550
20
19250
30
0
11
15750
21
19250
31
0
0
LINE
5
15F
100
AcDbEntity
8
FURNITURE
100
AcDbLine
10
15750
20
19250
30
0
11
15750
21
18500
31
0
0
LINE
5
160
100
AcDbEntity
8
WALLS
100
AcDbLine
10
9600
20
22725
30
0
11
16800
21
22725
31
0
0
LINE
5
161
100
AcDbEntity
8
WALLS
100
AcDbLine
10
16725
20
19500
30
0
11
16725
21
20550
31
0
0
LINE
5
162
100
AcDbEntity
8
WALLS
100
AcDbLine
10
16725
20
21750
30
0
11
16725
21
22800
31
0
0
LINE
5
163
100
AcDbEntity
8
WALLS
100
AcDbLine
10
9525
20
19500
30
0
11
9525
21
20700
31
0
0
LINE
5
164
100
AcDbEntity
8
WALLS
100
AcDbLine
10
9525
20
21600
30
0
11
9525
21
22800
31
0
0
LINE
5
165
100
AcDbEntity
8
WALLS
100
AcDbLine
10
9600
20
22875
30
0
11
16800
21
22875
31
0
0
LINE
5
166
100
AcDbEntity
8
WALLS
100
AcDbLine
10
16875
20
19500
30
0
11
16875
21
20550
31
0
0
LINE
5
167
100
AcDbEntity
8
WALLS
100
AcDbLine
10
16875
20
21750
30
0
11
16875
21
22800
31
0
0
LINE
5
168
100
AcDbEntity
8
WALLS
100
AcDbLine
10
9675
20
19500
30
0
11
9675
21
20700
31
0
0
LINE
5
169
100
AcDbEntity
8
WALLS
100
AcDbLine
10
9675
20
21600
30
0
11
9675
21
22800
31
0
0
LINE
5
16A
100
AcDbEntity
8
WINDOWS
100
AcDbLine
10
16760
20
20550
30
0
11
16760
21
21750
31
0
0
LINE
5
16B
100
AcDbEntity
8
WINDOWS
100
AcDbLine
10
16840
20
20550
30
0
11
16840
21
21750
31
0
0
LINE
5
16C
100
AcDbEntity
8
DOORS
100
AcDbLine
10
9600
20
20700
30
0
11
10500
21
20700
31
0
0
LINE
5
16D
100
AcDbEntity
8
DOORS
100
AcDbLine
10
10500
20
20700
30
0
11
10492.3
21
20817.5
31
0
0
LINE
5
16E
100
AcDbEntity
8
DOORS
100
AcDbLine
10
10492.3
20
20817.5
30
0
11
10469.3
21
20932.9
31
0
0
LINE
5
16F
100
AcDbEntity
8
DOORS
100
AcDbLine
10
10469.3
20
20932.9
30
0
11
10431.5
21
21044.4
31
0
0
LINE
5
170
100
AcDbEntity
8
DOORS
100
AcDbLine
10
10431.5
20
21044.4
30
0
11
10379.4
21
21150
31
0
0
LINE
5
171
100
AcDbEntity
8
DOORS
100
AcDbLine
10
10379.4
20
21150
30
0
11
10314
21
21247.9
31
0
0
LINE
5
172
100
AcDbEntity
8
DOORS
100
AcDbLine
10
10314
20
21247.9
30
0
11
10236.4
21
21336.4
31
0
0
LINE
5
173
100
AcDbEntity
8
DOORS
100
AcDbLine
10
10236.4
20
21336.4
30
0
11
10147.9
21
21414
31
0
0
LINE
5
174
100
AcDbEntity
8
DOORS
100
AcDbLine
10
10147.9
20
21414
30
0
11
10050
21
21479.4
31
0
0
LINE
5
175
100
AcDbEntity
8
DOORS
100
AcDbLine
10
10050
20
21479.4
30
0
11
9944.4
21
21531.5
31
0
0
LINE
5
176
100
AcDbEntity
8
DOORS
100
AcDbLine
10
9944.4
20
21531.5
30
0
11
9832.9
21
21569.3
31
0
0
LINE
5
177
100
AcDbEntity
8
DOORS
100
AcDbLine
10
9832.9
20
21569.3
30
0
11
9717.5
21
21592.3
31
0
0
LINE
5
178
100
AcDbEntity
8
DOORS
100
AcDbLine
10
9717.5
20
21592.3
30
0
11
9600
21
21600
31
0
0
LINE
5
179
100
AcDbEntity
8
FRAME
100
AcDbLine
10
-700
20
-400
30
0
11
21300
21
-400
31
0
0
LINE
5
17A
100
AcDbEntity
8
FRAME
100
AcDbLine
10
21300
20
-400
30
0
11
21300
21
26600
31
0
0
LINE
5
17B
100
AcDbEntity
8
FRAME
100
AcDbLine
10
21300
20
26600
30
0
11
-700
21
26600
31
0
0
LINE
5
17C
100
AcDbEntity
8
FRAME
100
AcDbLine
10
-700
20
26600
30
0
11
-700
21
-400
31
0
0
TEXT
5
17D
100
AcDbEntity
8
LABELS
100
AcDbText
10
400
20
25800
30
0
40
300
1
GROUND FLOOR
50
0
7
STANDARD
100
AcDbText
0
TEXT
5
17E
100
AcDbEntity
8
LABELS
100
AcDbText
10
400
20
650
30
0
40
180
1
CONCEPT ONLY - UNITS: MM - REVIEW REQUIRED
50
0
7
STANDARD
100
AcDbText
0
TEXT
5
17F
100
AcDbEntity
8
LABELS
100
AcDbText
10
400
20
1200
30
0
40
180
1
FRONT / SOUTH - 6 m assumed front zone
50
0
7
STANDARD
100
AcDbText
0
TEXT
5
180
100
AcDbEntity
8
LABELS
100
AcDbText
10
8500
20
6200
30
0
40
100
1
ENTRY E01
50
0
7
STANDARD
100
AcDbText
0
TEXT
5
181
100
AcDbEntity
8
LABELS
100
AcDbText
10
8500
20
24850
30
0
40
200
1
18.00 m
50
0
7
STANDARD
100
AcDbText
0
TEXT
5
182
100
AcDbEntity
8
LABELS
100
AcDbText
10
18700
20
12000
30
0
40
180
1
24.00 m
50
0
7
STANDARD
100
AcDbText
0
TEXT
5
183
100
AcDbEntity
8
LABELS
100
AcDbText
10
14400
20
5600
30
0
40
180
1
PARKING
50
0
7
STANDARD
100
AcDbText
0
TEXT
5
184
100
AcDbEntity
8
LABELS
100
AcDbText
10
7700
20
8557.5
30
0
40
120
1
D01
50
0
7
STANDARD
100
AcDbText
0
TEXT
5
185
100
AcDbEntity
8
LABELS
100
AcDbText
10
1450
20
6450
30
0
40
180
1
Living
50
0
7
STANDARD
100
AcDbText
0
TEXT
5
186
100
AcDbEntity
8
LABELS
100
AcDbText
10
1450
20
6180
30
0
40
130
1
7.05 x 3.83 m
50
0
7
STANDARD
100
AcDbText
0
TEXT
5
187
100
AcDbEntity
8
LABELS
100
AcDbText
10
7700
20
12332.5
30
0
40
120
1
D02
50
0
7
STANDARD
100
AcDbText
0
TEXT
5
188
100
AcDbEntity
8
LABELS
100
AcDbText
10
1450
20
10425
30
0
40
180
1
Kitchen
50
0
7
STANDARD
100
AcDbText
0
TEXT
5
189
100
AcDbEntity
8
LABELS
100
AcDbText
10
1450
20
10155
30
0
40
130
1
7.05 x 3.43 m
50
0
7
STANDARD
100
AcDbText
0
TEXT
5
18A
100
AcDbEntity
8
LABELS
100
AcDbText
10
7700
20
16057.5
30
0
40
120
1
D03
50
0
7
STANDARD
100
AcDbText
0
TEXT
5
18B
100
AcDbEntity
8
LABELS
100
AcDbText
10
1450
20
14000
30
0
40
180
1
Bedroom 1
50
0
7
STANDARD
100
AcDbText
0
TEXT
5
18C
100
AcDbEntity
8
LABELS
100
AcDbText
10
1450
20
13730
30
0
40
130
1
7.05 x 3.73 m
50
0
7
STANDARD
100
AcDbText
0
TEXT
5
18D
100
AcDbEntity
8
LABELS
100
AcDbText
10
7700
20
18895
30
0
40
120
1
D04
50
0
7
STANDARD
100
AcDbText
0
TEXT
5
18E
100
AcDbEntity
8
LABELS
100
AcDbText
10
1450
20
17875
30
0
40
180
1
Bathroom 1
50
0
7
STANDARD
100
AcDbText
0
TEXT
5
18F
100
AcDbEntity
8
LABELS
100
AcDbText
10
1450
20
17605
30
0
40
130
1
7.05 x 1.65 m
50
0
7
STANDARD
100
AcDbText
0
TEXT
5
190
100
AcDbEntity
8
LABELS
100
AcDbText
10
7700
20
21582.5
30
0
40
120
1
D05
50
0
7
STANDARD
100
AcDbText
0
TEXT
5
191
100
AcDbEntity
8
LABELS
100
AcDbText
10
1450
20
19675
30
0
40
180
1
Office
50
0
7
STANDARD
100
AcDbText
0
TEXT
5
192
100
AcDbEntity
8
LABELS
100
AcDbText
10
1450
20
19405
30
0
40
130
1
7.05 x 3.43 m
50
0
7
STANDARD
100
AcDbText
0
TEXT
5
193
100
AcDbEntity
8
LABELS
100
AcDbText
10
9800
20
8170
30
0
40
120
1
D06
50
0
7
STANDARD
100
AcDbText
0
TEXT
5
194
100
AcDbEntity
8
LABELS
100
AcDbText
10
15848
20
6450
30
0
40
180
1
Stairs
50
0
7
STANDARD
100
AcDbText
0
TEXT
5
195
100
AcDbEntity
8
LABELS
100
AcDbText
10
15451.5
20
6180
30
0
40
130
1
7.05 x 3.05 m
50
0
7
STANDARD
100
AcDbText
0
TEXT
5
196
100
AcDbEntity
8
LABELS
100
AcDbText
10
9800
20
11770
30
0
40
120
1
D07
50
0
7
STANDARD
100
AcDbText
0
TEXT
5
197
100
AcDbEntity
8
LABELS
100
AcDbText
10
15848
20
9650
30
0
40
180
1
Dining
50
0
7
STANDARD
100
AcDbText
0
TEXT
5
198
100
AcDbEntity
8
LABELS
100
AcDbText
10
15451.5
20
9380
30
0
40
130
1
7.05 x 3.85 m
50
0
7
STANDARD
100
AcDbText
0
TEXT
5
199
100
AcDbEntity
8
LABELS
100
AcDbText
10
9800
20
16020
30
0
40
120
1
D08
50
0
7
STANDARD
100
AcDbText
0
TEXT
5
19A
100
AcDbEntity
8
LABELS
100
AcDbText
10
15497
20
13650
30
0
40
180
1
Bedroom 2
50
0
7
STANDARD
100
AcDbText
0
TEXT
5
19B
100
AcDbEntity
8
LABELS
100
AcDbText
10
15451.5
20
13380
30
0
40
130
1
7.05 x 4.35 m
50
0
7
STANDARD
100
AcDbText
0
TEXT
5
19C
100
AcDbEntity
8
LABELS
100
AcDbText
10
9800
20
19170
30
0
40
120
1
D09
50
0
7
STANDARD
100
AcDbText
0
TEXT
5
19D
100
AcDbEntity
8
LABELS
100
AcDbText
10
15380
20
18150
30
0
40
180
1
Bathroom 2
50
0
7
STANDARD
100
AcDbText
0
TEXT
5
19E
100
AcDbEntity
8
LABELS
100
AcDbText
10
15451.5
20
17880
30
0
40
130
1
7.05 x 1.65 m
50
0
7
STANDARD
100
AcDbText
0
TEXT
5
19F
100
AcDbEntity
8
LABELS
100
AcDbText
10
9800
20
21720
30
0
40
120
1
D10
50
0
7
STANDARD
100
AcDbText
0
TEXT
5
1A0
100
AcDbEntity
8
LABELS
100
AcDbText
10
14912
20
19950
30
0
40
180
1
Flexible space
50
0
7
STANDARD
100
AcDbText
0
TEXT
5
1A1
100
AcDbEntity
8
LABELS
100
AcDbText
10
15451.5
20
19680
30
0
40
130
1
7.05 x 3.15 m
50
0
7
STANDARD
100
AcDbText
0
ENDSEC
0
EOF
