0
SECTION
2
HEADER
9
$ACADVER
1
AC1009
9
$MEASUREMENT
70
1
0
ENDSEC
0
SECTION
2
TABLES
0
TABLE
2
LAYER
70
12
0
LAYER
2
0
70
0
62
7
6
CONTINUOUS
0
LAYER
2
PLOT
70
0
62
8
6
CONTINUOUS
0
LAYER
2
WALLS
70
0
62
7
6
CONTINUOUS
0
LAYER
2
DOORS
70
0
62
3
6
CONTINUOUS
0
LAYER
2
WINDOWS
70
0
62
4
6
CONTINUOUS
0
LAYER
2
LABELS
70
0
62
7
6
CONTINUOUS
0
LAYER
2
DIMENSIONS
70
0
62
2
6
CONTINUOUS
0
LAYER
2
FURNITURE
70
0
62
8
6
CONTINUOUS
0
LAYER
2
STAIRS
70
0
62
6
6
CONTINUOUS
0
LAYER
2
SITE
70
0
62
3
6
CONTINUOUS
0
LAYER
2
SCHEDULE
70
0
62
7
6
CONTINUOUS
0
LAYER
2
FRAME
70
0
62
8
6
CONTINUOUS
0
ENDTAB
0
ENDSEC
0
SECTION
2
BLOCKS
0
ENDSEC
0
SECTION
2
ENTITIES
0
LINE
8
PLOT
10
0
20
0
30
0
11
18
21
0
31
0
0
LINE
8
PLOT
10
18
20
0
30
0
11
18
21
24
31
0
0
LINE
8
PLOT
10
18
20
24
30
0
11
0
21
24
31
0
0
LINE
8
PLOT
10
0
20
24
30
0
11
0
21
0
31
0
0
LINE
8
WALLS
10
8.4
20
22.8
30
0
11
9.6
21
22.8
31
0
0
LINE
8
WALLS
10
8.4
20
6
30
0
11
8.55
21
6
31
0
0
LINE
8
WALLS
10
9.45
20
6
30
0
11
9.6
21
6
31
0
0
LINE
8
DOORS
10
8.55
20
6
30
0
11
8.55
21
6.9
31
0
0
LINE
8
DIMENSIONS
10
0
20
24.65
30
0
11
18
21
24.65
31
0
0
LINE
8
DIMENSIONS
10
18.55
20
0
30
0
11
18.55
21
24
31
0
0
LINE
8
SITE
10
14.2
20
0.4
30
0
11
16.7
21
0.4
31
0
0
LINE
8
SITE
10
16.7
20
0.4
30
0
11
16.7
21
5.4
31
0
0
LINE
8
SITE
10
16.7
20
5.4
30
0
11
14.2
21
5.4
31
0
0
LINE
8
SITE
10
14.2
20
5.4
30
0
11
14.2
21
0.4
31
0
0
LINE
8
FURNITURE
10
14.45
20
0.9
30
0
11
16.45
21
0.9
31
0
0
LINE
8
FURNITURE
10
16.45
20
0.9
30
0
11
16.45
21
4.9
31
0
0
LINE
8
FURNITURE
10
16.45
20
4.9
30
0
11
14.45
21
4.9
31
0
0
LINE
8
FURNITURE
10
14.45
20
4.9
30
0
11
14.45
21
0.9
31
0
0
LINE
8
PLOT
10
22
20
0
30
0
11
40
21
0
31
0
0
LINE
8
PLOT
10
40
20
0
30
0
11
40
21
24
31
0
0
LINE
8
PLOT
10
40
20
24
30
0
11
22
21
24
31
0
0
LINE
8
PLOT
10
22
20
24
30
0
11
22
21
0
31
0
0
LINE
8
WALLS
10
30.4
20
22.8
30
0
11
31.6
21
22.8
31
0
0
LINE
8
WALLS
10
30.4
20
6
30
0
11
31.6
21
6
31
0
0
LINE
8
DIMENSIONS
10
22
20
24.65
30
0
11
40
21
24.65
31
0
0
LINE
8
DIMENSIONS
10
40.55
20
0
30
0
11
40.55
21
24
31
0
0
LINE
8
WALLS
10
1.2
20
5.925
30
0
11
8.4
21
5.925
31
0
0
LINE
8
WALLS
10
1.2
20
9.9
30
0
11
8.4
21
9.9
31
0
0
LINE
8
WALLS
10
1.125
20
6
30
0
11
1.125
21
7.3875
31
0
0
LINE
8
WALLS
10
1.125
20
8.5875
30
0
11
1.125
21
9.975
31
0
0
LINE
8
WALLS
10
8.325
20
6
30
0
11
8.325
21
7.5375
31
0
0
LINE
8
WALLS
10
8.325
20
8.4375
30
0
11
8.325
21
9.975
31
0
0
LINE
8
WALLS
10
1.2
20
6.075
30
0
11
8.4
21
6.075
31
0
0
LINE
8
WALLS
10
1.2
20
10.05
30
0
11
8.4
21
10.05
31
0
0
LINE
8
WALLS
10
1.275
20
6
30
0
11
1.275
21
7.3875
31
0
0
LINE
8
WALLS
10
1.275
20
8.5875
30
0
11
1.275
21
9.975
31
0
0
LINE
8
WALLS
10
8.475
20
6
30
0
11
8.475
21
7.5375
31
0
0
LINE
8
WALLS
10
8.475
20
8.4375
30
0
11
8.475
21
9.975
31
0
0
LINE
8
WINDOWS
10
1.16
20
7.3875
30
0
11
1.16
21
8.5875
31
0
0
LINE
8
WINDOWS
10
1.24
20
7.3875
30
0
11
1.24
21
8.5875
31
0
0
LINE
8
DOORS
10
8.4
20
7.5375
30
0
11
7.5
21
7.5375
31
0
0
LINE
8
DOORS
10
7.5
20
7.5375
30
0
11
7.5077
21
7.655
31
0
0
LINE
8
DOORS
10
7.5077
20
7.655
30
0
11
7.5307
21
7.7704
31
0
0
LINE
8
DOORS
10
7.5307
20
7.7704
30
0
11
7.5685
21
7.8819
31
0
0
LINE
8
DOORS
10
7.5685
20
7.8819
30
0
11
7.6206
21
7.9875
31
0
0
LINE
8
DOORS
10
7.6206
20
7.9875
30
0
11
7.686
21
8.0854
31
0
0
LINE
8
DOORS
10
7.686
20
8.0854
30
0
11
7.7636
21
8.1739
31
0
0
LINE
8
DOORS
10
7.7636
20
8.1739
30
0
11
7.8521
21
8.2515
31
0
0
LINE
8
DOORS
10
7.8521
20
8.2515
30
0
11
7.95
21
8.3169
31
0
0
LINE
8
DOORS
10
7.95
20
8.3169
30
0
11
8.0556
21
8.369
31
0
0
LINE
8
DOORS
10
8.0556
20
8.369
30
0
11
8.1671
21
8.4068
31
0
0
LINE
8
DOORS
10
8.1671
20
8.4068
30
0
11
8.2825
21
8.4298
31
0
0
LINE
8
DOORS
10
8.2825
20
8.4298
30
0
11
8.4
21
8.4375
31
0
0
LINE
8
FURNITURE
10
1.55
20
8.825
30
0
11
3.45
21
8.825
31
0
0
LINE
8
FURNITURE
10
3.45
20
8.825
30
0
11
3.45
21
9.575
31
0
0
LINE
8
FURNITURE
10
3.45
20
9.575
30
0
11
1.55
21
9.575
31
0
0
LINE
8
FURNITURE
10
1.55
20
9.575
30
0
11
1.55
21
8.825
31
0
0
LINE
8
FURNITURE
10
1.9
20
7.975
30
0
11
3.1
21
7.975
31
0
0
LINE
8
FURNITURE
10
3.1
20
7.975
30
0
11
3.1
21
8.525
31
0
0
LINE
8
FURNITURE
10
3.1
20
8.525
30
0
11
1.9
21
8.525
31
0
0
LINE
8
FURNITURE
10
1.9
20
8.525
30
0
11
1.9
21
7.975
31
0
0
LINE
8
WALLS
10
1.2
20
13.475
30
0
11
8.4
21
13.475
31
0
0
LINE
8
WALLS
10
1.125
20
9.975
30
0
11
1.125
21
11.1625
31
0
0
LINE
8
WALLS
10
1.125
20
12.3625
30
0
11
1.125
21
13.55
31
0
0
LINE
8
WALLS
10
8.325
20
9.975
30
0
11
8.325
21
11.3125
31
0
0
LINE
8
WALLS
10
8.325
20
12.2125
30
0
11
8.325
21
13.55
31
0
0
LINE
8
WALLS
10
1.2
20
13.625
30
0
11
8.4
21
13.625
31
0
0
LINE
8
WALLS
10
1.275
20
9.975
30
0
11
1.275
21
11.1625
31
0
0
LINE
8
WALLS
10
1.275
20
12.3625
30
0
11
1.275
21
13.55
31
0
0
LINE
8
WALLS
10
8.475
20
9.975
30
0
11
8.475
21
11.3125
31
0
0
LINE
8
WALLS
10
8.475
20
12.2125
30
0
11
8.475
21
13.55
31
0
0
LINE
8
WINDOWS
10
1.16
20
11.1625
30
0
11
1.16
21
12.3625
31
0
0
LINE
8
WINDOWS
10
1.24
20
11.1625
30
0
11
1.24
21
12.3625
31
0
0
LINE
8
DOORS
10
8.4
20
11.3125
30
0
11
7.5
21
11.3125
31
0
0
LINE
8
DOORS
10
7.5
20
11.3125
30
0
11
7.5077
21
11.43
31
0
0
LINE
8
DOORS
10
7.5077
20
11.43
30
0
11
7.5307
21
11.5454
31
0
0
LINE
8
DOORS
10
7.5307
20
11.5454
30
0
11
7.5685
21
11.6569
31
0
0
LINE
8
DOORS
10
7.5685
20
11.6569
30
0
11
7.6206
21
11.7625
31
0
0
LINE
8
DOORS
10
7.6206
20
11.7625
30
0
11
7.686
21
11.8604
31
0
0
LINE
8
DOORS
10
7.686
20
11.8604
30
0
11
7.7636
21
11.9489
31
0
0
LINE
8
DOORS
10
7.7636
20
11.9489
30
0
11
7.8521
21
12.0265
31
0
0
LINE
8
DOORS
10
7.8521
20
12.0265
30
0
11
7.95
21
12.0919
31
0
0
LINE
8
DOORS
10
7.95
20
12.0919
30
0
11
8.0556
21
12.144
31
0
0
LINE
8
DOORS
10
8.0556
20
12.144
30
0
11
8.1671
21
12.1818
31
0
0
LINE
8
DOORS
10
8.1671
20
12.1818
30
0
11
8.2825
21
12.2048
31
0
0
LINE
8
DOORS
10
8.2825
20
12.2048
30
0
11
8.4
21
12.2125
31
0
0
LINE
8
FURNITURE
10
1.45
20
10.975
30
0
11
2.05
21
10.975
31
0
0
LINE
8
FURNITURE
10
2.05
20
10.975
30
0
11
2.05
21
13.25
31
0
0
LINE
8
FURNITURE
10
2.05
20
13.25
30
0
11
1.45
21
13.25
31
0
0
LINE
8
FURNITURE
10
1.45
20
13.25
30
0
11
1.45
21
10.975
31
0
0
LINE
8
FURNITURE
10
1.5
20
12.65
30
0
11
2
21
12.65
31
0
0
LINE
8
FURNITURE
10
2
20
12.65
30
0
11
2
21
13.05
31
0
0
LINE
8
FURNITURE
10
2
20
13.05
30
0
11
1.5
21
13.05
31
0
0
LINE
8
FURNITURE
10
1.5
20
13.05
30
0
11
1.5
21
12.65
31
0
0
LINE
8
WALLS
10
1.2
20
17.35
30
0
11
8.4
21
17.35
31
0
0
LINE
8
WALLS
10
1.125
20
13.55
30
0
11
1.125
21
14.8875
31
0
0
LINE
8
WALLS
10
1.125
20
16.0875
30
0
11
1.125
21
17.425
31
0
0
LINE
8
WALLS
10
8.325
20
13.55
30
0
11
8.325
21
15.0375
31
0
0
LINE
8
WALLS
10
8.325
20
15.9375
30
0
11
8.325
21
17.425
31
0
0
LINE
8
WALLS
10
1.2
20
17.5
30
0
11
8.4
21
17.5
31
0
0
LINE
8
WALLS
10
1.275
20
13.55
30
0
11
1.275
21
14.8875
31
0
0
LINE
8
WALLS
10
1.275
20
16.0875
30
0
11
1.275
21
17.425
31
0
0
LINE
8
WALLS
10
8.475
20
13.55
30
0
11
8.475
21
15.0375
31
0
0
LINE
8
WALLS
10
8.475
20
15.9375
30
0
11
8.475
21
17.425
31
0
0
LINE
8
WINDOWS
10
1.16
20
14.8875
30
0
11
1.16
21
16.0875
31
0
0
LINE
8
WINDOWS
10
1.24
20
14.8875
30
0
11
1.24
21
16.0875
31
0
0
LINE
8
DOORS
10
8.4
20
15.0375
30
0
11
7.5
21
15.0375
31
0
0
LINE
8
DOORS
10
7.5
20
15.0375
30
0
11
7.5077
21
15.155
31
0
0
LINE
8
DOORS
10
7.5077
20
15.155
30
0
11
7.5307
21
15.2704
31
0
0
LINE
8
DOORS
10
7.5307
20
15.2704
30
0
11
7.5685
21
15.3819
31
0
0
LINE
8
DOORS
10
7.5685
20
15.3819
30
0
11
7.6206
21
15.4875
31
0
0
LINE
8
DOORS
10
7.6206
20
15.4875
30
0
11
7.686
21
15.5854
31
0
0
LINE
8
DOORS
10
7.686
20
15.5854
30
0
11
7.7636
21
15.6739
31
0
0
LINE
8
DOORS
10
7.7636
20
15.6739
30
0
11
7.8521
21
15.7515
31
0
0
LINE
8
DOORS
10
7.8521
20
15.7515
30
0
11
7.95
21
15.8169
31
0
0
LINE
8
DOORS
10
7.95
20
15.8169
30
0
11
8.0556
21
15.869
31
0
0
LINE
8
DOORS
10
8.0556
20
15.869
30
0
11
8.1671
21
15.9068
31
0
0
LINE
8
DOORS
10
8.1671
20
15.9068
30
0
11
8.2825
21
15.9298
31
0
0
LINE
8
DOORS
10
8.2825
20
15.9298
30
0
11
8.4
21
15.9375
31
0
0
LINE
8
FURNITURE
10
1.45
20
15.375
30
0
11
2.95
21
15.375
31
0
0
LINE
8
FURNITURE
10
2.95
20
15.375
30
0
11
2.95
21
17.175
31
0
0
LINE
8
FURNITURE
10
2.95
20
17.175
30
0
11
1.45
21
17.175
31
0
0
LINE
8
FURNITURE
10
1.45
20
17.175
30
0
11
1.45
21
15.375
31
0
0
LINE
8
FURNITURE
10
1.55
20
16.725
30
0
11
2.85
21
16.725
31
0
0
LINE
8
FURNITURE
10
2.85
20
16.725
30
0
11
2.85
21
17.075
31
0
0
LINE
8
FURNITURE
10
2.85
20
17.075
30
0
11
1.55
21
17.075
31
0
0
LINE
8
FURNITURE
10
1.55
20
17.075
30
0
11
1.55
21
16.725
31
0
0
LINE
8
WALLS
10
1.2
20
19.15
30
0
11
8.4
21
19.15
31
0
0
LINE
8
WALLS
10
1.125
20
17.425
30
0
11
1.125
21
17.725
31
0
0
LINE
8
WALLS
10
1.125
20
18.925
30
0
11
1.125
21
19.225
31
0
0
LINE
8
WALLS
10
8.325
20
17.425
30
0
11
8.325
21
17.875
31
0
0
LINE
8
WALLS
10
8.325
20
18.775
30
0
11
8.325
21
19.225
31
0
0
LINE
8
WALLS
10
1.2
20
19.3
30
0
11
8.4
21
19.3
31
0
0
LINE
8
WALLS
10
1.275
20
17.425
30
0
11
1.275
21
17.725
31
0
0
LINE
8
WALLS
10
1.275
20
18.925
30
0
11
1.275
21
19.225
31
0
0
LINE
8
WALLS
10
8.475
20
17.425
30
0
11
8.475
21
17.875
31
0
0
LINE
8
WALLS
10
8.475
20
18.775
30
0
11
8.475
21
19.225
31
0
0
LINE
8
WINDOWS
10
1.16
20
17.725
30
0
11
1.16
21
18.925
31
0
0
LINE
8
WINDOWS
10
1.24
20
17.725
30
0
11
1.24
21
18.925
31
0
0
LINE
8
DOORS
10
8.4
20
17.875
30
0
11
7.5
21
17.875
31
0
0
LINE
8
DOORS
10
7.5
20
17.875
30
0
11
7.5077
21
17.9925
31
0
0
LINE
8
DOORS
10
7.5077
20
17.9925
30
0
11
7.5307
21
18.1079
31
0
0
LINE
8
DOORS
10
7.5307
20
18.1079
30
0
11
7.5685
21
18.2194
31
0
0
LINE
8
DOORS
10
7.5685
20
18.2194
30
0
11
7.6206
21
18.325
31
0
0
LINE
8
DOORS
10
7.6206
20
18.325
30
0
11
7.686
21
18.4229
31
0
0
LINE
8
DOORS
10
7.686
20
18.4229
30
0
11
7.7636
21
18.5114
31
0
0
LINE
8
DOORS
10
7.7636
20
18.5114
30
0
11
7.8521
21
18.589
31
0
0
LINE
8
DOORS
10
7.8521
20
18.589
30
0
11
7.95
21
18.6544
31
0
0
LINE
8
DOORS
10
7.95
20
18.6544
30
0
11
8.0556
21
18.7065
31
0
0
LINE
8
DOORS
10
8.0556
20
18.7065
30
0
11
8.1671
21
18.7443
31
0
0
LINE
8
DOORS
10
8.1671
20
18.7443
30
0
11
8.2825
21
18.7673
31
0
0
LINE
8
DOORS
10
8.2825
20
18.7673
30
0
11
8.4
21
18.775
31
0
0
LINE
8
FURNITURE
10
1.45
20
18.375
30
0
11
2
21
18.375
31
0
0
LINE
8
FURNITURE
10
2
20
18.375
30
0
11
2
21
18.975
31
0
0
LINE
8
FURNITURE
10
2
20
18.975
30
0
11
1.45
21
18.975
31
0
0
LINE
8
FURNITURE
10
1.45
20
18.975
30
0
11
1.45
21
18.375
31
0
0
LINE
8
FURNITURE
10
7.35
20
18.225
30
0
11
8.15
21
18.225
31
0
0
LINE
8
FURNITURE
10
8.15
20
18.225
30
0
11
8.15
21
18.975
31
0
0
LINE
8
FURNITURE
10
8.15
20
18.975
30
0
11
7.35
21
18.975
31
0
0
LINE
8
FURNITURE
10
7.35
20
18.975
30
0
11
7.35
21
18.225
31
0
0
LINE
8
WALLS
10
1.2
20
22.725
30
0
11
8.4
21
22.725
31
0
0
LINE
8
WALLS
10
1.125
20
19.225
30
0
11
1.125
21
20.4125
31
0
0
LINE
8
WALLS
10
1.125
20
21.6125
30
0
11
1.125
21
22.8
31
0
0
LINE
8
WALLS
10
8.325
20
19.225
30
0
11
8.325
21
20.5625
31
0
0
LINE
8
WALLS
10
8.325
20
21.4625
30
0
11
8.325
21
22.8
31
0
0
LINE
8
WALLS
10
1.2
20
22.875
30
0
11
8.4
21
22.875
31
0
0
LINE
8
WALLS
10
1.275
20
19.225
30
0
11
1.275
21
20.4125
31
0
0
LINE
8
WALLS
10
1.275
20
21.6125
30
0
11
1.275
21
22.8
31
0
0
LINE
8
WALLS
10
8.475
20
19.225
30
0
11
8.475
21
20.5625
31
0
0
LINE
8
WALLS
10
8.475
20
21.4625
30
0
11
8.475
21
22.8
31
0
0
LINE
8
WINDOWS
10
1.16
20
20.4125
30
0
11
1.16
21
21.6125
31
0
0
LINE
8
WINDOWS
10
1.24
20
20.4125
30
0
11
1.24
21
21.6125
31
0
0
LINE
8
DOORS
10
8.4
20
20.5625
30
0
11
7.5
21
20.5625
31
0
0
LINE
8
DOORS
10
7.5
20
20.5625
30
0
11
7.5077
21
20.68
31
0
0
LINE
8
DOORS
10
7.5077
20
20.68
30
0
11
7.5307
21
20.7954
31
0
0
LINE
8
DOORS
10
7.5307
20
20.7954
30
0
11
7.5685
21
20.9069
31
0
0
LINE
8
DOORS
10
7.5685
20
20.9069
30
0
11
7.6206
21
21.0125
31
0
0
LINE
8
DOORS
10
7.6206
20
21.0125
30
0
11
7.686
21
21.1104
31
0
0
LINE
8
DOORS
10
7.686
20
21.1104
30
0
11
7.7636
21
21.1989
31
0
0
LINE
8
DOORS
10
7.7636
20
21.1989
30
0
11
7.8521
21
21.2765
31
0
0
LINE
8
DOORS
10
7.8521
20
21.2765
30
0
11
7.95
21
21.3419
31
0
0
LINE
8
DOORS
10
7.95
20
21.3419
30
0
11
8.0556
21
21.394
31
0
0
LINE
8
DOORS
10
8.0556
20
21.394
30
0
11
8.1671
21
21.4318
31
0
0
LINE
8
DOORS
10
8.1671
20
21.4318
30
0
11
8.2825
21
21.4548
31
0
0
LINE
8
DOORS
10
8.2825
20
21.4548
30
0
11
8.4
21
21.4625
31
0
0
LINE
8
FURNITURE
10
1.65
20
21.2
30
0
11
3.15
21
21.2
31
0
0
LINE
8
FURNITURE
10
3.15
20
21.2
30
0
11
3.15
21
22
31
0
0
LINE
8
FURNITURE
10
3.15
20
22
30
0
11
1.65
21
22
31
0
0
LINE
8
FURNITURE
10
1.65
20
22
30
0
11
1.65
21
21.2
31
0
0
LINE
8
WALLS
10
9.6
20
5.925
30
0
11
16.8
21
5.925
31
0
0
LINE
8
WALLS
10
9.6
20
9.125
30
0
11
16.8
21
9.125
31
0
0
LINE
8
WALLS
10
16.725
20
6
30
0
11
16.725
21
7
31
0
0
LINE
8
WALLS
10
16.725
20
8.2
30
0
11
16.725
21
9.2
31
0
0
LINE
8
WALLS
10
9.525
20
6
30
0
11
9.525
21
7.15
31
0
0
LINE
8
WALLS
10
9.525
20
8.05
30
0
11
9.525
21
9.2
31
0
0
LINE
8
WALLS
10
9.6
20
6.075
30
0
11
16.8
21
6.075
31
0
0
LINE
8
WALLS
10
9.6
20
9.275
30
0
11
16.8
21
9.275
31
0
0
LINE
8
WALLS
10
16.875
20
6
30
0
11
16.875
21
7
31
0
0
LINE
8
WALLS
10
16.875
20
8.2
30
0
11
16.875
21
9.2
31
0
0
LINE
8
WALLS
10
9.675
20
6
30
0
11
9.675
21
7.15
31
0
0
LINE
8
WALLS
10
9.675
20
8.05
30
0
11
9.675
21
9.2
31
0
0
LINE
8
WINDOWS
10
16.76
20
7
30
0
11
16.76
21
8.2
31
0
0
LINE
8
WINDOWS
10
16.84
20
7
30
0
11
16.84
21
8.2
31
0
0
LINE
8
DOORS
10
9.6
20
7.15
30
0
11
10.5
21
7.15
31
0
0
LINE
8
DOORS
10
10.5
20
7.15
30
0
11
10.4923
21
7.2675
31
0
0
LINE
8
DOORS
10
10.4923
20
7.2675
30
0
11
10.4693
21
7.3829
31
0
0
LINE
8
DOORS
10
10.4693
20
7.3829
30
0
11
10.4315
21
7.4944
31
0
0
LINE
8
DOORS
10
10.4315
20
7.4944
30
0
11
10.3794
21
7.6
31
0
0
LINE
8
DOORS
10
10.3794
20
7.6
30
0
11
10.314
21
7.6979
31
0
0
LINE
8
DOORS
10
10.314
20
7.6979
30
0
11
10.2364
21
7.7864
31
0
0
LINE
8
DOORS
10
10.2364
20
7.7864
30
0
11
10.1479
21
7.864
31
0
0
LINE
8
DOORS
10
10.1479
20
7.864
30
0
11
10.05
21
7.9294
31
0
0
LINE
8
DOORS
10
10.05
20
7.9294
30
0
11
9.9444
21
7.9815
31
0
0
LINE
8
DOORS
10
9.9444
20
7.9815
30
0
11
9.8329
21
8.0193
31
0
0
LINE
8
DOORS
10
9.8329
20
8.0193
30
0
11
9.7175
21
8.0423
31
0
0
LINE
8
DOORS
10
9.7175
20
8.0423
30
0
11
9.6
21
8.05
31
0
0
LINE
8
STAIRS
10
14.35
20
6.9
30
0
11
16.55
21
6.9
31
0
0
LINE
8
STAIRS
10
16.55
20
6.9
30
0
11
16.55
21
8.9
31
0
0
LINE
8
STAIRS
10
16.55
20
8.9
30
0
11
14.35
21
8.9
31
0
0
LINE
8
STAIRS
10
14.35
20
8.9
30
0
11
14.35
21
6.9
31
0
0
LINE
8
STAIRS
10
14.35
20
6.9
30
0
11
15.3
21
6.9
31
0
0
LINE
8
STAIRS
10
15.6
20
6.9
30
0
11
16.55
21
6.9
31
0
0
LINE
8
STAIRS
10
14.35
20
7.12
30
0
11
15.3
21
7.12
31
0
0
LINE
8
STAIRS
10
15.6
20
7.12
30
0
11
16.55
21
7.12
31
0
0
LINE
8
STAIRS
10
14.35
20
7.34
30
0
11
15.3
21
7.34
31
0
0
LINE
8
STAIRS
10
15.6
20
7.34
30
0
11
16.55
21
7.34
31
0
0
LINE
8
STAIRS
10
14.35
20
7.56
30
0
11
15.3
21
7.56
31
0
0
LINE
8
STAIRS
10
15.6
20
7.56
30
0
11
16.55
21
7.56
31
0
0
LINE
8
STAIRS
10
14.35
20
7.78
30
0
11
15.3
21
7.78
31
0
0
LINE
8
STAIRS
10
15.6
20
7.78
30
0
11
16.55
21
7.78
31
0
0
LINE
8
STAIRS
10
14.35
20
8
30
0
11
15.3
21
8
31
0
0
LINE
8
STAIRS
10
15.6
20
8
30
0
11
16.55
21
8
31
0
0
LINE
8
STAIRS
10
14.35
20
8.22
30
0
11
15.3
21
8.22
31
0
0
LINE
8
STAIRS
10
15.6
20
8.22
30
0
11
16.55
21
8.22
31
0
0
LINE
8
STAIRS
10
14.35
20
8.44
30
0
11
15.3
21
8.44
31
0
0
LINE
8
STAIRS
10
15.6
20
8.44
30
0
11
16.55
21
8.44
31
0
0
LINE
8
WALLS
10
9.6
20
13.125
30
0
11
16.8
21
13.125
31
0
0
LINE
8
WALLS
10
16.725
20
9.2
30
0
11
16.725
21
10.6
31
0
0
LINE
8
WALLS
10
16.725
20
11.8
30
0
11
16.725
21
13.2
31
0
0
LINE
8
WALLS
10
9.525
20
9.2
30
0
11
9.525
21
10.75
31
0
0
LINE
8
WALLS
10
9.525
20
11.65
30
0
11
9.525
21
13.2
31
0
0
LINE
8
WALLS
10
9.6
20
13.275
30
0
11
16.8
21
13.275
31
0
0
LINE
8
WALLS
10
16.875
20
9.2
30
0
11
16.875
21
10.6
31
0
0
LINE
8
WALLS
10
16.875
20
11.8
30
0
11
16.875
21
13.2
31
0
0
LINE
8
WALLS
10
9.675
20
9.2
30
0
11
9.675
21
10.75
31
0
0
LINE
8
WALLS
10
9.675
20
11.65
30
0
11
9.675
21
13.2
31
0
0
LINE
8
WINDOWS
10
16.76
20
10.6
30
0
11
16.76
21
11.8
31
0
0
LINE
8
WINDOWS
10
16.84
20
10.6
30
0
11
16.84
21
11.8
31
0
0
LINE
8
DOORS
10
9.6
20
10.75
30
0
11
10.5
21
10.75
31
0
0
LINE
8
DOORS
10
10.5
20
10.75
30
0
11
10.4923
21
10.8675
31
0
0
LINE
8
DOORS
10
10.4923
20
10.8675
30
0
11
10.4693
21
10.9829
31
0
0
LINE
8
DOORS
10
10.4693
20
10.9829
30
0
11
10.4315
21
11.0944
31
0
0
LINE
8
DOORS
10
10.4315
20
11.0944
30
0
11
10.3794
21
11.2
31
0
0
LINE
8
DOORS
10
10.3794
20
11.2
30
0
11
10.314
21
11.2979
31
0
0
LINE
8
DOORS
10
10.314
20
11.2979
30
0
11
10.2364
21
11.3864
31
0
0
LINE
8
DOORS
10
10.2364
20
11.3864
30
0
11
10.1479
21
11.464
31
0
0
LINE
8
DOORS
10
10.1479
20
11.464
30
0
11
10.05
21
11.5294
31
0
0
LINE
8
DOORS
10
10.05
20
11.5294
30
0
11
9.9444
21
11.5815
31
0
0
LINE
8
DOORS
10
9.9444
20
11.5815
30
0
11
9.8329
21
11.6193
31
0
0
LINE
8
DOORS
10
9.8329
20
11.6193
30
0
11
9.7175
21
11.6423
31
0
0
LINE
8
DOORS
10
9.7175
20
11.6423
30
0
11
9.6
21
11.65
31
0
0
LINE
8
FURNITURE
10
14.85
20
11.6
30
0
11
16.35
21
11.6
31
0
0
LINE
8
FURNITURE
10
16.35
20
11.6
30
0
11
16.35
21
12.4
31
0
0
LINE
8
FURNITURE
10
16.35
20
12.4
30
0
11
14.85
21
12.4
31
0
0
LINE
8
FURNITURE
10
14.85
20
12.4
30
0
11
14.85
21
11.6
31
0
0
LINE
8
WALLS
10
9.6
20
17.625
30
0
11
16.8
21
17.625
31
0
0
LINE
8
WALLS
10
16.725
20
13.2
30
0
11
16.725
21
14.85
31
0
0
LINE
8
WALLS
10
16.725
20
16.05
30
0
11
16.725
21
17.7
31
0
0
LINE
8
WALLS
10
9.525
20
13.2
30
0
11
9.525
21
15
31
0
0
LINE
8
WALLS
10
9.525
20
15.9
30
0
11
9.525
21
17.7
31
0
0
LINE
8
WALLS
10
9.6
20
17.775
30
0
11
16.8
21
17.775
31
0
0
LINE
8
WALLS
10
16.875
20
13.2
30
0
11
16.875
21
14.85
31
0
0
LINE
8
WALLS
10
16.875
20
16.05
30
0
11
16.875
21
17.7
31
0
0
LINE
8
WALLS
10
9.675
20
13.2
30
0
11
9.675
21
15
31
0
0
LINE
8
WALLS
10
9.675
20
15.9
30
0
11
9.675
21
17.7
31
0
0
LINE
8
WINDOWS
10
16.76
20
14.85
30
0
11
16.76
21
16.05
31
0
0
LINE
8
WINDOWS
10
16.84
20
14.85
30
0
11
16.84
21
16.05
31
0
0
LINE
8
DOORS
10
9.6
20
15
30
0
11
10.5
21
15
31
0
0
LINE
8
DOORS
10
10.5
20
15
30
0
11
10.4923
21
15.1175
31
0
0
LINE
8
DOORS
10
10.4923
20
15.1175
30
0
11
10.4693
21
15.2329
31
0
0
LINE
8
DOORS
10
10.4693
20
15.2329
30
0
11
10.4315
21
15.3444
31
0
0
LINE
8
DOORS
10
10.4315
20
15.3444
30
0
11
10.3794
21
15.45
31
0
0
LINE
8
DOORS
10
10.3794
20
15.45
30
0
11
10.314
21
15.5479
31
0
0
LINE
8
DOORS
10
10.314
20
15.5479
30
0
11
10.2364
21
15.6364
31
0
0
LINE
8
DOORS
10
10.2364
20
15.6364
30
0
11
10.1479
21
15.714
31
0
0
LINE
8
DOORS
10
10.1479
20
15.714
30
0
11
10.05
21
15.7794
31
0
0
LINE
8
DOORS
10
10.05
20
15.7794
30
0
11
9.9444
21
15.8315
31
0
0
LINE
8
DOORS
10
9.9444
20
15.8315
30
0
11
9.8329
21
15.8693
31
0
0
LINE
8
DOORS
10
9.8329
20
15.8693
30
0
11
9.7175
21
15.8923
31
0
0
LINE
8
DOORS
10
9.7175
20
15.8923
30
0
11
9.6
21
15.9
31
0
0
LINE
8
FURNITURE
10
15.05
20
15.65
30
0
11
16.55
21
15.65
31
0
0
LINE
8
FURNITURE
10
16.55
20
15.65
30
0
11
16.55
21
17.45
31
0
0
LINE
8
FURNITURE
10
16.55
20
17.45
30
0
11
15.05
21
17.45
31
0
0
LINE
8
FURNITURE
10
15.05
20
17.45
30
0
11
15.05
21
15.65
31
0
0
LINE
8
FURNITURE
10
15.15
20
17
30
0
11
16.45
21
17
31
0
0
LINE
8
FURNITURE
10
16.45
20
17
30
0
11
16.45
21
17.35
31
0
0
LINE
8
FURNITURE
10
16.45
20
17.35
30
0
11
15.15
21
17.35
31
0
0
LINE
8
FURNITURE
10
15.15
20
17.35
30
0
11
15.15
21
17
31
0
0
LINE
8
WALLS
10
9.6
20
19.425
30
0
11
16.8
21
19.425
31
0
0
LINE
8
WALLS
10
16.725
20
17.7
30
0
11
16.725
21
18
31
0
0
LINE
8
WALLS
10
16.725
20
19.2
30
0
11
16.725
21
19.5
31
0
0
LINE
8
WALLS
10
9.525
20
17.7
30
0
11
9.525
21
18.15
31
0
0
LINE
8
WALLS
10
9.525
20
19.05
30
0
11
9.525
21
19.5
31
0
0
LINE
8
WALLS
10
9.6
20
19.575
30
0
11
16.8
21
19.575
31
0
0
LINE
8
WALLS
10
16.875
20
17.7
30
0
11
16.875
21
18
31
0
0
LINE
8
WALLS
10
16.875
20
19.2
30
0
11
16.875
21
19.5
31
0
0
LINE
8
WALLS
10
9.675
20
17.7
30
0
11
9.675
21
18.15
31
0
0
LINE
8
WALLS
10
9.675
20
19.05
30
0
11
9.675
21
19.5
31
0
0
LINE
8
WINDOWS
10
16.76
20
18
30
0
11
16.76
21
19.2
31
0
0
LINE
8
WINDOWS
10
16.84
20
18
30
0
11
16.84
21
19.2
31
0
0
LINE
8
DOORS
10
9.6
20
18.15
30
0
11
10.5
21
18.15
31
0
0
LINE
8
DOORS
10
10.5
20
18.15
30
0
11
10.4923
21
18.2675
31
0
0
LINE
8
DOORS
10
10.4923
20
18.2675
30
0
11
10.4693
21
18.3829
31
0
0
LINE
8
DOORS
10
10.4693
20
18.3829
30
0
11
10.4315
21
18.4944
31
0
0
LINE
8
DOORS
10
10.4315
20
18.4944
30
0
11
10.3794
21
18.6
31
0
0
LINE
8
DOORS
10
10.3794
20
18.6
30
0
11
10.314
21
18.6979
31
0
0
LINE
8
DOORS
10
10.314
20
18.6979
30
0
11
10.2364
21
18.7864
31
0
0
LINE
8
DOORS
10
10.2364
20
18.7864
30
0
11
10.1479
21
18.864
31
0
0
LINE
8
DOORS
10
10.1479
20
18.864
30
0
11
10.05
21
18.9294
31
0
0
LINE
8
DOORS
10
10.05
20
18.9294
30
0
11
9.9444
21
18.9815
31
0
0
LINE
8
DOORS
10
9.9444
20
18.9815
30
0
11
9.8329
21
19.0193
31
0
0
LINE
8
DOORS
10
9.8329
20
19.0193
30
0
11
9.7175
21
19.0423
31
0
0
LINE
8
DOORS
10
9.7175
20
19.0423
30
0
11
9.6
21
19.05
31
0
0
LINE
8
FURNITURE
10
9.85
20
18.65
30
0
11
10.4
21
18.65
31
0
0
LINE
8
FURNITURE
10
10.4
20
18.65
30
0
11
10.4
21
19.25
31
0
0
LINE
8
FURNITURE
10
10.4
20
19.25
30
0
11
9.85
21
19.25
31
0
0
LINE
8
FURNITURE
10
9.85
20
19.25
30
0
11
9.85
21
18.65
31
0
0
LINE
8
FURNITURE
10
15.75
20
18.5
30
0
11
16.55
21
18.5
31
0
0
LINE
8
FURNITURE
10
16.55
20
18.5
30
0
11
16.55
21
19.25
31
0
0
LINE
8
FURNITURE
10
16.55
20
19.25
30
0
11
15.75
21
19.25
31
0
0
LINE
8
FURNITURE
10
15.75
20
19.25
30
0
11
15.75
21
18.5
31
0
0
LINE
8
WALLS
10
9.6
20
22.725
30
0
11
16.8
21
22.725
31
0
0
LINE
8
WALLS
10
16.725
20
19.5
30
0
11
16.725
21
20.55
31
0
0
LINE
8
WALLS
10
16.725
20
21.75
30
0
11
16.725
21
22.8
31
0
0
LINE
8
WALLS
10
9.525
20
19.5
30
0
11
9.525
21
20.7
31
0
0
LINE
8
WALLS
10
9.525
20
21.6
30
0
11
9.525
21
22.8
31
0
0
LINE
8
WALLS
10
9.6
20
22.875
30
0
11
16.8
21
22.875
31
0
0
LINE
8
WALLS
10
16.875
20
19.5
30
0
11
16.875
21
20.55
31
0
0
LINE
8
WALLS
10
16.875
20
21.75
30
0
11
16.875
21
22.8
31
0
0
LINE
8
WALLS
10
9.675
20
19.5
30
0
11
9.675
21
20.7
31
0
0
LINE
8
WALLS
10
9.675
20
21.6
30
0
11
9.675
21
22.8
31
0
0
LINE
8
WINDOWS
10
16.76
20
20.55
30
0
11
16.76
21
21.75
31
0
0
LINE
8
WINDOWS
10
16.84
20
20.55
30
0
11
16.84
21
21.75
31
0
0
LINE
8
DOORS
10
9.6
20
20.7
30
0
11
10.5
21
20.7
31
0
0
LINE
8
DOORS
10
10.5
20
20.7
30
0
11
10.4923
21
20.8175
31
0
0
LINE
8
DOORS
10
10.4923
20
20.8175
30
0
11
10.4693
21
20.9329
31
0
0
LINE
8
DOORS
10
10.4693
20
20.9329
30
0
11
10.4315
21
21.0444
31
0
0
LINE
8
DOORS
10
10.4315
20
21.0444
30
0
11
10.3794
21
21.15
31
0
0
LINE
8
DOORS
10
10.3794
20
21.15
30
0
11
10.314
21
21.2479
31
0
0
LINE
8
DOORS
10
10.314
20
21.2479
30
0
11
10.2364
21
21.3364
31
0
0
LINE
8
DOORS
10
10.2364
20
21.3364
30
0
11
10.1479
21
21.414
31
0
0
LINE
8
DOORS
10
10.1479
20
21.414
30
0
11
10.05
21
21.4794
31
0
0
LINE
8
DOORS
10
10.05
20
21.4794
30
0
11
9.9444
21
21.5315
31
0
0
LINE
8
DOORS
10
9.9444
20
21.5315
30
0
11
9.8329
21
21.5693
31
0
0
LINE
8
DOORS
10
9.8329
20
21.5693
30
0
11
9.7175
21
21.5923
31
0
0
LINE
8
DOORS
10
9.7175
20
21.5923
30
0
11
9.6
21
21.6
31
0
0
LINE
8
WALLS
10
23.2
20
5.925
30
0
11
30.4
21
5.925
31
0
0
LINE
8
WALLS
10
23.2
20
10.925
30
0
11
30.4
21
10.925
31
0
0
LINE
8
WALLS
10
23.125
20
6
30
0
11
23.125
21
7.9
31
0
0
LINE
8
WALLS
10
23.125
20
9.1
30
0
11
23.125
21
11
31
0
0
LINE
8
WALLS
10
30.325
20
6
30
0
11
30.325
21
8.05
31
0
0
LINE
8
WALLS
10
30.325
20
8.95
30
0
11
30.325
21
11
31
0
0
LINE
8
WALLS
10
23.2
20
6.075
30
0
11
30.4
21
6.075
31
0
0
LINE
8
WALLS
10
23.2
20
11.075
30
0
11
30.4
21
11.075
31
0
0
LINE
8
WALLS
10
23.275
20
6
30
0
11
23.275
21
7.9
31
0
0
LINE
8
WALLS
10
23.275
20
9.1
30
0
11
23.275
21
11
31
0
0
LINE
8
WALLS
10
30.475
20
6
30
0
11
30.475
21
8.05
31
0
0
LINE
8
WALLS
10
30.475
20
8.95
30
0
11
30.475
21
11
31
0
0
LINE
8
WINDOWS
10
23.16
20
7.9
30
0
11
23.16
21
9.1
31
0
0
LINE
8
WINDOWS
10
23.24
20
7.9
30
0
11
23.24
21
9.1
31
0
0
LINE
8
DOORS
10
30.4
20
8.05
30
0
11
29.5
21
8.05
31
0
0
LINE
8
DOORS
10
29.5
20
8.05
30
0
11
29.5077
21
8.1675
31
0
0
LINE
8
DOORS
10
29.5077
20
8.1675
30
0
11
29.5307
21
8.2829
31
0
0
LINE
8
DOORS
10
29.5307
20
8.2829
30
0
11
29.5685
21
8.3944
31
0
0
LINE
8
DOORS
10
29.5685
20
8.3944
30
0
11
29.6206
21
8.5
31
0
0
LINE
8
DOORS
10
29.6206
20
8.5
30
0
11
29.686
21
8.5979
31
0
0
LINE
8
DOORS
10
29.686
20
8.5979
30
0
11
29.7636
21
8.6864
31
0
0
LINE
8
DOORS
10
29.7636
20
8.6864
30
0
11
29.8521
21
8.764
31
0
0
LINE
8
DOORS
10
29.8521
20
8.764
30
0
11
29.95
21
8.8294
31
0
0
LINE
8
DOORS
10
29.95
20
8.8294
30
0
11
30.0556
21
8.8815
31
0
0
LINE
8
DOORS
10
30.0556
20
8.8815
30
0
11
30.1671
21
8.9193
31
0
0
LINE
8
DOORS
10
30.1671
20
8.9193
30
0
11
30.2825
21
8.9423
31
0
0
LINE
8
DOORS
10
30.2825
20
8.9423
30
0
11
30.4
21
8.95
31
0
0
LINE
8
FURNITURE
10
23.55
20
9.85
30
0
11
25.45
21
9.85
31
0
0
LINE
8
FURNITURE
10
25.45
20
9.85
30
0
11
25.45
21
10.6
31
0
0
LINE
8
FURNITURE
10
25.45
20
10.6
30
0
11
23.55
21
10.6
31
0
0
LINE
8
FURNITURE
10
23.55
20
10.6
30
0
11
23.55
21
9.85
31
0
0
LINE
8
FURNITURE
10
23.9
20
9
30
0
11
25.1
21
9
31
0
0
LINE
8
FURNITURE
10
25.1
20
9
30
0
11
25.1
21
9.55
31
0
0
LINE
8
FURNITURE
10
25.1
20
9.55
30
0
11
23.9
21
9.55
31
0
0
LINE
8
FURNITURE
10
23.9
20
9.55
30
0
11
23.9
21
9
31
0
0
LINE
8
WALLS
10
23.2
20
15.425
30
0
11
30.4
21
15.425
31
0
0
LINE
8
WALLS
10
23.125
20
11
30
0
11
23.125
21
12.65
31
0
0
LINE
8
WALLS
10
23.125
20
13.85
30
0
11
23.125
21
15.5
31
0
0
LINE
8
WALLS
10
30.325
20
11
30
0
11
30.325
21
12.8
31
0
0
LINE
8
WALLS
10
30.325
20
13.7
30
0
11
30.325
21
15.5
31
0
0
LINE
8
WALLS
10
23.2
20
15.575
30
0
11
30.4
21
15.575
31
0
0
LINE
8
WALLS
10
23.275
20
11
30
0
11
23.275
21
12.65
31
0
0
LINE
8
WALLS
10
23.275
20
13.85
30
0
11
23.275
21
15.5
31
0
0
LINE
8
WALLS
10
30.475
20
11
30
0
11
30.475
21
12.8
31
0
0
LINE
8
WALLS
10
30.475
20
13.7
30
0
11
30.475
21
15.5
31
0
0
LINE
8
WINDOWS
10
23.16
20
12.65
30
0
11
23.16
21
13.85
31
0
0
LINE
8
WINDOWS
10
23.24
20
12.65
30
0
11
23.24
21
13.85
31
0
0
LINE
8
DOORS
10
30.4
20
12.8
30
0
11
29.5
21
12.8
31
0
0
LINE
8
DOORS
10
29.5
20
12.8
30
0
11
29.5077
21
12.9175
31
0
0
LINE
8
DOORS
10
29.5077
20
12.9175
30
0
11
29.5307
21
13.0329
31
0
0
LINE
8
DOORS
10
29.5307
20
13.0329
30
0
11
29.5685
21
13.1444
31
0
0
LINE
8
DOORS
10
29.5685
20
13.1444
30
0
11
29.6206
21
13.25
31
0
0
LINE
8
DOORS
10
29.6206
20
13.25
30
0
11
29.686
21
13.3479
31
0
0
LINE
8
DOORS
10
29.686
20
13.3479
30
0
11
29.7636
21
13.4364
31
0
0
LINE
8
DOORS
10
29.7636
20
13.4364
30
0
11
29.8521
21
13.514
31
0
0
LINE
8
DOORS
10
29.8521
20
13.514
30
0
11
29.95
21
13.5794
31
0
0
LINE
8
DOORS
10
29.95
20
13.5794
30
0
11
30.0556
21
13.6315
31
0
0
LINE
8
DOORS
10
30.0556
20
13.6315
30
0
11
30.1671
21
13.6693
31
0
0
LINE
8
DOORS
10
30.1671
20
13.6693
30
0
11
30.2825
21
13.6923
31
0
0
LINE
8
DOORS
10
30.2825
20
13.6923
30
0
11
30.4
21
13.7
31
0
0
LINE
8
FURNITURE
10
23.45
20
13.45
30
0
11
24.95
21
13.45
31
0
0
LINE
8
FURNITURE
10
24.95
20
13.45
30
0
11
24.95
21
15.25
31
0
0
LINE
8
FURNITURE
10
24.95
20
15.25
30
0
11
23.45
21
15.25
31
0
0
LINE
8
FURNITURE
10
23.45
20
15.25
30
0
11
23.45
21
13.45
31
0
0
LINE
8
FURNITURE
10
23.55
20
14.8
30
0
11
24.85
21
14.8
31
0
0
LINE
8
FURNITURE
10
24.85
20
14.8
30
0
11
24.85
21
15.15
31
0
0
LINE
8
FURNITURE
10
24.85
20
15.15
30
0
11
23.55
21
15.15
31
0
0
LINE
8
FURNITURE
10
23.55
20
15.15
30
0
11
23.55
21
14.8
31
0
0
LINE
8
WALLS
10
23.2
20
17.225
30
0
11
30.4
21
17.225
31
0
0
LINE
8
WALLS
10
23.125
20
15.5
30
0
11
23.125
21
15.8
31
0
0
LINE
8
WALLS
10
23.125
20
17
30
0
11
23.125
21
17.3
31
0
0
LINE
8
WALLS
10
30.325
20
15.5
30
0
11
30.325
21
15.95
31
0
0
LINE
8
WALLS
10
30.325
20
16.85
30
0
11
30.325
21
17.3
31
0
0
LINE
8
WALLS
10
23.2
20
17.375
30
0
11
30.4
21
17.375
31
0
0
LINE
8
WALLS
10
23.275
20
15.5
30
0
11
23.275
21
15.8
31
0
0
LINE
8
WALLS
10
23.275
20
17
30
0
11
23.275
21
17.3
31
0
0
LINE
8
WALLS
10
30.475
20
15.5
30
0
11
30.475
21
15.95
31
0
0
LINE
8
WALLS
10
30.475
20
16.85
30
0
11
30.475
21
17.3
31
0
0
LINE
8
WINDOWS
10
23.16
20
15.8
30
0
11
23.16
21
17
31
0
0
LINE
8
WINDOWS
10
23.24
20
15.8
30
0
11
23.24
21
17
31
0
0
LINE
8
DOORS
10
30.4
20
15.95
30
0
11
29.5
21
15.95
31
0
0
LINE
8
DOORS
10
29.5
20
15.95
30
0
11
29.5077
21
16.0675
31
0
0
LINE
8
DOORS
10
29.5077
20
16.0675
30
0
11
29.5307
21
16.1829
31
0
0
LINE
8
DOORS
10
29.5307
20
16.1829
30
0
11
29.5685
21
16.2944
31
0
0
LINE
8
DOORS
10
29.5685
20
16.2944
30
0
11
29.6206
21
16.4
31
0
0
LINE
8
DOORS
10
29.6206
20
16.4
30
0
11
29.686
21
16.4979
31
0
0
LINE
8
DOORS
10
29.686
20
16.4979
30
0
11
29.7636
21
16.5864
31
0
0
LINE
8
DOORS
10
29.7636
20
16.5864
30
0
11
29.8521
21
16.664
31
0
0
LINE
8
DOORS
10
29.8521
20
16.664
30
0
11
29.95
21
16.7294
31
0
0
LINE
8
DOORS
10
29.95
20
16.7294
30
0
11
30.0556
21
16.7815
31
0
0
LINE
8
DOORS
10
30.0556
20
16.7815
30
0
11
30.1671
21
16.8193
31
0
0
LINE
8
DOORS
10
30.1671
20
16.8193
30
0
11
30.2825
21
16.8423
31
0
0
LINE
8
DOORS
10
30.2825
20
16.8423
30
0
11
30.4
21
16.85
31
0
0
LINE
8
FURNITURE
10
23.45
20
16.45
30
0
11
24
21
16.45
31
0
0
LINE
8
FURNITURE
10
24
20
16.45
30
0
11
24
21
17.05
31
0
0
LINE
8
FURNITURE
10
24
20
17.05
30
0
11
23.45
21
17.05
31
0
0
LINE
8
FURNITURE
10
23.45
20
17.05
30
0
11
23.45
21
16.45
31
0
0
LINE
8
FURNITURE
10
29.35
20
16.3
30
0
11
30.15
21
16.3
31
0
0
LINE
8
FURNITURE
10
30.15
20
16.3
30
0
11
30.15
21
17.05
31
0
0
LINE
8
FURNITURE
10
30.15
20
17.05
30
0
11
29.35
21
17.05
31
0
0
LINE
8
FURNITURE
10
29.35
20
17.05
30
0
11
29.35
21
16.3
31
0
0
LINE
8
WALLS
10
23.2
20
22.725
30
0
11
30.4
21
22.725
31
0
0
LINE
8
WALLS
10
23.125
20
17.3
30
0
11
23.125
21
19.45
31
0
0
LINE
8
WALLS
10
23.125
20
20.65
30
0
11
23.125
21
22.8
31
0
0
LINE
8
WALLS
10
30.325
20
17.3
30
0
11
30.325
21
19.6
31
0
0
LINE
8
WALLS
10
30.325
20
20.5
30
0
11
30.325
21
22.8
31
0
0
LINE
8
WALLS
10
23.2
20
22.875
30
0
11
30.4
21
22.875
31
0
0
LINE
8
WALLS
10
23.275
20
17.3
30
0
11
23.275
21
19.45
31
0
0
LINE
8
WALLS
10
23.275
20
20.65
30
0
11
23.275
21
22.8
31
0
0
LINE
8
WALLS
10
30.475
20
17.3
30
0
11
30.475
21
19.6
31
0
0
LINE
8
WALLS
10
30.475
20
20.5
30
0
11
30.475
21
22.8
31
0
0
LINE
8
WINDOWS
10
23.16
20
19.45
30
0
11
23.16
21
20.65
31
0
0
LINE
8
WINDOWS
10
23.24
20
19.45
30
0
11
23.24
21
20.65
31
0
0
LINE
8
DOORS
10
30.4
20
19.6
30
0
11
29.5
21
19.6
31
0
0
LINE
8
DOORS
10
29.5
20
19.6
30
0
11
29.5077
21
19.7175
31
0
0
LINE
8
DOORS
10
29.5077
20
19.7175
30
0
11
29.5307
21
19.8329
31
0
0
LINE
8
DOORS
10
29.5307
20
19.8329
30
0
11
29.5685
21
19.9444
31
0
0
LINE
8
DOORS
10
29.5685
20
19.9444
30
0
11
29.6206
21
20.05
31
0
0
LINE
8
DOORS
10
29.6206
20
20.05
30
0
11
29.686
21
20.1479
31
0
0
LINE
8
DOORS
10
29.686
20
20.1479
30
0
11
29.7636
21
20.2364
31
0
0
LINE
8
DOORS
10
29.7636
20
20.2364
30
0
11
29.8521
21
20.314
31
0
0
LINE
8
DOORS
10
29.8521
20
20.314
30
0
11
29.95
21
20.3794
31
0
0
LINE
8
DOORS
10
29.95
20
20.3794
30
0
11
30.0556
21
20.4315
31
0
0
LINE
8
DOORS
10
30.0556
20
20.4315
30
0
11
30.1671
21
20.4693
31
0
0
LINE
8
DOORS
10
30.1671
20
20.4693
30
0
11
30.2825
21
20.4923
31
0
0
LINE
8
DOORS
10
30.2825
20
20.4923
30
0
11
30.4
21
20.5
31
0
0
LINE
8
WALLS
10
31.6
20
5.925
30
0
11
38.8
21
5.925
31
0
0
LINE
8
WALLS
10
31.6
20
9.125
30
0
11
38.8
21
9.125
31
0
0
LINE
8
WALLS
10
38.725
20
6
30
0
11
38.725
21
7
31
0
0
LINE
8
WALLS
10
38.725
20
8.2
30
0
11
38.725
21
9.2
31
0
0
LINE
8
WALLS
10
31.525
20
6
30
0
11
31.525
21
7.15
31
0
0
LINE
8
WALLS
10
31.525
20
8.05
30
0
11
31.525
21
9.2
31
0
0
LINE
8
WALLS
10
31.6
20
6.075
30
0
11
38.8
21
6.075
31
0
0
LINE
8
WALLS
10
31.6
20
9.275
30
0
11
38.8
21
9.275
31
0
0
LINE
8
WALLS
10
38.875
20
6
30
0
11
38.875
21
7
31
0
0
LINE
8
WALLS
10
38.875
20
8.2
30
0
11
38.875
21
9.2
31
0
0
LINE
8
WALLS
10
31.675
20
6
30
0
11
31.675
21
7.15
31
0
0
LINE
8
WALLS
10
31.675
20
8.05
30
0
11
31.675
21
9.2
31
0
0
LINE
8
WINDOWS
10
38.76
20
7
30
0
11
38.76
21
8.2
31
0
0
LINE
8
WINDOWS
10
38.84
20
7
30
0
11
38.84
21
8.2
31
0
0
LINE
8
DOORS
10
31.6
20
7.15
30
0
11
32.5
21
7.15
31
0
0
LINE
8
DOORS
10
32.5
20
7.15
30
0
11
32.4923
21
7.2675
31
0
0
LINE
8
DOORS
10
32.4923
20
7.2675
30
0
11
32.4693
21
7.3829
31
0
0
LINE
8
DOORS
10
32.4693
20
7.3829
30
0
11
32.4315
21
7.4944
31
0
0
LINE
8
DOORS
10
32.4315
20
7.4944
30
0
11
32.3794
21
7.6
31
0
0
LINE
8
DOORS
10
32.3794
20
7.6
30
0
11
32.314
21
7.6979
31
0
0
LINE
8
DOORS
10
32.314
20
7.6979
30
0
11
32.2364
21
7.7864
31
0
0
LINE
8
DOORS
10
32.2364
20
7.7864
30
0
11
32.1479
21
7.864
31
0
0
LINE
8
DOORS
10
32.1479
20
7.864
30
0
11
32.05
21
7.9294
31
0
0
LINE
8
DOORS
10
32.05
20
7.9294
30
0
11
31.9444
21
7.9815
31
0
0
LINE
8
DOORS
10
31.9444
20
7.9815
30
0
11
31.8329
21
8.0193
31
0
0
LINE
8
DOORS
10
31.8329
20
8.0193
30
0
11
31.7175
21
8.0423
31
0
0
LINE
8
DOORS
10
31.7175
20
8.0423
30
0
11
31.6
21
8.05
31
0
0
LINE
8
STAIRS
10
36.35
20
6.9
30
0
11
38.55
21
6.9
31
0
0
LINE
8
STAIRS
10
38.55
20
6.9
30
0
11
38.55
21
8.9
31
0
0
LINE
8
STAIRS
10
38.55
20
8.9
30
0
11
36.35
21
8.9
31
0
0
LINE
8
STAIRS
10
36.35
20
8.9
30
0
11
36.35
21
6.9
31
0
0
LINE
8
STAIRS
10
36.35
20
6.9
30
0
11
37.3
21
6.9
31
0
0
LINE
8
STAIRS
10
37.6
20
6.9
30
0
11
38.55
21
6.9
31
0
0
LINE
8
STAIRS
10
36.35
20
7.12
30
0
11
37.3
21
7.12
31
0
0
LINE
8
STAIRS
10
37.6
20
7.12
30
0
11
38.55
21
7.12
31
0
0
LINE
8
STAIRS
10
36.35
20
7.34
30
0
11
37.3
21
7.34
31
0
0
LINE
8
STAIRS
10
37.6
20
7.34
30
0
11
38.55
21
7.34
31
0
0
LINE
8
STAIRS
10
36.35
20
7.56
30
0
11
37.3
21
7.56
31
0
0
LINE
8
STAIRS
10
37.6
20
7.56
30
0
11
38.55
21
7.56
31
0
0
LINE
8
STAIRS
10
36.35
20
7.78
30
0
11
37.3
21
7.78
31
0
0
LINE
8
STAIRS
10
37.6
20
7.78
30
0
11
38.55
21
7.78
31
0
0
LINE
8
STAIRS
10
36.35
20
8
30
0
11
37.3
21
8
31
0
0
LINE
8
STAIRS
10
37.6
20
8
30
0
11
38.55
21
8
31
0
0
LINE
8
STAIRS
10
36.35
20
8.22
30
0
11
37.3
21
8.22
31
0
0
LINE
8
STAIRS
10
37.6
20
8.22
30
0
11
38.55
21
8.22
31
0
0
LINE
8
STAIRS
10
36.35
20
8.44
30
0
11
37.3
21
8.44
31
0
0
LINE
8
STAIRS
10
37.6
20
8.44
30
0
11
38.55
21
8.44
31
0
0
LINE
8
WALLS
10
31.6
20
13.625
30
0
11
38.8
21
13.625
31
0
0
LINE
8
WALLS
10
38.725
20
9.2
30
0
11
38.725
21
10.85
31
0
0
LINE
8
WALLS
10
38.725
20
12.05
30
0
11
38.725
21
13.7
31
0
0
LINE
8
WALLS
10
31.525
20
9.2
30
0
11
31.525
21
11
31
0
0
LINE
8
WALLS
10
31.525
20
11.9
30
0
11
31.525
21
13.7
31
0
0
LINE
8
WALLS
10
31.6
20
13.775
30
0
11
38.8
21
13.775
31
0
0
LINE
8
WALLS
10
38.875
20
9.2
30
0
11
38.875
21
10.85
31
0
0
LINE
8
WALLS
10
38.875
20
12.05
30
0
11
38.875
21
13.7
31
0
0
LINE
8
WALLS
10
31.675
20
9.2
30
0
11
31.675
21
11
31
0
0
LINE
8
WALLS
10
31.675
20
11.9
30
0
11
31.675
21
13.7
31
0
0
LINE
8
WINDOWS
10
38.76
20
10.85
30
0
11
38.76
21
12.05
31
0
0
LINE
8
WINDOWS
10
38.84
20
10.85
30
0
11
38.84
21
12.05
31
0
0
LINE
8
DOORS
10
31.6
20
11
30
0
11
32.5
21
11
31
0
0
LINE
8
DOORS
10
32.5
20
11
30
0
11
32.4923
21
11.1175
31
0
0
LINE
8
DOORS
10
32.4923
20
11.1175
30
0
11
32.4693
21
11.2329
31
0
0
LINE
8
DOORS
10
32.4693
20
11.2329
30
0
11
32.4315
21
11.3444
31
0
0
LINE
8
DOORS
10
32.4315
20
11.3444
30
0
11
32.3794
21
11.45
31
0
0
LINE
8
DOORS
10
32.3794
20
11.45
30
0
11
32.314
21
11.5479
31
0
0
LINE
8
DOORS
10
32.314
20
11.5479
30
0
11
32.2364
21
11.6364
31
0
0
LINE
8
DOORS
10
32.2364
20
11.6364
30
0
11
32.1479
21
11.714
31
0
0
LINE
8
DOORS
10
32.1479
20
11.714
30
0
11
32.05
21
11.7794
31
0
0
LINE
8
DOORS
10
32.05
20
11.7794
30
0
11
31.9444
21
11.8315
31
0
0
LINE
8
DOORS
10
31.9444
20
11.8315
30
0
11
31.8329
21
11.8693
31
0
0
LINE
8
DOORS
10
31.8329
20
11.8693
30
0
11
31.7175
21
11.8923
31
0
0
LINE
8
DOORS
10
31.7175
20
11.8923
30
0
11
31.6
21
11.9
31
0
0
LINE
8
FURNITURE
10
37.05
20
11.65
30
0
11
38.55
21
11.65
31
0
0
LINE
8
FURNITURE
10
38.55
20
11.65
30
0
11
38.55
21
13.45
31
0
0
LINE
8
FURNITURE
10
38.55
20
13.45
30
0
11
37.05
21
13.45
31
0
0
LINE
8
FURNITURE
10
37.05
20
13.45
30
0
11
37.05
21
11.65
31
0
0
LINE
8
FURNITURE
10
37.15
20
13
30
0
11
38.45
21
13
31
0
0
LINE
8
FURNITURE
10
38.45
20
13
30
0
11
38.45
21
13.35
31
0
0
LINE
8
FURNITURE
10
38.45
20
13.35
30
0
11
37.15
21
13.35
31
0
0
LINE
8
FURNITURE
10
37.15
20
13.35
30
0
11
37.15
21
13
31
0
0
LINE
8
WALLS
10
31.6
20
22.725
30
0
11
38.8
21
22.725
31
0
0
LINE
8
WALLS
10
38.725
20
13.7
30
0
11
38.725
21
17.65
31
0
0
LINE
8
WALLS
10
38.725
20
18.85
30
0
11
38.725
21
22.8
31
0
0
LINE
8
WALLS
10
31.525
20
13.7
30
0
11
31.525
21
17.8
31
0
0
LINE
8
WALLS
10
31.525
20
18.7
30
0
11
31.525
21
22.8
31
0
0
LINE
8
WALLS
10
31.6
20
22.875
30
0
11
38.8
21
22.875
31
0
0
LINE
8
WALLS
10
38.875
20
13.7
30
0
11
38.875
21
17.65
31
0
0
LINE
8
WALLS
10
38.875
20
18.85
30
0
11
38.875
21
22.8
31
0
0
LINE
8
WALLS
10
31.675
20
13.7
30
0
11
31.675
21
17.8
31
0
0
LINE
8
WALLS
10
31.675
20
18.7
30
0
11
31.675
21
22.8
31
0
0
LINE
8
WINDOWS
10
38.76
20
17.65
30
0
11
38.76
21
18.85
31
0
0
LINE
8
WINDOWS
10
38.84
20
17.65
30
0
11
38.84
21
18.85
31
0
0
LINE
8
DOORS
10
31.6
20
17.8
30
0
11
32.5
21
17.8
31
0
0
LINE
8
DOORS
10
32.5
20
17.8
30
0
11
32.4923
21
17.9175
31
0
0
LINE
8
DOORS
10
32.4923
20
17.9175
30
0
11
32.4693
21
18.0329
31
0
0
LINE
8
DOORS
10
32.4693
20
18.0329
30
0
11
32.4315
21
18.1444
31
0
0
LINE
8
DOORS
10
32.4315
20
18.1444
30
0
11
32.3794
21
18.25
31
0
0
LINE
8
DOORS
10
32.3794
20
18.25
30
0
11
32.314
21
18.3479
31
0
0
LINE
8
DOORS
10
32.314
20
18.3479
30
0
11
32.2364
21
18.4364
31
0
0
LINE
8
DOORS
10
32.2364
20
18.4364
30
0
11
32.1479
21
18.514
31
0
0
LINE
8
DOORS
10
32.1479
20
18.514
30
0
11
32.05
21
18.5794
31
0
0
LINE
8
DOORS
10
32.05
20
18.5794
30
0
11
31.9444
21
18.6315
31
0
0
LINE
8
DOORS
10
31.9444
20
18.6315
30
0
11
31.8329
21
18.6693
31
0
0
LINE
8
DOORS
10
31.8329
20
18.6693
30
0
11
31.7175
21
18.6923
31
0
0
LINE
8
DOORS
10
31.7175
20
18.6923
30
0
11
31.6
21
18.7
31
0
0
LINE
8
FRAME
10
-0.7
20
-0.4
30
0
11
43.3
21
-0.4
31
0
0
LINE
8
FRAME
10
43.3
20
-0.4
30
0
11
43.3
21
26.6
31
0
0
LINE
8
FRAME
10
43.3
20
26.6
30
0
11
-0.7
21
26.6
31
0
0
LINE
8
FRAME
10
-0.7
20
26.6
30
0
11
-0.7
21
-0.4
31
0
0
TEXT
8
LABELS
10
0.4
20
25.8
30
0
40
0.3
1
GROUND FLOOR
50
0
7
STANDARD
0
TEXT
8
LABELS
10
0.4
20
0.65
30
0
40
0.18
1
CONCEPT ONLY - UNITS: M - REVIEW REQUIRED
50
0
7
STANDARD
0
TEXT
8
LABELS
10
0.4
20
1.2
30
0
40
0.18
1
FRONT / SOUTH - 6 m assumed front zone
50
0
7
STANDARD
0
TEXT
8
LABELS
10
8.5
20
6.2
30
0
40
0.1
1
ENTRY E01
50
0
7
STANDARD
0
TEXT
8
LABELS
10
8.5
20
24.85
30
0
40
0.2
1
18.00 m
50
0
7
STANDARD
0
TEXT
8
LABELS
10
18.7
20
12
30
0
40
0.18
1
24.00 m
50
0
7
STANDARD
0
TEXT
8
LABELS
10
14.4
20
5.6
30
0
40
0.18
1
PARKING
50
0
7
STANDARD
0
TEXT
8
LABELS
10
22.4
20
25.8
30
0
40
0.3
1
LEVEL 1
50
0
7
STANDARD
0
TEXT
8
LABELS
10
22.4
20
0.65
30
0
40
0.18
1
CONCEPT ONLY - UNITS: M - REVIEW REQUIRED
50
0
7
STANDARD
0
TEXT
8
LABELS
10
22.4
20
1.2
30
0
40
0.18
1
FRONT / SOUTH - 6 m assumed front zone
50
0
7
STANDARD
0
TEXT
8
LABELS
10
30.5
20
6.2
30
0
40
0.1
1
CORRIDOR
50
0
7
STANDARD
0
TEXT
8
LABELS
10
30.5
20
24.85
30
0
40
0.2
1
18.00 m
50
0
7
STANDARD
0
TEXT
8
LABELS
10
40.7
20
12
30
0
40
0.18
1
24.00 m
50
0
7
STANDARD
0
TEXT
8
LABELS
10
7.7
20
8.5575
30
0
40
0.12
1
D01
50
0
7
STANDARD
0
TEXT
8
LABELS
10
1.45
20
6.45
30
0
40
0.18
1
Living
50
0
7
STANDARD
0
TEXT
8
LABELS
10
1.45
20
6.18
30
0
40
0.13
1
7.05 x 3.83 m
50
0
7
STANDARD
0
TEXT
8
LABELS
10
7.7
20
12.3325
30
0
40
0.12
1
D02
50
0
7
STANDARD
0
TEXT
8
LABELS
10
1.45
20
10.425
30
0
40
0.18
1
Kitchen
50
0
7
STANDARD
0
TEXT
8
LABELS
10
1.45
20
10.155
30
0
40
0.13
1
7.05 x 3.43 m
50
0
7
STANDARD
0
TEXT
8
LABELS
10
7.7
20
16.0575
30
0
40
0.12
1
D03
50
0
7
STANDARD
0
TEXT
8
LABELS
10
1.45
20
14
30
0
40
0.18
1
Bedroom 1
50
0
7
STANDARD
0
TEXT
8
LABELS
10
1.45
20
13.73
30
0
40
0.13
1
7.05 x 3.73 m
50
0
7
STANDARD
0
TEXT
8
LABELS
10
7.7
20
18.895
30
0
40
0.12
1
D04
50
0
7
STANDARD
0
TEXT
8
LABELS
10
1.45
20
17.875
30
0
40
0.18
1
Bathroom 1
50
0
7
STANDARD
0
TEXT
8
LABELS
10
1.45
20
17.605
30
0
40
0.13
1
7.05 x 1.65 m
50
0
7
STANDARD
0
TEXT
8
LABELS
10
7.7
20
21.5825
30
0
40
0.12
1
D05
50
0
7
STANDARD
0
TEXT
8
LABELS
10
1.45
20
19.675
30
0
40
0.18
1
Office
50
0
7
STANDARD
0
TEXT
8
LABELS
10
1.45
20
19.405
30
0
40
0.13
1
7.05 x 3.43 m
50
0
7
STANDARD
0
TEXT
8
LABELS
10
9.8
20
8.17
30
0
40
0.12
1
D06
50
0
7
STANDARD
0
TEXT
8
LABELS
10
15.848
20
6.45
30
0
40
0.18
1
Stairs
50
0
7
STANDARD
0
TEXT
8
LABELS
10
15.4515
20
6.18
30
0
40
0.13
1
7.05 x 3.05 m
50
0
7
STANDARD
0
TEXT
8
LABELS
10
9.8
20
11.77
30
0
40
0.12
1
D07
50
0
7
STANDARD
0
TEXT
8
LABELS
10
15.848
20
9.65
30
0
40
0.18
1
Dining
50
0
7
STANDARD
0
TEXT
8
LABELS
10
15.4515
20
9.38
30
0
40
0.13
1
7.05 x 3.85 m
50
0
7
STANDARD
0
TEXT
8
LABELS
10
9.8
20
16.02
30
0
40
0.12
1
D08
50
0
7
STANDARD
0
TEXT
8
LABELS
10
15.497
20
13.65
30
0
40
0.18
1
Bedroom 2
50
0
7
STANDARD
0
TEXT
8
LABELS
10
15.4515
20
13.38
30
0
40
0.13
1
7.05 x 4.35 m
50
0
7
STANDARD
0
TEXT
8
LABELS
10
9.8
20
19.17
30
0
40
0.12
1
D09
50
0
7
STANDARD
0
TEXT
8
LABELS
10
15.38
20
18.15
30
0
40
0.18
1
Bathroom 2
50
0
7
STANDARD
0
TEXT
8
LABELS
10
15.4515
20
17.88
30
0
40
0.13
1
7.05 x 1.65 m
50
0
7
STANDARD
0
TEXT
8
LABELS
10
9.8
20
21.72
30
0
40
0.12
1
D10
50
0
7
STANDARD
0
TEXT
8
LABELS
10
14.912
20
19.95
30
0
40
0.18
1
Flexible space
50
0
7
STANDARD
0
TEXT
8
LABELS
10
15.4515
20
19.68
30
0
40
0.13
1
7.05 x 3.15 m
50
0
7
STANDARD
0
TEXT
8
LABELS
10
29.7
20
9.07
30
0
40
0.12
1
D11
50
0
7
STANDARD
0
TEXT
8
LABELS
10
23.45
20
6.45
30
0
40
0.18
1
Lounge
50
0
7
STANDARD
0
TEXT
8
LABELS
10
23.45
20
6.18
30
0
40
0.13
1
7.05 x 4.85 m
50
0
7
STANDARD
0
TEXT
8
LABELS
10
29.7
20
13.82
30
0
40
0.12
1
D12
50
0
7
STANDARD
0
TEXT
8
LABELS
10
23.45
20
11.45
30
0
40
0.18
1
Bedroom 3
50
0
7
STANDARD
0
TEXT
8
LABELS
10
23.45
20
11.18
30
0
40
0.13
1
7.05 x 4.35 m
50
0
7
STANDARD
0
TEXT
8
LABELS
10
29.7
20
16.97
30
0
40
0.12
1
D13
50
0
7
STANDARD
0
TEXT
8
LABELS
10
23.45
20
15.95
30
0
40
0.18
1
Bathroom 3
50
0
7
STANDARD
0
TEXT
8
LABELS
10
23.45
20
15.68
30
0
40
0.13
1
7.05 x 1.65 m
50
0
7
STANDARD
0
TEXT
8
LABELS
10
29.7
20
20.62
30
0
40
0.12
1
D14
50
0
7
STANDARD
0
TEXT
8
LABELS
10
23.45
20
17.75
30
0
40
0.18
1
Flexible space
50
0
7
STANDARD
0
TEXT
8
LABELS
10
23.45
20
17.48
30
0
40
0.13
1
7.05 x 5.35 m
50
0
7
STANDARD
0
TEXT
8
LABELS
10
31.8
20
8.17
30
0
40
0.12
1
D15
50
0
7
STANDARD
0
TEXT
8
LABELS
10
37.848
20
6.45
30
0
40
0.18
1
Stairs
50
0
7
STANDARD
0
TEXT
8
LABELS
10
37.4515
20
6.18
30
0
40
0.13
1
7.05 x 3.05 m
50
0
7
STANDARD
0
TEXT
8
LABELS
10
31.8
20
12.02
30
0
40
0.12
1
D16
50
0
7
STANDARD
0
TEXT
8
LABELS
10
37.497
20
9.65
30
0
40
0.18
1
Bedroom 4
50
0
7
STANDARD
0
TEXT
8
LABELS
10
37.4515
20
9.38
30
0
40
0.13
1
7.05 x 4.35 m
50
0
7
STANDARD
0
TEXT
8
LABELS
10
31.8
20
18.82
30
0
40
0.12
1
D17
50
0
7
STANDARD
0
TEXT
8
LABELS
10
36.912
20
14.15
30
0
40
0.18
1
Flexible space
50
0
7
STANDARD
0
TEXT
8
LABELS
10
37.4515
20
13.88
30
0
40
0.13
1
7.05 x 8.95 m
50
0
7
STANDARD
0
ENDSEC
0
EOF
