0
SECTION
2
HEADER
9
$ACADVER
1
AC1015
9
$MEASUREMENT
70
1
9
$INSUNITS
70
4
0
ENDSEC
0
SECTION
2
TABLES
0
TABLE
2
LAYER
5
10
100
AcDbSymbolTable
70
12
0
LAYER
5
11
100
AcDbSymbolTableRecord
100
AcDbLayerTableRecord
2
0
70
0
62
7
6
CONTINUOUS
0
LAYER
5
12
100
AcDbSymbolTableRecord
100
AcDbLayerTableRecord
2
PLOT
70
0
62
8
6
CONTINUOUS
0
LAYER
5
13
100
AcDbSymbolTableRecord
100
AcDbLayerTableRecord
2
WALLS
70
0
62
7
6
CONTINUOUS
0
LAYER
5
14
100
AcDbSymbolTableRecord
100
AcDbLayerTableRecord
2
DOORS
70
0
62
3
6
CONTINUOUS
0
LAYER
5
15
100
AcDbSymbolTableRecord
100
AcDbLayerTableRecord
2
WINDOWS
70
0
62
4
6
CONTINUOUS
0
LAYER
5
16
100
AcDbSymbolTableRecord
100
AcDbLayerTableRecord
2
LABELS
70
0
62
7
6
CONTINUOUS
0
LAYER
5
17
100
AcDbSymbolTableRecord
100
AcDbLayerTableRecord
2
DIMENSIONS
70
0
62
2
6
CONTINUOUS
0
LAYER
5
18
100
AcDbSymbolTableRecord
100
AcDbLayerTableRecord
2
FURNITURE
70
0
62
8
6
CONTINUOUS
0
LAYER
5
19
100
AcDbSymbolTableRecord
100
AcDbLayerTableRecord
2
STAIRS
70
0
62
6
6
CONTINUOUS
0
LAYER
5
1A
100
AcDbSymbolTableRecord
100
AcDbLayerTableRecord
2
SITE
70
0
62
3
6
CONTINUOUS
0
LAYER
5
1B
100
AcDbSymbolTableRecord
100
AcDbLayerTableRecord
2
SCHEDULE
70
0
62
7
6
CONTINUOUS
0
LAYER
5
1C
100
AcDbSymbolTableRecord
100
AcDbLayerTableRecord
2
FRAME
70
0
62
8
6
CONTINUOUS
0
ENDTAB
0
ENDSEC
0
SECTION
2
BLOCKS
0
ENDSEC
0
SECTION
2
ENTITIES
0
LINE
5
1D
100
AcDbEntity
8
PLOT
100
AcDbLine
10
0
20
0
30
0
11
18000
21
0
31
0
0
LINE
5
1E
100
AcDbEntity
8
PLOT
100
AcDbLine
10
18000
20
0
30
0
11
18000
21
24000
31
0
0
LINE
5
1F
100
AcDbEntity
8
PLOT
100
AcDbLine
10
18000
20
24000
30
0
11
0
21
24000
31
0
0
LINE
5
20
100
AcDbEntity
8
PLOT
100
AcDbLine
10
0
20
24000
30
0
11
0
21
0
31
0
0
LINE
5
21
100
AcDbEntity
8
WALLS
100
AcDbLine
10
7200
20
22800
30
0
11
8400
21
22800
31
0
0
LINE
5
22
100
AcDbEntity
8
WALLS
100
AcDbLine
10
7200
20
6000
30
0
11
7350
21
6000
31
0
0
LINE
5
23
100
AcDbEntity
8
WALLS
100
AcDbLine
10
8250
20
6000
30
0
11
8400
21
6000
31
0
0
LINE
5
24
100
AcDbEntity
8
DOORS
100
AcDbLine
10
7350
20
6000
30
0
11
7350
21
6900
31
0
0
LINE
5
25
100
AcDbEntity
8
DIMENSIONS
100
AcDbLine
10
0
20
24650
30
0
11
18000
21
24650
31
0
0
LINE
5
26
100
AcDbEntity
8
DIMENSIONS
100
AcDbLine
10
18550
20
0
30
0
11
18550
21
24000
31
0
0
LINE
5
27
100
AcDbEntity
8
SITE
100
AcDbLine
10
14200
20
400
30
0
11
16700
21
400
31
0
0
LINE
5
28
100
AcDbEntity
8
SITE
100
AcDbLine
10
16700
20
400
30
0
11
16700
21
5400
31
0
0
LINE
5
29
100
AcDbEntity
8
SITE
100
AcDbLine
10
16700
20
5400
30
0
11
14200
21
5400
31
0
0
LINE
5
2A
100
AcDbEntity
8
SITE
100
AcDbLine
10
14200
20
5400
30
0
11
14200
21
400
31
0
0
LINE
5
2B
100
AcDbEntity
8
FURNITURE
100
AcDbLine
10
14450
20
900
30
0
11
16450
21
900
31
0
0
LINE
5
2C
100
AcDbEntity
8
FURNITURE
100
AcDbLine
10
16450
20
900
30
0
11
16450
21
4900
31
0
0
LINE
5
2D
100
AcDbEntity
8
FURNITURE
100
AcDbLine
10
16450
20
4900
30
0
11
14450
21
4900
31
0
0
LINE
5
2E
100
AcDbEntity
8
FURNITURE
100
AcDbLine
10
14450
20
4900
30
0
11
14450
21
900
31
0
0
LINE
5
2F
100
AcDbEntity
8
PLOT
100
AcDbLine
10
22000
20
0
30
0
11
40000
21
0
31
0
0
LINE
5
30
100
AcDbEntity
8
PLOT
100
AcDbLine
10
40000
20
0
30
0
11
40000
21
24000
31
0
0
LINE
5
31
100
AcDbEntity
8
PLOT
100
AcDbLine
10
40000
20
24000
30
0
11
22000
21
24000
31
0
0
LINE
5
32
100
AcDbEntity
8
PLOT
100
AcDbLine
10
22000
20
24000
30
0
11
22000
21
0
31
0
0
LINE
5
33
100
AcDbEntity
8
WALLS
100
AcDbLine
10
29200
20
22800
30
0
11
30400
21
22800
31
0
0
LINE
5
34
100
AcDbEntity
8
WALLS
100
AcDbLine
10
29200
20
6000
30
0
11
30400
21
6000
31
0
0
LINE
5
35
100
AcDbEntity
8
DIMENSIONS
100
AcDbLine
10
22000
20
24650
30
0
11
40000
21
24650
31
0
0
LINE
5
36
100
AcDbEntity
8
DIMENSIONS
100
AcDbLine
10
40550
20
0
30
0
11
40550
21
24000
31
0
0
LINE
5
37
100
AcDbEntity
8
WALLS
100
AcDbLine
10
8400
20
19125
30
0
11
16800
21
19125
31
0
0
LINE
5
38
100
AcDbEntity
8
WALLS
100
AcDbLine
10
8400
20
22725
30
0
11
16800
21
22725
31
0
0
LINE
5
39
100
AcDbEntity
8
WALLS
100
AcDbLine
10
16725
20
19200
30
0
11
16725
21
20400
31
0
0
LINE
5
3A
100
AcDbEntity
8
WALLS
100
AcDbLine
10
16725
20
21600
30
0
11
16725
21
22800
31
0
0
LINE
5
3B
100
AcDbEntity
8
WALLS
100
AcDbLine
10
8325
20
19200
30
0
11
8325
21
20550
31
0
0
LINE
5
3C
100
AcDbEntity
8
WALLS
100
AcDbLine
10
8325
20
21450
30
0
11
8325
21
22800
31
0
0
LINE
5
3D
100
AcDbEntity
8
WALLS
100
AcDbLine
10
8400
20
19275
30
0
11
16800
21
19275
31
0
0
LINE
5
3E
100
AcDbEntity
8
WALLS
100
AcDbLine
10
8400
20
22875
30
0
11
16800
21
22875
31
0
0
LINE
5
3F
100
AcDbEntity
8
WALLS
100
AcDbLine
10
16875
20
19200
30
0
11
16875
21
20400
31
0
0
LINE
5
40
100
AcDbEntity
8
WALLS
100
AcDbLine
10
16875
20
21600
30
0
11
16875
21
22800
31
0
0
LINE
5
41
100
AcDbEntity
8
WALLS
100
AcDbLine
10
8475
20
19200
30
0
11
8475
21
20550
31
0
0
LINE
5
42
100
AcDbEntity
8
WALLS
100
AcDbLine
10
8475
20
21450
30
0
11
8475
21
22800
31
0
0
LINE
5
43
100
AcDbEntity
8
WINDOWS
100
AcDbLine
10
16760
20
20400
30
0
11
16760
21
21600
31
0
0
LINE
5
44
100
AcDbEntity
8
WINDOWS
100
AcDbLine
10
16840
20
20400
30
0
11
16840
21
21600
31
0
0
LINE
5
45
100
AcDbEntity
8
DOORS
100
AcDbLine
10
8400
20
20550
30
0
11
9300
21
20550
31
0
0
LINE
5
46
100
AcDbEntity
8
DOORS
100
AcDbLine
10
9300
20
20550
30
0
11
9292.3
21
20667.5
31
0
0
LINE
5
47
100
AcDbEntity
8
DOORS
100
AcDbLine
10
9292.3
20
20667.5
30
0
11
9269.3
21
20782.9
31
0
0
LINE
5
48
100
AcDbEntity
8
DOORS
100
AcDbLine
10
9269.3
20
20782.9
30
0
11
9231.5
21
20894.4
31
0
0
LINE
5
49
100
AcDbEntity
8
DOORS
100
AcDbLine
10
9231.5
20
20894.4
30
0
11
9179.4
21
21000
31
0
0
LINE
5
4A
100
AcDbEntity
8
DOORS
100
AcDbLine
10
9179.4
20
21000
30
0
11
9114
21
21097.9
31
0
0
LINE
5
4B
100
AcDbEntity
8
DOORS
100
AcDbLine
10
9114
20
21097.9
30
0
11
9036.4
21
21186.4
31
0
0
LINE
5
4C
100
AcDbEntity
8
DOORS
100
AcDbLine
10
9036.4
20
21186.4
30
0
11
8947.9
21
21264
31
0
0
LINE
5
4D
100
AcDbEntity
8
DOORS
100
AcDbLine
10
8947.9
20
21264
30
0
11
8850
21
21329.4
31
0
0
LINE
5
4E
100
AcDbEntity
8
DOORS
100
AcDbLine
10
8850
20
21329.4
30
0
11
8744.4
21
21381.5
31
0
0
LINE
5
4F
100
AcDbEntity
8
DOORS
100
AcDbLine
10
8744.4
20
21381.5
30
0
11
8632.9
21
21419.3
31
0
0
LINE
5
50
100
AcDbEntity
8
DOORS
100
AcDbLine
10
8632.9
20
21419.3
30
0
11
8517.5
21
21442.3
31
0
0
LINE
5
51
100
AcDbEntity
8
DOORS
100
AcDbLine
10
8517.5
20
21442.3
30
0
11
8400
21
21450
31
0
0
LINE
5
52
100
AcDbEntity
8
FURNITURE
100
AcDbLine
10
14550
20
21650
30
0
11
16450
21
21650
31
0
0
LINE
5
53
100
AcDbEntity
8
FURNITURE
100
AcDbLine
10
16450
20
21650
30
0
11
16450
21
22400
31
0
0
LINE
5
54
100
AcDbEntity
8
FURNITURE
100
AcDbLine
10
16450
20
22400
30
0
11
14550
21
22400
31
0
0
LINE
5
55
100
AcDbEntity
8
FURNITURE
100
AcDbLine
10
14550
20
22400
30
0
11
14550
21
21650
31
0
0
LINE
5
56
100
AcDbEntity
8
FURNITURE
100
AcDbLine
10
14900
20
20800
30
0
11
16100
21
20800
31
0
0
LINE
5
57
100
AcDbEntity
8
FURNITURE
100
AcDbLine
10
16100
20
20800
30
0
11
16100
21
21350
31
0
0
LINE
5
58
100
AcDbEntity
8
FURNITURE
100
AcDbLine
10
16100
20
21350
30
0
11
14900
21
21350
31
0
0
LINE
5
59
100
AcDbEntity
8
FURNITURE
100
AcDbLine
10
14900
20
21350
30
0
11
14900
21
20800
31
0
0
LINE
5
5A
100
AcDbEntity
8
WALLS
100
AcDbLine
10
8400
20
12525
30
0
11
16800
21
12525
31
0
0
LINE
5
5B
100
AcDbEntity
8
WALLS
100
AcDbLine
10
8400
20
16125
30
0
11
16800
21
16125
31
0
0
LINE
5
5C
100
AcDbEntity
8
WALLS
100
AcDbLine
10
16725
20
12600
30
0
11
16725
21
13800
31
0
0
LINE
5
5D
100
AcDbEntity
8
WALLS
100
AcDbLine
10
16725
20
15000
30
0
11
16725
21
16200
31
0
0
LINE
5
5E
100
AcDbEntity
8
WALLS
100
AcDbLine
10
8325
20
12600
30
0
11
8325
21
13950
31
0
0
LINE
5
5F
100
AcDbEntity
8
WALLS
100
AcDbLine
10
8325
20
14850
30
0
11
8325
21
16200
31
0
0
LINE
5
60
100
AcDbEntity
8
WALLS
100
AcDbLine
10
8400
20
12675
30
0
11
16800
21
12675
31
0
0
LINE
5
61
100
AcDbEntity
8
WALLS
100
AcDbLine
10
8400
20
16275
30
0
11
16800
21
16275
31
0
0
LINE
5
62
100
AcDbEntity
8
WALLS
100
AcDbLine
10
16875
20
12600
30
0
11
16875
21
13800
31
0
0
LINE
5
63
100
AcDbEntity
8
WALLS
100
AcDbLine
10
16875
20
15000
30
0
11
16875
21
16200
31
0
0
LINE
5
64
100
AcDbEntity
8
WALLS
100
AcDbLine
10
8475
20
12600
30
0
11
8475
21
13950
31
0
0
LINE
5
65
100
AcDbEntity
8
WALLS
100
AcDbLine
10
8475
20
14850
30
0
11
8475
21
16200
31
0
0
LINE
5
66
100
AcDbEntity
8
WINDOWS
100
AcDbLine
10
16760
20
13800
30
0
11
16760
21
15000
31
0
0
LINE
5
67
100
AcDbEntity
8
WINDOWS
100
AcDbLine
10
16840
20
13800
30
0
11
16840
21
15000
31
0
0
LINE
5
68
100
AcDbEntity
8
DOORS
100
AcDbLine
10
8400
20
13950
30
0
11
9300
21
13950
31
0
0
LINE
5
69
100
AcDbEntity
8
DOORS
100
AcDbLine
10
9300
20
13950
30
0
11
9292.3
21
14067.5
31
0
0
LINE
5
6A
100
AcDbEntity
8
DOORS
100
AcDbLine
10
9292.3
20
14067.5
30
0
11
9269.3
21
14182.9
31
0
0
LINE
5
6B
100
AcDbEntity
8
DOORS
100
AcDbLine
10
9269.3
20
14182.9
30
0
11
9231.5
21
14294.4
31
0
0
LINE
5
6C
100
AcDbEntity
8
DOORS
100
AcDbLine
10
9231.5
20
14294.4
30
0
11
9179.4
21
14400
31
0
0
LINE
5
6D
100
AcDbEntity
8
DOORS
100
AcDbLine
10
9179.4
20
14400
30
0
11
9114
21
14497.9
31
0
0
LINE
5
6E
100
AcDbEntity
8
DOORS
100
AcDbLine
10
9114
20
14497.9
30
0
11
9036.4
21
14586.4
31
0
0
LINE
5
6F
100
AcDbEntity
8
DOORS
100
AcDbLine
10
9036.4
20
14586.4
30
0
11
8947.9
21
14664
31
0
0
LINE
5
70
100
AcDbEntity
8
DOORS
100
AcDbLine
10
8947.9
20
14664
30
0
11
8850
21
14729.4
31
0
0
LINE
5
71
100
AcDbEntity
8
DOORS
100
AcDbLine
10
8850
20
14729.4
30
0
11
8744.4
21
14781.5
31
0
0
LINE
5
72
100
AcDbEntity
8
DOORS
100
AcDbLine
10
8744.4
20
14781.5
30
0
11
8632.9
21
14819.3
31
0
0
LINE
5
73
100
AcDbEntity
8
DOORS
100
AcDbLine
10
8632.9
20
14819.3
30
0
11
8517.5
21
14842.3
31
0
0
LINE
5
74
100
AcDbEntity
8
DOORS
100
AcDbLine
10
8517.5
20
14842.3
30
0
11
8400
21
14850
31
0
0
LINE
5
75
100
AcDbEntity
8
FURNITURE
100
AcDbLine
10
15950
20
13600
30
0
11
16550
21
13600
31
0
0
LINE
5
76
100
AcDbEntity
8
FURNITURE
100
AcDbLine
10
16550
20
13600
30
0
11
16550
21
15900
31
0
0
LINE
5
77
100
AcDbEntity
8
FURNITURE
100
AcDbLine
10
16550
20
15900
30
0
11
15950
21
15900
31
0
0
LINE
5
78
100
AcDbEntity
8
FURNITURE
100
AcDbLine
10
15950
20
15900
30
0
11
15950
21
13600
31
0
0
LINE
5
79
100
AcDbEntity
8
FURNITURE
100
AcDbLine
10
16000
20
15300
30
0
11
16500
21
15300
31
0
0
LINE
5
7A
100
AcDbEntity
8
FURNITURE
100
AcDbLine
10
16500
20
15300
30
0
11
16500
21
15700
31
0
0
LINE
5
7B
100
AcDbEntity
8
FURNITURE
100
AcDbLine
10
16500
20
15700
30
0
11
16000
21
15700
31
0
0
LINE
5
7C
100
AcDbEntity
8
FURNITURE
100
AcDbLine
10
16000
20
15700
30
0
11
16000
21
15300
31
0
0
LINE
5
7D
100
AcDbEntity
8
WALLS
100
AcDbLine
10
1200
20
9425
30
0
11
7200
21
9425
31
0
0
LINE
5
7E
100
AcDbEntity
8
WALLS
100
AcDbLine
10
1200
20
13425
30
0
11
7200
21
13425
31
0
0
LINE
5
7F
100
AcDbEntity
8
WALLS
100
AcDbLine
10
1125
20
9500
30
0
11
1125
21
10900
31
0
0
LINE
5
80
100
AcDbEntity
8
WALLS
100
AcDbLine
10
1125
20
12100
30
0
11
1125
21
13500
31
0
0
LINE
5
81
100
AcDbEntity
8
WALLS
100
AcDbLine
10
7125
20
9500
30
0
11
7125
21
11050
31
0
0
LINE
5
82
100
AcDbEntity
8
WALLS
100
AcDbLine
10
7125
20
11950
30
0
11
7125
21
13500
31
0
0
LINE
5
83
100
AcDbEntity
8
WALLS
100
AcDbLine
10
1200
20
9575
30
0
11
7200
21
9575
31
0
0
LINE
5
84
100
AcDbEntity
8
WALLS
100
AcDbLine
10
1200
20
13575
30
0
11
7200
21
13575
31
0
0
LINE
5
85
100
AcDbEntity
8
WALLS
100
AcDbLine
10
1275
20
9500
30
0
11
1275
21
10900
31
0
0
LINE
5
86
100
AcDbEntity
8
WALLS
100
AcDbLine
10
1275
20
12100
30
0
11
1275
21
13500
31
0
0
LINE
5
87
100
AcDbEntity
8
WALLS
100
AcDbLine
10
7275
20
9500
30
0
11
7275
21
11050
31
0
0
LINE
5
88
100
AcDbEntity
8
WALLS
100
AcDbLine
10
7275
20
11950
30
0
11
7275
21
13500
31
0
0
LINE
5
89
100
AcDbEntity
8
WINDOWS
100
AcDbLine
10
1160
20
10900
30
0
11
1160
21
12100
31
0
0
LINE
5
8A
100
AcDbEntity
8
WINDOWS
100
AcDbLine
10
1240
20
10900
30
0
11
1240
21
12100
31
0
0
LINE
5
8B
100
AcDbEntity
8
DOORS
100
AcDbLine
10
7200
20
11050
30
0
11
6300
21
11050
31
0
0
LINE
5
8C
100
AcDbEntity
8
DOORS
100
AcDbLine
10
6300
20
11050
30
0
11
6307.7
21
11167.5
31
0
0
LINE
5
8D
100
AcDbEntity
8
DOORS
100
AcDbLine
10
6307.7
20
11167.5
30
0
11
6330.7
21
11282.9
31
0
0
LINE
5
8E
100
AcDbEntity
8
DOORS
100
AcDbLine
10
6330.7
20
11282.9
30
0
11
6368.5
21
11394.4
31
0
0
LINE
5
8F
100
AcDbEntity
8
DOORS
100
AcDbLine
10
6368.5
20
11394.4
30
0
11
6420.6
21
11500
31
0
0
LINE
5
90
100
AcDbEntity
8
DOORS
100
AcDbLine
10
6420.6
20
11500
30
0
11
6486
21
11597.9
31
0
0
LINE
5
91
100
AcDbEntity
8
DOORS
100
AcDbLine
10
6486
20
11597.9
30
0
11
6563.6
21
11686.4
31
0
0
LINE
5
92
100
AcDbEntity
8
DOORS
100
AcDbLine
10
6563.6
20
11686.4
30
0
11
6652.1
21
11764
31
0
0
LINE
5
93
100
AcDbEntity
8
DOORS
100
AcDbLine
10
6652.1
20
11764
30
0
11
6750
21
11829.4
31
0
0
LINE
5
94
100
AcDbEntity
8
DOORS
100
AcDbLine
10
6750
20
11829.4
30
0
11
6855.6
21
11881.5
31
0
0
LINE
5
95
100
AcDbEntity
8
DOORS
100
AcDbLine
10
6855.6
20
11881.5
30
0
11
6967.1
21
11919.3
31
0
0
LINE
5
96
100
AcDbEntity
8
DOORS
100
AcDbLine
10
6967.1
20
11919.3
30
0
11
7082.5
21
11942.3
31
0
0
LINE
5
97
100
AcDbEntity
8
DOORS
100
AcDbLine
10
7082.5
20
11942.3
30
0
11
7200
21
11950
31
0
0
LINE
5
98
100
AcDbEntity
8
FURNITURE
100
AcDbLine
10
1450
20
11450
30
0
11
2950
21
11450
31
0
0
LINE
5
99
100
AcDbEntity
8
FURNITURE
100
AcDbLine
10
2950
20
11450
30
0
11
2950
21
13250
31
0
0
LINE
5
9A
100
AcDbEntity
8
FURNITURE
100
AcDbLine
10
2950
20
13250
30
0
11
1450
21
13250
31
0
0
LINE
5
9B
100
AcDbEntity
8
FURNITURE
100
AcDbLine
10
1450
20
13250
30
0
11
1450
21
11450
31
0
0
LINE
5
9C
100
AcDbEntity
8
FURNITURE
100
AcDbLine
10
1550
20
12800
30
0
11
2850
21
12800
31
0
0
LINE
5
9D
100
AcDbEntity
8
FURNITURE
100
AcDbLine
10
2850
20
12800
30
0
11
2850
21
13150
31
0
0
LINE
5
9E
100
AcDbEntity
8
FURNITURE
100
AcDbLine
10
2850
20
13150
30
0
11
1550
21
13150
31
0
0
LINE
5
9F
100
AcDbEntity
8
FURNITURE
100
AcDbLine
10
1550
20
13150
30
0
11
1550
21
12800
31
0
0
LINE
5
A0
100
AcDbEntity
8
WALLS
100
AcDbLine
10
1200
20
15925
30
0
11
7200
21
15925
31
0
0
LINE
5
A1
100
AcDbEntity
8
WALLS
100
AcDbLine
10
1125
20
13500
30
0
11
1125
21
14150
31
0
0
LINE
5
A2
100
AcDbEntity
8
WALLS
100
AcDbLine
10
1125
20
15350
30
0
11
1125
21
16000
31
0
0
LINE
5
A3
100
AcDbEntity
8
WALLS
100
AcDbLine
10
7125
20
13500
30
0
11
7125
21
14300
31
0
0
LINE
5
A4
100
AcDbEntity
8
WALLS
100
AcDbLine
10
7125
20
15200
30
0
11
7125
21
16000
31
0
0
LINE
5
A5
100
AcDbEntity
8
WALLS
100
AcDbLine
10
1200
20
16075
30
0
11
7200
21
16075
31
0
0
LINE
5
A6
100
AcDbEntity
8
WALLS
100
AcDbLine
10
1275
20
13500
30
0
11
1275
21
14150
31
0
0
LINE
5
A7
100
AcDbEntity
8
WALLS
100
AcDbLine
10
1275
20
15350
30
0
11
1275
21
16000
31
0
0
LINE
5
A8
100
AcDbEntity
8
WALLS
100
AcDbLine
10
7275
20
13500
30
0
11
7275
21
14300
31
0
0
LINE
5
A9
100
AcDbEntity
8
WALLS
100
AcDbLine
10
7275
20
15200
30
0
11
7275
21
16000
31
0
0
LINE
5
AA
100
AcDbEntity
8
WINDOWS
100
AcDbLine
10
1160
20
14150
30
0
11
1160
21
15350
31
0
0
LINE
5
AB
100
AcDbEntity
8
WINDOWS
100
AcDbLine
10
1240
20
14150
30
0
11
1240
21
15350
31
0
0
LINE
5
AC
100
AcDbEntity
8
DOORS
100
AcDbLine
10
7200
20
14300
30
0
11
6300
21
14300
31
0
0
LINE
5
AD
100
AcDbEntity
8
DOORS
100
AcDbLine
10
6300
20
14300
30
0
11
6307.7
21
14417.5
31
0
0
LINE
5
AE
100
AcDbEntity
8
DOORS
100
AcDbLine
10
6307.7
20
14417.5
30
0
11
6330.7
21
14532.9
31
0
0
LINE
5
AF
100
AcDbEntity
8
DOORS
100
AcDbLine
10
6330.7
20
14532.9
30
0
11
6368.5
21
14644.4
31
0
0
LINE
5
B0
100
AcDbEntity
8
DOORS
100
AcDbLine
10
6368.5
20
14644.4
30
0
11
6420.6
21
14750
31
0
0
LINE
5
B1
100
AcDbEntity
8
DOORS
100
AcDbLine
10
6420.6
20
14750
30
0
11
6486
21
14847.9
31
0
0
LINE
5
B2
100
AcDbEntity
8
DOORS
100
AcDbLine
10
6486
20
14847.9
30
0
11
6563.6
21
14936.4
31
0
0
LINE
5
B3
100
AcDbEntity
8
DOORS
100
AcDbLine
10
6563.6
20
14936.4
30
0
11
6652.1
21
15014
31
0
0
LINE
5
B4
100
AcDbEntity
8
DOORS
100
AcDbLine
10
6652.1
20
15014
30
0
11
6750
21
15079.4
31
0
0
LINE
5
B5
100
AcDbEntity
8
DOORS
100
AcDbLine
10
6750
20
15079.4
30
0
11
6855.6
21
15131.5
31
0
0
LINE
5
B6
100
AcDbEntity
8
DOORS
100
AcDbLine
10
6855.6
20
15131.5
30
0
11
6967.1
21
15169.3
31
0
0
LINE
5
B7
100
AcDbEntity
8
DOORS
100
AcDbLine
10
6967.1
20
15169.3
30
0
11
7082.5
21
15192.3
31
0
0
LINE
5
B8
100
AcDbEntity
8
DOORS
100
AcDbLine
10
7082.5
20
15192.3
30
0
11
7200
21
15200
31
0
0
LINE
5
B9
100
AcDbEntity
8
FURNITURE
100
AcDbLine
10
1450
20
15150
30
0
11
2000
21
15150
31
0
0
LINE
5
BA
100
AcDbEntity
8
FURNITURE
100
AcDbLine
10
2000
20
15150
30
0
11
2000
21
15750
31
0
0
LINE
5
BB
100
AcDbEntity
8
FURNITURE
100
AcDbLine
10
2000
20
15750
30
0
11
1450
21
15750
31
0
0
LINE
5
BC
100
AcDbEntity
8
FURNITURE
100
AcDbLine
10
1450
20
15750
30
0
11
1450
21
15150
31
0
0
LINE
5
BD
100
AcDbEntity
8
FURNITURE
100
AcDbLine
10
3800
20
15000
30
0
11
4600
21
15000
31
0
0
LINE
5
BE
100
AcDbEntity
8
FURNITURE
100
AcDbLine
10
4600
20
15000
30
0
11
4600
21
15750
31
0
0
LINE
5
BF
100
AcDbEntity
8
FURNITURE
100
AcDbLine
10
4600
20
15750
30
0
11
3800
21
15750
31
0
0
LINE
5
C0
100
AcDbEntity
8
FURNITURE
100
AcDbLine
10
3800
20
15750
30
0
11
3800
21
15000
31
0
0
LINE
5
C1
100
AcDbEntity
8
WALLS
100
AcDbLine
10
1200
20
5925
30
0
11
7200
21
5925
31
0
0
LINE
5
C2
100
AcDbEntity
8
WALLS
100
AcDbLine
10
1125
20
6000
30
0
11
1125
21
7150
31
0
0
LINE
5
C3
100
AcDbEntity
8
WALLS
100
AcDbLine
10
1125
20
8350
30
0
11
1125
21
9500
31
0
0
LINE
5
C4
100
AcDbEntity
8
WALLS
100
AcDbLine
10
7125
20
6000
30
0
11
7125
21
7300
31
0
0
LINE
5
C5
100
AcDbEntity
8
WALLS
100
AcDbLine
10
7125
20
8200
30
0
11
7125
21
9500
31
0
0
LINE
5
C6
100
AcDbEntity
8
WALLS
100
AcDbLine
10
1200
20
6075
30
0
11
7200
21
6075
31
0
0
LINE
5
C7
100
AcDbEntity
8
WALLS
100
AcDbLine
10
1275
20
6000
30
0
11
1275
21
7150
31
0
0
LINE
5
C8
100
AcDbEntity
8
WALLS
100
AcDbLine
10
1275
20
8350
30
0
11
1275
21
9500
31
0
0
LINE
5
C9
100
AcDbEntity
8
WALLS
100
AcDbLine
10
7275
20
6000
30
0
11
7275
21
7300
31
0
0
LINE
5
CA
100
AcDbEntity
8
WALLS
100
AcDbLine
10
7275
20
8200
30
0
11
7275
21
9500
31
0
0
LINE
5
CB
100
AcDbEntity
8
WINDOWS
100
AcDbLine
10
1160
20
7150
30
0
11
1160
21
8350
31
0
0
LINE
5
CC
100
AcDbEntity
8
WINDOWS
100
AcDbLine
10
1240
20
7150
30
0
11
1240
21
8350
31
0
0
LINE
5
CD
100
AcDbEntity
8
DOORS
100
AcDbLine
10
7200
20
7300
30
0
11
6300
21
7300
31
0
0
LINE
5
CE
100
AcDbEntity
8
DOORS
100
AcDbLine
10
6300
20
7300
30
0
11
6307.7
21
7417.5
31
0
0
LINE
5
CF
100
AcDbEntity
8
DOORS
100
AcDbLine
10
6307.7
20
7417.5
30
0
11
6330.7
21
7532.9
31
0
0
LINE
5
D0
100
AcDbEntity
8
DOORS
100
AcDbLine
10
6330.7
20
7532.9
30
0
11
6368.5
21
7644.4
31
0
0
LINE
5
D1
100
AcDbEntity
8
DOORS
100
AcDbLine
10
6368.5
20
7644.4
30
0
11
6420.6
21
7750
31
0
0
LINE
5
D2
100
AcDbEntity
8
DOORS
100
AcDbLine
10
6420.6
20
7750
30
0
11
6486
21
7847.9
31
0
0
LINE
5
D3
100
AcDbEntity
8
DOORS
100
AcDbLine
10
6486
20
7847.9
30
0
11
6563.6
21
7936.4
31
0
0
LINE
5
D4
100
AcDbEntity
8
DOORS
100
AcDbLine
10
6563.6
20
7936.4
30
0
11
6652.1
21
8014
31
0
0
LINE
5
D5
100
AcDbEntity
8
DOORS
100
AcDbLine
10
6652.1
20
8014
30
0
11
6750
21
8079.4
31
0
0
LINE
5
D6
100
AcDbEntity
8
DOORS
100
AcDbLine
10
6750
20
8079.4
30
0
11
6855.6
21
8131.5
31
0
0
LINE
5
D7
100
AcDbEntity
8
DOORS
100
AcDbLine
10
6855.6
20
8131.5
30
0
11
6967.1
21
8169.3
31
0
0
LINE
5
D8
100
AcDbEntity
8
DOORS
100
AcDbLine
10
6967.1
20
8169.3
30
0
11
7082.5
21
8192.3
31
0
0
LINE
5
D9
100
AcDbEntity
8
DOORS
100
AcDbLine
10
7082.5
20
8192.3
30
0
11
7200
21
8200
31
0
0
LINE
5
DA
100
AcDbEntity
8
FURNITURE
100
AcDbLine
10
1650
20
7900
30
0
11
3150
21
7900
31
0
0
LINE
5
DB
100
AcDbEntity
8
FURNITURE
100
AcDbLine
10
3150
20
7900
30
0
11
3150
21
8700
31
0
0
LINE
5
DC
100
AcDbEntity
8
FURNITURE
100
AcDbLine
10
3150
20
8700
30
0
11
1650
21
8700
31
0
0
LINE
5
DD
100
AcDbEntity
8
FURNITURE
100
AcDbLine
10
1650
20
8700
30
0
11
1650
21
7900
31
0
0
LINE
5
DE
100
AcDbEntity
8
WALLS
100
AcDbLine
10
1200
20
19925
30
0
11
7200
21
19925
31
0
0
LINE
5
DF
100
AcDbEntity
8
WALLS
100
AcDbLine
10
1125
20
16000
30
0
11
1125
21
17400
31
0
0
LINE
5
E0
100
AcDbEntity
8
WALLS
100
AcDbLine
10
1125
20
18600
30
0
11
1125
21
20000
31
0
0
LINE
5
E1
100
AcDbEntity
8
WALLS
100
AcDbLine
10
7125
20
16000
30
0
11
7125
21
17550
31
0
0
LINE
5
E2
100
AcDbEntity
8
WALLS
100
AcDbLine
10
7125
20
18450
30
0
11
7125
21
20000
31
0
0
LINE
5
E3
100
AcDbEntity
8
WALLS
100
AcDbLine
10
1200
20
20075
30
0
11
7200
21
20075
31
0
0
LINE
5
E4
100
AcDbEntity
8
WALLS
100
AcDbLine
10
1275
20
16000
30
0
11
1275
21
17400
31
0
0
LINE
5
E5
100
AcDbEntity
8
WALLS
100
AcDbLine
10
1275
20
18600
30
0
11
1275
21
20000
31
0
0
LINE
5
E6
100
AcDbEntity
8
WALLS
100
AcDbLine
10
7275
20
16000
30
0
11
7275
21
17550
31
0
0
LINE
5
E7
100
AcDbEntity
8
WALLS
100
AcDbLine
10
7275
20
18450
30
0
11
7275
21
20000
31
0
0
LINE
5
E8
100
AcDbEntity
8
WINDOWS
100
AcDbLine
10
1160
20
17400
30
0
11
1160
21
18600
31
0
0
LINE
5
E9
100
AcDbEntity
8
WINDOWS
100
AcDbLine
10
1240
20
17400
30
0
11
1240
21
18600
31
0
0
LINE
5
EA
100
AcDbEntity
8
DOORS
100
AcDbLine
10
7200
20
17550
30
0
11
6300
21
17550
31
0
0
LINE
5
EB
100
AcDbEntity
8
DOORS
100
AcDbLine
10
6300
20
17550
30
0
11
6307.7
21
17667.5
31
0
0
LINE
5
EC
100
AcDbEntity
8
DOORS
100
AcDbLine
10
6307.7
20
17667.5
30
0
11
6330.7
21
17782.9
31
0
0
LINE
5
ED
100
AcDbEntity
8
DOORS
100
AcDbLine
10
6330.7
20
17782.9
30
0
11
6368.5
21
17894.4
31
0
0
LINE
5
EE
100
AcDbEntity
8
DOORS
100
AcDbLine
10
6368.5
20
17894.4
30
0
11
6420.6
21
18000
31
0
0
LINE
5
EF
100
AcDbEntity
8
DOORS
100
AcDbLine
10
6420.6
20
18000
30
0
11
6486
21
18097.9
31
0
0
LINE
5
F0
100
AcDbEntity
8
DOORS
100
AcDbLine
10
6486
20
18097.9
30
0
11
6563.6
21
18186.4
31
0
0
LINE
5
F1
100
AcDbEntity
8
DOORS
100
AcDbLine
10
6563.6
20
18186.4
30
0
11
6652.1
21
18264
31
0
0
LINE
5
F2
100
AcDbEntity
8
DOORS
100
AcDbLine
10
6652.1
20
18264
30
0
11
6750
21
18329.4
31
0
0
LINE
5
F3
100
AcDbEntity
8
DOORS
100
AcDbLine
10
6750
20
18329.4
30
0
11
6855.6
21
18381.5
31
0
0
LINE
5
F4
100
AcDbEntity
8
DOORS
100
AcDbLine
10
6855.6
20
18381.5
30
0
11
6967.1
21
18419.3
31
0
0
LINE
5
F5
100
AcDbEntity
8
DOORS
100
AcDbLine
10
6967.1
20
18419.3
30
0
11
7082.5
21
18442.3
31
0
0
LINE
5
F6
100
AcDbEntity
8
DOORS
100
AcDbLine
10
7082.5
20
18442.3
30
0
11
7200
21
18450
31
0
0
LINE
5
F7
100
AcDbEntity
8
STAIRS
100
AcDbLine
10
1450
20
16900
30
0
11
3650
21
16900
31
0
0
LINE
5
F8
100
AcDbEntity
8
STAIRS
100
AcDbLine
10
3650
20
16900
30
0
11
3650
21
18900
31
0
0
LINE
5
F9
100
AcDbEntity
8
STAIRS
100
AcDbLine
10
3650
20
18900
30
0
11
1450
21
18900
31
0
0
LINE
5
FA
100
AcDbEntity
8
STAIRS
100
AcDbLine
10
1450
20
18900
30
0
11
1450
21
16900
31
0
0
LINE
5
FB
100
AcDbEntity
8
STAIRS
100
AcDbLine
10
1450
20
16900
30
0
11
2400
21
16900
31
0
0
LINE
5
FC
100
AcDbEntity
8
STAIRS
100
AcDbLine
10
2700
20
16900
30
0
11
3650
21
16900
31
0
0
LINE
5
FD
100
AcDbEntity
8
STAIRS
100
AcDbLine
10
1450
20
17120
30
0
11
2400
21
17120
31
0
0
LINE
5
FE
100
AcDbEntity
8
STAIRS
100
AcDbLine
10
2700
20
17120
30
0
11
3650
21
17120
31
0
0
LINE
5
FF
100
AcDbEntity
8
STAIRS
100
AcDbLine
10
1450
20
17340
30
0
11
2400
21
17340
31
0
0
LINE
5
100
100
AcDbEntity
8
STAIRS
100
AcDbLine
10
2700
20
17340
30
0
11
3650
21
17340
31
0
0
LINE
5
101
100
AcDbEntity
8
STAIRS
100
AcDbLine
10
1450
20
17560
30
0
11
2400
21
17560
31
0
0
LINE
5
102
100
AcDbEntity
8
STAIRS
100
AcDbLine
10
2700
20
17560
30
0
11
3650
21
17560
31
0
0
LINE
5
103
100
AcDbEntity
8
STAIRS
100
AcDbLine
10
1450
20
17780
30
0
11
2400
21
17780
31
0
0
LINE
5
104
100
AcDbEntity
8
STAIRS
100
AcDbLine
10
2700
20
17780
30
0
11
3650
21
17780
31
0
0
LINE
5
105
100
AcDbEntity
8
STAIRS
100
AcDbLine
10
1450
20
18000
30
0
11
2400
21
18000
31
0
0
LINE
5
106
100
AcDbEntity
8
STAIRS
100
AcDbLine
10
2700
20
18000
30
0
11
3650
21
18000
31
0
0
LINE
5
107
100
AcDbEntity
8
STAIRS
100
AcDbLine
10
1450
20
18220
30
0
11
2400
21
18220
31
0
0
LINE
5
108
100
AcDbEntity
8
STAIRS
100
AcDbLine
10
2700
20
18220
30
0
11
3650
21
18220
31
0
0
LINE
5
109
100
AcDbEntity
8
STAIRS
100
AcDbLine
10
1450
20
18440
30
0
11
2400
21
18440
31
0
0
LINE
5
10A
100
AcDbEntity
8
STAIRS
100
AcDbLine
10
2700
20
18440
30
0
11
3650
21
18440
31
0
0
LINE
5
10B
100
AcDbEntity
8
WALLS
100
AcDbLine
10
16725
20
16200
30
0
11
16725
21
17100
31
0
0
LINE
5
10C
100
AcDbEntity
8
WALLS
100
AcDbLine
10
16725
20
18300
30
0
11
16725
21
19200
31
0
0
LINE
5
10D
100
AcDbEntity
8
WALLS
100
AcDbLine
10
8325
20
16200
30
0
11
8325
21
17250
31
0
0
LINE
5
10E
100
AcDbEntity
8
WALLS
100
AcDbLine
10
8325
20
18150
30
0
11
8325
21
19200
31
0
0
LINE
5
10F
100
AcDbEntity
8
WALLS
100
AcDbLine
10
16875
20
16200
30
0
11
16875
21
17100
31
0
0
LINE
5
110
100
AcDbEntity
8
WALLS
100
AcDbLine
10
16875
20
18300
30
0
11
16875
21
19200
31
0
0
LINE
5
111
100
AcDbEntity
8
WALLS
100
AcDbLine
10
8475
20
16200
30
0
11
8475
21
17250
31
0
0
LINE
5
112
100
AcDbEntity
8
WALLS
100
AcDbLine
10
8475
20
18150
30
0
11
8475
21
19200
31
0
0
LINE
5
113
100
AcDbEntity
8
WINDOWS
100
AcDbLine
10
16760
20
17100
30
0
11
16760
21
18300
31
0
0
LINE
5
114
100
AcDbEntity
8
WINDOWS
100
AcDbLine
10
16840
20
17100
30
0
11
16840
21
18300
31
0
0
LINE
5
115
100
AcDbEntity
8
DOORS
100
AcDbLine
10
8400
20
17250
30
0
11
9300
21
17250
31
0
0
LINE
5
116
100
AcDbEntity
8
DOORS
100
AcDbLine
10
9300
20
17250
30
0
11
9292.3
21
17367.5
31
0
0
LINE
5
117
100
AcDbEntity
8
DOORS
100
AcDbLine
10
9292.3
20
17367.5
30
0
11
9269.3
21
17482.9
31
0
0
LINE
5
118
100
AcDbEntity
8
DOORS
100
AcDbLine
10
9269.3
20
17482.9
30
0
11
9231.5
21
17594.4
31
0
0
LINE
5
119
100
AcDbEntity
8
DOORS
100
AcDbLine
10
9231.5
20
17594.4
30
0
11
9179.4
21
17700
31
0
0
LINE
5
11A
100
AcDbEntity
8
DOORS
100
AcDbLine
10
9179.4
20
17700
30
0
11
9114
21
17797.9
31
0
0
LINE
5
11B
100
AcDbEntity
8
DOORS
100
AcDbLine
10
9114
20
17797.9
30
0
11
9036.4
21
17886.4
31
0
0
LINE
5
11C
100
AcDbEntity
8
DOORS
100
AcDbLine
10
9036.4
20
17886.4
30
0
11
8947.9
21
17964
31
0
0
LINE
5
11D
100
AcDbEntity
8
DOORS
100
AcDbLine
10
8947.9
20
17964
30
0
11
8850
21
18029.4
31
0
0
LINE
5
11E
100
AcDbEntity
8
DOORS
100
AcDbLine
10
8850
20
18029.4
30
0
11
8744.4
21
18081.5
31
0
0
LINE
5
11F
100
AcDbEntity
8
DOORS
100
AcDbLine
10
8744.4
20
18081.5
30
0
11
8632.9
21
18119.3
31
0
0
LINE
5
120
100
AcDbEntity
8
DOORS
100
AcDbLine
10
8632.9
20
18119.3
30
0
11
8517.5
21
18142.3
31
0
0
LINE
5
121
100
AcDbEntity
8
DOORS
100
AcDbLine
10
8517.5
20
18142.3
30
0
11
8400
21
18150
31
0
0
LINE
5
122
100
AcDbEntity
8
FURNITURE
100
AcDbLine
10
14850
20
17600
30
0
11
16350
21
17600
31
0
0
LINE
5
123
100
AcDbEntity
8
FURNITURE
100
AcDbLine
10
16350
20
17600
30
0
11
16350
21
18400
31
0
0
LINE
5
124
100
AcDbEntity
8
FURNITURE
100
AcDbLine
10
16350
20
18400
30
0
11
14850
21
18400
31
0
0
LINE
5
125
100
AcDbEntity
8
FURNITURE
100
AcDbLine
10
14850
20
18400
30
0
11
14850
21
17600
31
0
0
LINE
5
126
100
AcDbEntity
8
WALLS
100
AcDbLine
10
8400
20
5925
30
0
11
16800
21
5925
31
0
0
LINE
5
127
100
AcDbEntity
8
WALLS
100
AcDbLine
10
8400
20
10125
30
0
11
16800
21
10125
31
0
0
LINE
5
128
100
AcDbEntity
8
WALLS
100
AcDbLine
10
16725
20
6000
30
0
11
16725
21
7500
31
0
0
LINE
5
129
100
AcDbEntity
8
WALLS
100
AcDbLine
10
16725
20
8700
30
0
11
16725
21
10200
31
0
0
LINE
5
12A
100
AcDbEntity
8
WALLS
100
AcDbLine
10
8325
20
6000
30
0
11
8325
21
7650
31
0
0
LINE
5
12B
100
AcDbEntity
8
WALLS
100
AcDbLine
10
8325
20
8550
30
0
11
8325
21
10200
31
0
0
LINE
5
12C
100
AcDbEntity
8
WALLS
100
AcDbLine
10
8400
20
6075
30
0
11
16800
21
6075
31
0
0
LINE
5
12D
100
AcDbEntity
8
WALLS
100
AcDbLine
10
8400
20
10275
30
0
11
16800
21
10275
31
0
0
LINE
5
12E
100
AcDbEntity
8
WALLS
100
AcDbLine
10
16875
20
6000
30
0
11
16875
21
7500
31
0
0
LINE
5
12F
100
AcDbEntity
8
WALLS
100
AcDbLine
10
16875
20
8700
30
0
11
16875
21
10200
31
0
0
LINE
5
130
100
AcDbEntity
8
WALLS
100
AcDbLine
10
8475
20
6000
30
0
11
8475
21
7650
31
0
0
LINE
5
131
100
AcDbEntity
8
WALLS
100
AcDbLine
10
8475
20
8550
30
0
11
8475
21
10200
31
0
0
LINE
5
132
100
AcDbEntity
8
WINDOWS
100
AcDbLine
10
16760
20
7500
30
0
11
16760
21
8700
31
0
0
LINE
5
133
100
AcDbEntity
8
WINDOWS
100
AcDbLine
10
16840
20
7500
30
0
11
16840
21
8700
31
0
0
LINE
5
134
100
AcDbEntity
8
DOORS
100
AcDbLine
10
8400
20
7650
30
0
11
9300
21
7650
31
0
0
LINE
5
135
100
AcDbEntity
8
DOORS
100
AcDbLine
10
9300
20
7650
30
0
11
9292.3
21
7767.5
31
0
0
LINE
5
136
100
AcDbEntity
8
DOORS
100
AcDbLine
10
9292.3
20
7767.5
30
0
11
9269.3
21
7882.9
31
0
0
LINE
5
137
100
AcDbEntity
8
DOORS
100
AcDbLine
10
9269.3
20
7882.9
30
0
11
9231.5
21
7994.4
31
0
0
LINE
5
138
100
AcDbEntity
8
DOORS
100
AcDbLine
10
9231.5
20
7994.4
30
0
11
9179.4
21
8100
31
0
0
LINE
5
139
100
AcDbEntity
8
DOORS
100
AcDbLine
10
9179.4
20
8100
30
0
11
9114
21
8197.9
31
0
0
LINE
5
13A
100
AcDbEntity
8
DOORS
100
AcDbLine
10
9114
20
8197.9
30
0
11
9036.4
21
8286.4
31
0
0
LINE
5
13B
100
AcDbEntity
8
DOORS
100
AcDbLine
10
9036.4
20
8286.4
30
0
11
8947.9
21
8364
31
0
0
LINE
5
13C
100
AcDbEntity
8
DOORS
100
AcDbLine
10
8947.9
20
8364
30
0
11
8850
21
8429.4
31
0
0
LINE
5
13D
100
AcDbEntity
8
DOORS
100
AcDbLine
10
8850
20
8429.4
30
0
11
8744.4
21
8481.5
31
0
0
LINE
5
13E
100
AcDbEntity
8
DOORS
100
AcDbLine
10
8744.4
20
8481.5
30
0
11
8632.9
21
8519.3
31
0
0
LINE
5
13F
100
AcDbEntity
8
DOORS
100
AcDbLine
10
8632.9
20
8519.3
30
0
11
8517.5
21
8542.3
31
0
0
LINE
5
140
100
AcDbEntity
8
DOORS
100
AcDbLine
10
8517.5
20
8542.3
30
0
11
8400
21
8550
31
0
0
LINE
5
141
100
AcDbEntity
8
FURNITURE
100
AcDbLine
10
15050
20
8150
30
0
11
16550
21
8150
31
0
0
LINE
5
142
100
AcDbEntity
8
FURNITURE
100
AcDbLine
10
16550
20
8150
30
0
11
16550
21
9950
31
0
0
LINE
5
143
100
AcDbEntity
8
FURNITURE
100
AcDbLine
10
16550
20
9950
30
0
11
15050
21
9950
31
0
0
LINE
5
144
100
AcDbEntity
8
FURNITURE
100
AcDbLine
10
15050
20
9950
30
0
11
15050
21
8150
31
0
0
LINE
5
145
100
AcDbEntity
8
FURNITURE
100
AcDbLine
10
15150
20
9500
30
0
11
16450
21
9500
31
0
0
LINE
5
146
100
AcDbEntity
8
FURNITURE
100
AcDbLine
10
16450
20
9500
30
0
11
16450
21
9850
31
0
0
LINE
5
147
100
AcDbEntity
8
FURNITURE
100
AcDbLine
10
16450
20
9850
30
0
11
15150
21
9850
31
0
0
LINE
5
148
100
AcDbEntity
8
FURNITURE
100
AcDbLine
10
15150
20
9850
30
0
11
15150
21
9500
31
0
0
LINE
5
149
100
AcDbEntity
8
WALLS
100
AcDbLine
10
16725
20
10200
30
0
11
16725
21
10800
31
0
0
LINE
5
14A
100
AcDbEntity
8
WALLS
100
AcDbLine
10
16725
20
12000
30
0
11
16725
21
12600
31
0
0
LINE
5
14B
100
AcDbEntity
8
WALLS
100
AcDbLine
10
8325
20
10200
30
0
11
8325
21
10950
31
0
0
LINE
5
14C
100
AcDbEntity
8
WALLS
100
AcDbLine
10
8325
20
11850
30
0
11
8325
21
12600
31
0
0
LINE
5
14D
100
AcDbEntity
8
WALLS
100
AcDbLine
10
16875
20
10200
30
0
11
16875
21
10800
31
0
0
LINE
5
14E
100
AcDbEntity
8
WALLS
100
AcDbLine
10
16875
20
12000
30
0
11
16875
21
12600
31
0
0
LINE
5
14F
100
AcDbEntity
8
WALLS
100
AcDbLine
10
8475
20
10200
30
0
11
8475
21
10950
31
0
0
LINE
5
150
100
AcDbEntity
8
WALLS
100
AcDbLine
10
8475
20
11850
30
0
11
8475
21
12600
31
0
0
LINE
5
151
100
AcDbEntity
8
WINDOWS
100
AcDbLine
10
16760
20
10800
30
0
11
16760
21
12000
31
0
0
LINE
5
152
100
AcDbEntity
8
WINDOWS
100
AcDbLine
10
16840
20
10800
30
0
11
16840
21
12000
31
0
0
LINE
5
153
100
AcDbEntity
8
DOORS
100
AcDbLine
10
8400
20
10950
30
0
11
9300
21
10950
31
0
0
LINE
5
154
100
AcDbEntity
8
DOORS
100
AcDbLine
10
9300
20
10950
30
0
11
9292.3
21
11067.5
31
0
0
LINE
5
155
100
AcDbEntity
8
DOORS
100
AcDbLine
10
9292.3
20
11067.5
30
0
11
9269.3
21
11182.9
31
0
0
LINE
5
156
100
AcDbEntity
8
DOORS
100
AcDbLine
10
9269.3
20
11182.9
30
0
11
9231.5
21
11294.4
31
0
0
LINE
5
157
100
AcDbEntity
8
DOORS
100
AcDbLine
10
9231.5
20
11294.4
30
0
11
9179.4
21
11400
31
0
0
LINE
5
158
100
AcDbEntity
8
DOORS
100
AcDbLine
10
9179.4
20
11400
30
0
11
9114
21
11497.9
31
0
0
LINE
5
159
100
AcDbEntity
8
DOORS
100
AcDbLine
10
9114
20
11497.9
30
0
11
9036.4
21
11586.4
31
0
0
LINE
5
15A
100
AcDbEntity
8
DOORS
100
AcDbLine
10
9036.4
20
11586.4
30
0
11
8947.9
21
11664
31
0
0
LINE
5
15B
100
AcDbEntity
8
DOORS
100
AcDbLine
10
8947.9
20
11664
30
0
11
8850
21
11729.4
31
0
0
LINE
5
15C
100
AcDbEntity
8
DOORS
100
AcDbLine
10
8850
20
11729.4
30
0
11
8744.4
21
11781.5
31
0
0
LINE
5
15D
100
AcDbEntity
8
DOORS
100
AcDbLine
10
8744.4
20
11781.5
30
0
11
8632.9
21
11819.3
31
0
0
LINE
5
15E
100
AcDbEntity
8
DOORS
100
AcDbLine
10
8632.9
20
11819.3
30
0
11
8517.5
21
11842.3
31
0
0
LINE
5
15F
100
AcDbEntity
8
DOORS
100
AcDbLine
10
8517.5
20
11842.3
30
0
11
8400
21
11850
31
0
0
LINE
5
160
100
AcDbEntity
8
FURNITURE
100
AcDbLine
10
16000
20
11750
30
0
11
16550
21
11750
31
0
0
LINE
5
161
100
AcDbEntity
8
FURNITURE
100
AcDbLine
10
16550
20
11750
30
0
11
16550
21
12350
31
0
0
LINE
5
162
100
AcDbEntity
8
FURNITURE
100
AcDbLine
10
16550
20
12350
30
0
11
16000
21
12350
31
0
0
LINE
5
163
100
AcDbEntity
8
FURNITURE
100
AcDbLine
10
16000
20
12350
30
0
11
16000
21
11750
31
0
0
LINE
5
164
100
AcDbEntity
8
FURNITURE
100
AcDbLine
10
12200
20
11600
30
0
11
13000
21
11600
31
0
0
LINE
5
165
100
AcDbEntity
8
FURNITURE
100
AcDbLine
10
13000
20
11600
30
0
11
13000
21
12350
31
0
0
LINE
5
166
100
AcDbEntity
8
FURNITURE
100
AcDbLine
10
13000
20
12350
30
0
11
12200
21
12350
31
0
0
LINE
5
167
100
AcDbEntity
8
FURNITURE
100
AcDbLine
10
12200
20
12350
30
0
11
12200
21
11600
31
0
0
LINE
5
168
100
AcDbEntity
8
WALLS
100
AcDbLine
10
1200
20
22725
30
0
11
7200
21
22725
31
0
0
LINE
5
169
100
AcDbEntity
8
WALLS
100
AcDbLine
10
1125
20
20000
30
0
11
1125
21
20800
31
0
0
LINE
5
16A
100
AcDbEntity
8
WALLS
100
AcDbLine
10
1125
20
22000
30
0
11
1125
21
22800
31
0
0
LINE
5
16B
100
AcDbEntity
8
WALLS
100
AcDbLine
10
7125
20
20000
30
0
11
7125
21
20950
31
0
0
LINE
5
16C
100
AcDbEntity
8
WALLS
100
AcDbLine
10
7125
20
21850
30
0
11
7125
21
22800
31
0
0
LINE
5
16D
100
AcDbEntity
8
WALLS
100
AcDbLine
10
1200
20
22875
30
0
11
7200
21
22875
31
0
0
LINE
5
16E
100
AcDbEntity
8
WALLS
100
AcDbLine
10
1275
20
20000
30
0
11
1275
21
20800
31
0
0
LINE
5
16F
100
AcDbEntity
8
WALLS
100
AcDbLine
10
1275
20
22000
30
0
11
1275
21
22800
31
0
0
LINE
5
170
100
AcDbEntity
8
WALLS
100
AcDbLine
10
7275
20
20000
30
0
11
7275
21
20950
31
0
0
LINE
5
171
100
AcDbEntity
8
WALLS
100
AcDbLine
10
7275
20
21850
30
0
11
7275
21
22800
31
0
0
LINE
5
172
100
AcDbEntity
8
WINDOWS
100
AcDbLine
10
1160
20
20800
30
0
11
1160
21
22000
31
0
0
LINE
5
173
100
AcDbEntity
8
WINDOWS
100
AcDbLine
10
1240
20
20800
30
0
11
1240
21
22000
31
0
0
LINE
5
174
100
AcDbEntity
8
DOORS
100
AcDbLine
10
7200
20
20950
30
0
11
6300
21
20950
31
0
0
LINE
5
175
100
AcDbEntity
8
DOORS
100
AcDbLine
10
6300
20
20950
30
0
11
6307.7
21
21067.5
31
0
0
LINE
5
176
100
AcDbEntity
8
DOORS
100
AcDbLine
10
6307.7
20
21067.5
30
0
11
6330.7
21
21182.9
31
0
0
LINE
5
177
100
AcDbEntity
8
DOORS
100
AcDbLine
10
6330.7
20
21182.9
30
0
11
6368.5
21
21294.4
31
0
0
LINE
5
178
100
AcDbEntity
8
DOORS
100
AcDbLine
10
6368.5
20
21294.4
30
0
11
6420.6
21
21400
31
0
0
LINE
5
179
100
AcDbEntity
8
DOORS
100
AcDbLine
10
6420.6
20
21400
30
0
11
6486
21
21497.9
31
0
0
LINE
5
17A
100
AcDbEntity
8
DOORS
100
AcDbLine
10
6486
20
21497.9
30
0
11
6563.6
21
21586.4
31
0
0
LINE
5
17B
100
AcDbEntity
8
DOORS
100
AcDbLine
10
6563.6
20
21586.4
30
0
11
6652.1
21
21664
31
0
0
LINE
5
17C
100
AcDbEntity
8
DOORS
100
AcDbLine
10
6652.1
20
21664
30
0
11
6750
21
21729.4
31
0
0
LINE
5
17D
100
AcDbEntity
8
DOORS
100
AcDbLine
10
6750
20
21729.4
30
0
11
6855.6
21
21781.5
31
0
0
LINE
5
17E
100
AcDbEntity
8
DOORS
100
AcDbLine
10
6855.6
20
21781.5
30
0
11
6967.1
21
21819.3
31
0
0
LINE
5
17F
100
AcDbEntity
8
DOORS
100
AcDbLine
10
6967.1
20
21819.3
30
0
11
7082.5
21
21842.3
31
0
0
LINE
5
180
100
AcDbEntity
8
DOORS
100
AcDbLine
10
7082.5
20
21842.3
30
0
11
7200
21
21850
31
0
0
LINE
5
181
100
AcDbEntity
8
WALLS
100
AcDbLine
10
30400
20
13925
30
0
11
38800
21
13925
31
0
0
LINE
5
182
100
AcDbEntity
8
WALLS
100
AcDbLine
10
30400
20
22725
30
0
11
38800
21
22725
31
0
0
LINE
5
183
100
AcDbEntity
8
WALLS
100
AcDbLine
10
38725
20
14000
30
0
11
38725
21
17800
31
0
0
LINE
5
184
100
AcDbEntity
8
WALLS
100
AcDbLine
10
38725
20
19000
30
0
11
38725
21
22800
31
0
0
LINE
5
185
100
AcDbEntity
8
WALLS
100
AcDbLine
10
30325
20
14000
30
0
11
30325
21
17950
31
0
0
LINE
5
186
100
AcDbEntity
8
WALLS
100
AcDbLine
10
30325
20
18850
30
0
11
30325
21
22800
31
0
0
LINE
5
187
100
AcDbEntity
8
WALLS
100
AcDbLine
10
30400
20
14075
30
0
11
38800
21
14075
31
0
0
LINE
5
188
100
AcDbEntity
8
WALLS
100
AcDbLine
10
30400
20
22875
30
0
11
38800
21
22875
31
0
0
LINE
5
189
100
AcDbEntity
8
WALLS
100
AcDbLine
10
38875
20
14000
30
0
11
38875
21
17800
31
0
0
LINE
5
18A
100
AcDbEntity
8
WALLS
100
AcDbLine
10
38875
20
19000
30
0
11
38875
21
22800
31
0
0
LINE
5
18B
100
AcDbEntity
8
WALLS
100
AcDbLine
10
30475
20
14000
30
0
11
30475
21
17950
31
0
0
LINE
5
18C
100
AcDbEntity
8
WALLS
100
AcDbLine
10
30475
20
18850
30
0
11
30475
21
22800
31
0
0
LINE
5
18D
100
AcDbEntity
8
WINDOWS
100
AcDbLine
10
38760
20
17800
30
0
11
38760
21
19000
31
0
0
LINE
5
18E
100
AcDbEntity
8
WINDOWS
100
AcDbLine
10
38840
20
17800
30
0
11
38840
21
19000
31
0
0
LINE
5
18F
100
AcDbEntity
8
DOORS
100
AcDbLine
10
30400
20
17950
30
0
11
31300
21
17950
31
0
0
LINE
5
190
100
AcDbEntity
8
DOORS
100
AcDbLine
10
31300
20
17950
30
0
11
31292.3
21
18067.5
31
0
0
LINE
5
191
100
AcDbEntity
8
DOORS
100
AcDbLine
10
31292.3
20
18067.5
30
0
11
31269.3
21
18182.9
31
0
0
LINE
5
192
100
AcDbEntity
8
DOORS
100
AcDbLine
10
31269.3
20
18182.9
30
0
11
31231.5
21
18294.4
31
0
0
LINE
5
193
100
AcDbEntity
8
DOORS
100
AcDbLine
10
31231.5
20
18294.4
30
0
11
31179.4
21
18400
31
0
0
LINE
5
194
100
AcDbEntity
8
DOORS
100
AcDbLine
10
31179.4
20
18400
30
0
11
31114
21
18497.9
31
0
0
LINE
5
195
100
AcDbEntity
8
DOORS
100
AcDbLine
10
31114
20
18497.9
30
0
11
31036.4
21
18586.4
31
0
0
LINE
5
196
100
AcDbEntity
8
DOORS
100
AcDbLine
10
31036.4
20
18586.4
30
0
11
30947.9
21
18664
31
0
0
LINE
5
197
100
AcDbEntity
8
DOORS
100
AcDbLine
10
30947.9
20
18664
30
0
11
30850
21
18729.4
31
0
0
LINE
5
198
100
AcDbEntity
8
DOORS
100
AcDbLine
10
30850
20
18729.4
30
0
11
30744.4
21
18781.5
31
0
0
LINE
5
199
100
AcDbEntity
8
DOORS
100
AcDbLine
10
30744.4
20
18781.5
30
0
11
30632.9
21
18819.3
31
0
0
LINE
5
19A
100
AcDbEntity
8
DOORS
100
AcDbLine
10
30632.9
20
18819.3
30
0
11
30517.5
21
18842.3
31
0
0
LINE
5
19B
100
AcDbEntity
8
DOORS
100
AcDbLine
10
30517.5
20
18842.3
30
0
11
30400
21
18850
31
0
0
LINE
5
19C
100
AcDbEntity
8
FURNITURE
100
AcDbLine
10
36550
20
21650
30
0
11
38450
21
21650
31
0
0
LINE
5
19D
100
AcDbEntity
8
FURNITURE
100
AcDbLine
10
38450
20
21650
30
0
11
38450
21
22400
31
0
0
LINE
5
19E
100
AcDbEntity
8
FURNITURE
100
AcDbLine
10
38450
20
22400
30
0
11
36550
21
22400
31
0
0
LINE
5
19F
100
AcDbEntity
8
FURNITURE
100
AcDbLine
10
36550
20
22400
30
0
11
36550
21
21650
31
0
0
LINE
5
1A0
100
AcDbEntity
8
FURNITURE
100
AcDbLine
10
36900
20
20800
30
0
11
38100
21
20800
31
0
0
LINE
5
1A1
100
AcDbEntity
8
FURNITURE
100
AcDbLine
10
38100
20
20800
30
0
11
38100
21
21350
31
0
0
LINE
5
1A2
100
AcDbEntity
8
FURNITURE
100
AcDbLine
10
38100
20
21350
30
0
11
36900
21
21350
31
0
0
LINE
5
1A3
100
AcDbEntity
8
FURNITURE
100
AcDbLine
10
36900
20
21350
30
0
11
36900
21
20800
31
0
0
LINE
5
1A4
100
AcDbEntity
8
WALLS
100
AcDbLine
10
23200
20
5925
30
0
11
29200
21
5925
31
0
0
LINE
5
1A5
100
AcDbEntity
8
WALLS
100
AcDbLine
10
23200
20
10925
30
0
11
29200
21
10925
31
0
0
LINE
5
1A6
100
AcDbEntity
8
WALLS
100
AcDbLine
10
23125
20
6000
30
0
11
23125
21
7900
31
0
0
LINE
5
1A7
100
AcDbEntity
8
WALLS
100
AcDbLine
10
23125
20
9100
30
0
11
23125
21
11000
31
0
0
LINE
5
1A8
100
AcDbEntity
8
WALLS
100
AcDbLine
10
29125
20
6000
30
0
11
29125
21
8050
31
0
0
LINE
5
1A9
100
AcDbEntity
8
WALLS
100
AcDbLine
10
29125
20
8950
30
0
11
29125
21
11000
31
0
0
LINE
5
1AA
100
AcDbEntity
8
WALLS
100
AcDbLine
10
23200
20
6075
30
0
11
29200
21
6075
31
0
0
LINE
5
1AB
100
AcDbEntity
8
WALLS
100
AcDbLine
10
23200
20
11075
30
0
11
29200
21
11075
31
0
0
LINE
5
1AC
100
AcDbEntity
8
WALLS
100
AcDbLine
10
23275
20
6000
30
0
11
23275
21
7900
31
0
0
LINE
5
1AD
100
AcDbEntity
8
WALLS
100
AcDbLine
10
23275
20
9100
30
0
11
23275
21
11000
31
0
0
LINE
5
1AE
100
AcDbEntity
8
WALLS
100
AcDbLine
10
29275
20
6000
30
0
11
29275
21
8050
31
0
0
LINE
5
1AF
100
AcDbEntity
8
WALLS
100
AcDbLine
10
29275
20
8950
30
0
11
29275
21
11000
31
0
0
LINE
5
1B0
100
AcDbEntity
8
WINDOWS
100
AcDbLine
10
23160
20
7900
30
0
11
23160
21
9100
31
0
0
LINE
5
1B1
100
AcDbEntity
8
WINDOWS
100
AcDbLine
10
23240
20
7900
30
0
11
23240
21
9100
31
0
0
LINE
5
1B2
100
AcDbEntity
8
DOORS
100
AcDbLine
10
29200
20
8050
30
0
11
28300
21
8050
31
0
0
LINE
5
1B3
100
AcDbEntity
8
DOORS
100
AcDbLine
10
28300
20
8050
30
0
11
28307.7
21
8167.5
31
0
0
LINE
5
1B4
100
AcDbEntity
8
DOORS
100
AcDbLine
10
28307.7
20
8167.5
30
0
11
28330.7
21
8282.9
31
0
0
LINE
5
1B5
100
AcDbEntity
8
DOORS
100
AcDbLine
10
28330.7
20
8282.9
30
0
11
28368.5
21
8394.4
31
0
0
LINE
5
1B6
100
AcDbEntity
8
DOORS
100
AcDbLine
10
28368.5
20
8394.4
30
0
11
28420.6
21
8500
31
0
0
LINE
5
1B7
100
AcDbEntity
8
DOORS
100
AcDbLine
10
28420.6
20
8500
30
0
11
28486
21
8597.9
31
0
0
LINE
5
1B8
100
AcDbEntity
8
DOORS
100
AcDbLine
10
28486
20
8597.9
30
0
11
28563.6
21
8686.4
31
0
0
LINE
5
1B9
100
AcDbEntity
8
DOORS
100
AcDbLine
10
28563.6
20
8686.4
30
0
11
28652.1
21
8764
31
0
0
LINE
5
1BA
100
AcDbEntity
8
DOORS
100
AcDbLine
10
28652.1
20
8764
30
0
11
28750
21
8829.4
31
0
0
LINE
5
1BB
100
AcDbEntity
8
DOORS
100
AcDbLine
10
28750
20
8829.4
30
0
11
28855.6
21
8881.5
31
0
0
LINE
5
1BC
100
AcDbEntity
8
DOORS
100
AcDbLine
10
28855.6
20
8881.5
30
0
11
28967.1
21
8919.3
31
0
0
LINE
5
1BD
100
AcDbEntity
8
DOORS
100
AcDbLine
10
28967.1
20
8919.3
30
0
11
29082.5
21
8942.3
31
0
0
LINE
5
1BE
100
AcDbEntity
8
DOORS
100
AcDbLine
10
29082.5
20
8942.3
30
0
11
29200
21
8950
31
0
0
LINE
5
1BF
100
AcDbEntity
8
FURNITURE
100
AcDbLine
10
23450
20
8950
30
0
11
24950
21
8950
31
0
0
LINE
5
1C0
100
AcDbEntity
8
FURNITURE
100
AcDbLine
10
24950
20
8950
30
0
11
24950
21
10750
31
0
0
LINE
5
1C1
100
AcDbEntity
8
FURNITURE
100
AcDbLine
10
24950
20
10750
30
0
11
23450
21
10750
31
0
0
LINE
5
1C2
100
AcDbEntity
8
FURNITURE
100
AcDbLine
10
23450
20
10750
30
0
11
23450
21
8950
31
0
0
LINE
5
1C3
100
AcDbEntity
8
FURNITURE
100
AcDbLine
10
23550
20
10300
30
0
11
24850
21
10300
31
0
0
LINE
5
1C4
100
AcDbEntity
8
FURNITURE
100
AcDbLine
10
24850
20
10300
30
0
11
24850
21
10650
31
0
0
LINE
5
1C5
100
AcDbEntity
8
FURNITURE
100
AcDbLine
10
24850
20
10650
30
0
11
23550
21
10650
31
0
0
LINE
5
1C6
100
AcDbEntity
8
FURNITURE
100
AcDbLine
10
23550
20
10650
30
0
11
23550
21
10300
31
0
0
LINE
5
1C7
100
AcDbEntity
8
WALLS
100
AcDbLine
10
23200
20
13425
30
0
11
29200
21
13425
31
0
0
LINE
5
1C8
100
AcDbEntity
8
WALLS
100
AcDbLine
10
23125
20
11000
30
0
11
23125
21
11650
31
0
0
LINE
5
1C9
100
AcDbEntity
8
WALLS
100
AcDbLine
10
23125
20
12850
30
0
11
23125
21
13500
31
0
0
LINE
5
1CA
100
AcDbEntity
8
WALLS
100
AcDbLine
10
29125
20
11000
30
0
11
29125
21
11800
31
0
0
LINE
5
1CB
100
AcDbEntity
8
WALLS
100
AcDbLine
10
29125
20
12700
30
0
11
29125
21
13500
31
0
0
LINE
5
1CC
100
AcDbEntity
8
WALLS
100
AcDbLine
10
23200
20
13575
30
0
11
29200
21
13575
31
0
0
LINE
5
1CD
100
AcDbEntity
8
WALLS
100
AcDbLine
10
23275
20
11000
30
0
11
23275
21
11650
31
0
0
LINE
5
1CE
100
AcDbEntity
8
WALLS
100
AcDbLine
10
23275
20
12850
30
0
11
23275
21
13500
31
0
0
LINE
5
1CF
100
AcDbEntity
8
WALLS
100
AcDbLine
10
29275
20
11000
30
0
11
29275
21
11800
31
0
0
LINE
5
1D0
100
AcDbEntity
8
WALLS
100
AcDbLine
10
29275
20
12700
30
0
11
29275
21
13500
31
0
0
LINE
5
1D1
100
AcDbEntity
8
WINDOWS
100
AcDbLine
10
23160
20
11650
30
0
11
23160
21
12850
31
0
0
LINE
5
1D2
100
AcDbEntity
8
WINDOWS
100
AcDbLine
10
23240
20
11650
30
0
11
23240
21
12850
31
0
0
LINE
5
1D3
100
AcDbEntity
8
DOORS
100
AcDbLine
10
29200
20
11800
30
0
11
28300
21
11800
31
0
0
LINE
5
1D4
100
AcDbEntity
8
DOORS
100
AcDbLine
10
28300
20
11800
30
0
11
28307.7
21
11917.5
31
0
0
LINE
5
1D5
100
AcDbEntity
8
DOORS
100
AcDbLine
10
28307.7
20
11917.5
30
0
11
28330.7
21
12032.9
31
0
0
LINE
5
1D6
100
AcDbEntity
8
DOORS
100
AcDbLine
10
28330.7
20
12032.9
30
0
11
28368.5
21
12144.4
31
0
0
LINE
5
1D7
100
AcDbEntity
8
DOORS
100
AcDbLine
10
28368.5
20
12144.4
30
0
11
28420.6
21
12250
31
0
0
LINE
5
1D8
100
AcDbEntity
8
DOORS
100
AcDbLine
10
28420.6
20
12250
30
0
11
28486
21
12347.9
31
0
0
LINE
5
1D9
100
AcDbEntity
8
DOORS
100
AcDbLine
10
28486
20
12347.9
30
0
11
28563.6
21
12436.4
31
0
0
LINE
5
1DA
100
AcDbEntity
8
DOORS
100
AcDbLine
10
28563.6
20
12436.4
30
0
11
28652.1
21
12514
31
0
0
LINE
5
1DB
100
AcDbEntity
8
DOORS
100
AcDbLine
10
28652.1
20
12514
30
0
11
28750
21
12579.4
31
0
0
LINE
5
1DC
100
AcDbEntity
8
DOORS
100
AcDbLine
10
28750
20
12579.4
30
0
11
28855.6
21
12631.5
31
0
0
LINE
5
1DD
100
AcDbEntity
8
DOORS
100
AcDbLine
10
28855.6
20
12631.5
30
0
11
28967.1
21
12669.3
31
0
0
LINE
5
1DE
100
AcDbEntity
8
DOORS
100
AcDbLine
10
28967.1
20
12669.3
30
0
11
29082.5
21
12692.3
31
0
0
LINE
5
1DF
100
AcDbEntity
8
DOORS
100
AcDbLine
10
29082.5
20
12692.3
30
0
11
29200
21
12700
31
0
0
LINE
5
1E0
100
AcDbEntity
8
FURNITURE
100
AcDbLine
10
23450
20
12650
30
0
11
24000
21
12650
31
0
0
LINE
5
1E1
100
AcDbEntity
8
FURNITURE
100
AcDbLine
10
24000
20
12650
30
0
11
24000
21
13250
31
0
0
LINE
5
1E2
100
AcDbEntity
8
FURNITURE
100
AcDbLine
10
24000
20
13250
30
0
11
23450
21
13250
31
0
0
LINE
5
1E3
100
AcDbEntity
8
FURNITURE
100
AcDbLine
10
23450
20
13250
30
0
11
23450
21
12650
31
0
0
LINE
5
1E4
100
AcDbEntity
8
FURNITURE
100
AcDbLine
10
25800
20
12500
30
0
11
26600
21
12500
31
0
0
LINE
5
1E5
100
AcDbEntity
8
FURNITURE
100
AcDbLine
10
26600
20
12500
30
0
11
26600
21
13250
31
0
0
LINE
5
1E6
100
AcDbEntity
8
FURNITURE
100
AcDbLine
10
26600
20
13250
30
0
11
25800
21
13250
31
0
0
LINE
5
1E7
100
AcDbEntity
8
FURNITURE
100
AcDbLine
10
25800
20
13250
30
0
11
25800
21
12500
31
0
0
LINE
5
1E8
100
AcDbEntity
8
WALLS
100
AcDbLine
10
23200
20
15925
30
0
11
29200
21
15925
31
0
0
LINE
5
1E9
100
AcDbEntity
8
WALLS
100
AcDbLine
10
23125
20
13500
30
0
11
23125
21
14150
31
0
0
LINE
5
1EA
100
AcDbEntity
8
WALLS
100
AcDbLine
10
23125
20
15350
30
0
11
23125
21
16000
31
0
0
LINE
5
1EB
100
AcDbEntity
8
WALLS
100
AcDbLine
10
29125
20
13500
30
0
11
29125
21
14300
31
0
0
LINE
5
1EC
100
AcDbEntity
8
WALLS
100
AcDbLine
10
29125
20
15200
30
0
11
29125
21
16000
31
0
0
LINE
5
1ED
100
AcDbEntity
8
WALLS
100
AcDbLine
10
23200
20
16075
30
0
11
29200
21
16075
31
0
0
LINE
5
1EE
100
AcDbEntity
8
WALLS
100
AcDbLine
10
23275
20
13500
30
0
11
23275
21
14150
31
0
0
LINE
5
1EF
100
AcDbEntity
8
WALLS
100
AcDbLine
10
23275
20
15350
30
0
11
23275
21
16000
31
0
0
LINE
5
1F0
100
AcDbEntity
8
WALLS
100
AcDbLine
10
29275
20
13500
30
0
11
29275
21
14300
31
0
0
LINE
5
1F1
100
AcDbEntity
8
WALLS
100
AcDbLine
10
29275
20
15200
30
0
11
29275
21
16000
31
0
0
LINE
5
1F2
100
AcDbEntity
8
WINDOWS
100
AcDbLine
10
23160
20
14150
30
0
11
23160
21
15350
31
0
0
LINE
5
1F3
100
AcDbEntity
8
WINDOWS
100
AcDbLine
10
23240
20
14150
30
0
11
23240
21
15350
31
0
0
LINE
5
1F4
100
AcDbEntity
8
DOORS
100
AcDbLine
10
29200
20
14300
30
0
11
28300
21
14300
31
0
0
LINE
5
1F5
100
AcDbEntity
8
DOORS
100
AcDbLine
10
28300
20
14300
30
0
11
28307.7
21
14417.5
31
0
0
LINE
5
1F6
100
AcDbEntity
8
DOORS
100
AcDbLine
10
28307.7
20
14417.5
30
0
11
28330.7
21
14532.9
31
0
0
LINE
5
1F7
100
AcDbEntity
8
DOORS
100
AcDbLine
10
28330.7
20
14532.9
30
0
11
28368.5
21
14644.4
31
0
0
LINE
5
1F8
100
AcDbEntity
8
DOORS
100
AcDbLine
10
28368.5
20
14644.4
30
0
11
28420.6
21
14750
31
0
0
LINE
5
1F9
100
AcDbEntity
8
DOORS
100
AcDbLine
10
28420.6
20
14750
30
0
11
28486
21
14847.9
31
0
0
LINE
5
1FA
100
AcDbEntity
8
DOORS
100
AcDbLine
10
28486
20
14847.9
30
0
11
28563.6
21
14936.4
31
0
0
LINE
5
1FB
100
AcDbEntity
8
DOORS
100
AcDbLine
10
28563.6
20
14936.4
30
0
11
28652.1
21
15014
31
0
0
LINE
5
1FC
100
AcDbEntity
8
DOORS
100
AcDbLine
10
28652.1
20
15014
30
0
11
28750
21
15079.4
31
0
0
LINE
5
1FD
100
AcDbEntity
8
DOORS
100
AcDbLine
10
28750
20
15079.4
30
0
11
28855.6
21
15131.5
31
0
0
LINE
5
1FE
100
AcDbEntity
8
DOORS
100
AcDbLine
10
28855.6
20
15131.5
30
0
11
28967.1
21
15169.3
31
0
0
LINE
5
1FF
100
AcDbEntity
8
DOORS
100
AcDbLine
10
28967.1
20
15169.3
30
0
11
29082.5
21
15192.3
31
0
0
LINE
5
200
100
AcDbEntity
8
DOORS
100
AcDbLine
10
29082.5
20
15192.3
30
0
11
29200
21
15200
31
0
0
LINE
5
201
100
AcDbEntity
8
WALLS
100
AcDbLine
10
23200
20
19925
30
0
11
29200
21
19925
31
0
0
LINE
5
202
100
AcDbEntity
8
WALLS
100
AcDbLine
10
23125
20
16000
30
0
11
23125
21
17400
31
0
0
LINE
5
203
100
AcDbEntity
8
WALLS
100
AcDbLine
10
23125
20
18600
30
0
11
23125
21
20000
31
0
0
LINE
5
204
100
AcDbEntity
8
WALLS
100
AcDbLine
10
29125
20
16000
30
0
11
29125
21
17550
31
0
0
LINE
5
205
100
AcDbEntity
8
WALLS
100
AcDbLine
10
29125
20
18450
30
0
11
29125
21
20000
31
0
0
LINE
5
206
100
AcDbEntity
8
WALLS
100
AcDbLine
10
23200
20
20075
30
0
11
29200
21
20075
31
0
0
LINE
5
207
100
AcDbEntity
8
WALLS
100
AcDbLine
10
23275
20
16000
30
0
11
23275
21
17400
31
0
0
LINE
5
208
100
AcDbEntity
8
WALLS
100
AcDbLine
10
23275
20
18600
30
0
11
23275
21
20000
31
0
0
LINE
5
209
100
AcDbEntity
8
WALLS
100
AcDbLine
10
29275
20
16000
30
0
11
29275
21
17550
31
0
0
LINE
5
20A
100
AcDbEntity
8
WALLS
100
AcDbLine
10
29275
20
18450
30
0
11
29275
21
20000
31
0
0
LINE
5
20B
100
AcDbEntity
8
WINDOWS
100
AcDbLine
10
23160
20
17400
30
0
11
23160
21
18600
31
0
0
LINE
5
20C
100
AcDbEntity
8
WINDOWS
100
AcDbLine
10
23240
20
17400
30
0
11
23240
21
18600
31
0
0
LINE
5
20D
100
AcDbEntity
8
DOORS
100
AcDbLine
10
29200
20
17550
30
0
11
28300
21
17550
31
0
0
LINE
5
20E
100
AcDbEntity
8
DOORS
100
AcDbLine
10
28300
20
17550
30
0
11
28307.7
21
17667.5
31
0
0
LINE
5
20F
100
AcDbEntity
8
DOORS
100
AcDbLine
10
28307.7
20
17667.5
30
0
11
28330.7
21
17782.9
31
0
0
LINE
5
210
100
AcDbEntity
8
DOORS
100
AcDbLine
10
28330.7
20
17782.9
30
0
11
28368.5
21
17894.4
31
0
0
LINE
5
211
100
AcDbEntity
8
DOORS
100
AcDbLine
10
28368.5
20
17894.4
30
0
11
28420.6
21
18000
31
0
0
LINE
5
212
100
AcDbEntity
8
DOORS
100
AcDbLine
10
28420.6
20
18000
30
0
11
28486
21
18097.9
31
0
0
LINE
5
213
100
AcDbEntity
8
DOORS
100
AcDbLine
10
28486
20
18097.9
30
0
11
28563.6
21
18186.4
31
0
0
LINE
5
214
100
AcDbEntity
8
DOORS
100
AcDbLine
10
28563.6
20
18186.4
30
0
11
28652.1
21
18264
31
0
0
LINE
5
215
100
AcDbEntity
8
DOORS
100
AcDbLine
10
28652.1
20
18264
30
0
11
28750
21
18329.4
31
0
0
LINE
5
216
100
AcDbEntity
8
DOORS
100
AcDbLine
10
28750
20
18329.4
30
0
11
28855.6
21
18381.5
31
0
0
LINE
5
217
100
AcDbEntity
8
DOORS
100
AcDbLine
10
28855.6
20
18381.5
30
0
11
28967.1
21
18419.3
31
0
0
LINE
5
218
100
AcDbEntity
8
DOORS
100
AcDbLine
10
28967.1
20
18419.3
30
0
11
29082.5
21
18442.3
31
0
0
LINE
5
219
100
AcDbEntity
8
DOORS
100
AcDbLine
10
29082.5
20
18442.3
30
0
11
29200
21
18450
31
0
0
LINE
5
21A
100
AcDbEntity
8
STAIRS
100
AcDbLine
10
23450
20
16900
30
0
11
25650
21
16900
31
0
0
LINE
5
21B
100
AcDbEntity
8
STAIRS
100
AcDbLine
10
25650
20
16900
30
0
11
25650
21
18900
31
0
0
LINE
5
21C
100
AcDbEntity
8
STAIRS
100
AcDbLine
10
25650
20
18900
30
0
11
23450
21
18900
31
0
0
LINE
5
21D
100
AcDbEntity
8
STAIRS
100
AcDbLine
10
23450
20
18900
30
0
11
23450
21
16900
31
0
0
LINE
5
21E
100
AcDbEntity
8
STAIRS
100
AcDbLine
10
23450
20
16900
30
0
11
24400
21
16900
31
0
0
LINE
5
21F
100
AcDbEntity
8
STAIRS
100
AcDbLine
10
24700
20
16900
30
0
11
25650
21
16900
31
0
0
LINE
5
220
100
AcDbEntity
8
STAIRS
100
AcDbLine
10
23450
20
17120
30
0
11
24400
21
17120
31
0
0
LINE
5
221
100
AcDbEntity
8
STAIRS
100
AcDbLine
10
24700
20
17120
30
0
11
25650
21
17120
31
0
0
LINE
5
222
100
AcDbEntity
8
STAIRS
100
AcDbLine
10
23450
20
17340
30
0
11
24400
21
17340
31
0
0
LINE
5
223
100
AcDbEntity
8
STAIRS
100
AcDbLine
10
24700
20
17340
30
0
11
25650
21
17340
31
0
0
LINE
5
224
100
AcDbEntity
8
STAIRS
100
AcDbLine
10
23450
20
17560
30
0
11
24400
21
17560
31
0
0
LINE
5
225
100
AcDbEntity
8
STAIRS
100
AcDbLine
10
24700
20
17560
30
0
11
25650
21
17560
31
0
0
LINE
5
226
100
AcDbEntity
8
STAIRS
100
AcDbLine
10
23450
20
17780
30
0
11
24400
21
17780
31
0
0
LINE
5
227
100
AcDbEntity
8
STAIRS
100
AcDbLine
10
24700
20
17780
30
0
11
25650
21
17780
31
0
0
LINE
5
228
100
AcDbEntity
8
STAIRS
100
AcDbLine
10
23450
20
18000
30
0
11
24400
21
18000
31
0
0
LINE
5
229
100
AcDbEntity
8
STAIRS
100
AcDbLine
10
24700
20
18000
30
0
11
25650
21
18000
31
0
0
LINE
5
22A
100
AcDbEntity
8
STAIRS
100
AcDbLine
10
23450
20
18220
30
0
11
24400
21
18220
31
0
0
LINE
5
22B
100
AcDbEntity
8
STAIRS
100
AcDbLine
10
24700
20
18220
30
0
11
25650
21
18220
31
0
0
LINE
5
22C
100
AcDbEntity
8
STAIRS
100
AcDbLine
10
23450
20
18440
30
0
11
24400
21
18440
31
0
0
LINE
5
22D
100
AcDbEntity
8
STAIRS
100
AcDbLine
10
24700
20
18440
30
0
11
25650
21
18440
31
0
0
LINE
5
22E
100
AcDbEntity
8
WALLS
100
AcDbLine
10
30400
20
5925
30
0
11
38800
21
5925
31
0
0
LINE
5
22F
100
AcDbEntity
8
WALLS
100
AcDbLine
10
38725
20
6000
30
0
11
38725
21
9400
31
0
0
LINE
5
230
100
AcDbEntity
8
WALLS
100
AcDbLine
10
38725
20
10600
30
0
11
38725
21
14000
31
0
0
LINE
5
231
100
AcDbEntity
8
WALLS
100
AcDbLine
10
30325
20
6000
30
0
11
30325
21
9550
31
0
0
LINE
5
232
100
AcDbEntity
8
WALLS
100
AcDbLine
10
30325
20
10450
30
0
11
30325
21
14000
31
0
0
LINE
5
233
100
AcDbEntity
8
WALLS
100
AcDbLine
10
30400
20
6075
30
0
11
38800
21
6075
31
0
0
LINE
5
234
100
AcDbEntity
8
WALLS
100
AcDbLine
10
38875
20
6000
30
0
11
38875
21
9400
31
0
0
LINE
5
235
100
AcDbEntity
8
WALLS
100
AcDbLine
10
38875
20
10600
30
0
11
38875
21
14000
31
0
0
LINE
5
236
100
AcDbEntity
8
WALLS
100
AcDbLine
10
30475
20
6000
30
0
11
30475
21
9550
31
0
0
LINE
5
237
100
AcDbEntity
8
WALLS
100
AcDbLine
10
30475
20
10450
30
0
11
30475
21
14000
31
0
0
LINE
5
238
100
AcDbEntity
8
WINDOWS
100
AcDbLine
10
38760
20
9400
30
0
11
38760
21
10600
31
0
0
LINE
5
239
100
AcDbEntity
8
WINDOWS
100
AcDbLine
10
38840
20
9400
30
0
11
38840
21
10600
31
0
0
LINE
5
23A
100
AcDbEntity
8
DOORS
100
AcDbLine
10
30400
20
9550
30
0
11
31300
21
9550
31
0
0
LINE
5
23B
100
AcDbEntity
8
DOORS
100
AcDbLine
10
31300
20
9550
30
0
11
31292.3
21
9667.5
31
0
0
LINE
5
23C
100
AcDbEntity
8
DOORS
100
AcDbLine
10
31292.3
20
9667.5
30
0
11
31269.3
21
9782.9
31
0
0
LINE
5
23D
100
AcDbEntity
8
DOORS
100
AcDbLine
10
31269.3
20
9782.9
30
0
11
31231.5
21
9894.4
31
0
0
LINE
5
23E
100
AcDbEntity
8
DOORS
100
AcDbLine
10
31231.5
20
9894.4
30
0
11
31179.4
21
10000
31
0
0
LINE
5
23F
100
AcDbEntity
8
DOORS
100
AcDbLine
10
31179.4
20
10000
30
0
11
31114
21
10097.9
31
0
0
LINE
5
240
100
AcDbEntity
8
DOORS
100
AcDbLine
10
31114
20
10097.9
30
0
11
31036.4
21
10186.4
31
0
0
LINE
5
241
100
AcDbEntity
8
DOORS
100
AcDbLine
10
31036.4
20
10186.4
30
0
11
30947.9
21
10264
31
0
0
LINE
5
242
100
AcDbEntity
8
DOORS
100
AcDbLine
10
30947.9
20
10264
30
0
11
30850
21
10329.4
31
0
0
LINE
5
243
100
AcDbEntity
8
DOORS
100
AcDbLine
10
30850
20
10329.4
30
0
11
30744.4
21
10381.5
31
0
0
LINE
5
244
100
AcDbEntity
8
DOORS
100
AcDbLine
10
30744.4
20
10381.5
30
0
11
30632.9
21
10419.3
31
0
0
LINE
5
245
100
AcDbEntity
8
DOORS
100
AcDbLine
10
30632.9
20
10419.3
30
0
11
30517.5
21
10442.3
31
0
0
LINE
5
246
100
AcDbEntity
8
DOORS
100
AcDbLine
10
30517.5
20
10442.3
30
0
11
30400
21
10450
31
0
0
LINE
5
247
100
AcDbEntity
8
FURNITURE
100
AcDbLine
10
37050
20
11950
30
0
11
38550
21
11950
31
0
0
LINE
5
248
100
AcDbEntity
8
FURNITURE
100
AcDbLine
10
38550
20
11950
30
0
11
38550
21
13750
31
0
0
LINE
5
249
100
AcDbEntity
8
FURNITURE
100
AcDbLine
10
38550
20
13750
30
0
11
37050
21
13750
31
0
0
LINE
5
24A
100
AcDbEntity
8
FURNITURE
100
AcDbLine
10
37050
20
13750
30
0
11
37050
21
11950
31
0
0
LINE
5
24B
100
AcDbEntity
8
FURNITURE
100
AcDbLine
10
37150
20
13300
30
0
11
38450
21
13300
31
0
0
LINE
5
24C
100
AcDbEntity
8
FURNITURE
100
AcDbLine
10
38450
20
13300
30
0
11
38450
21
13650
31
0
0
LINE
5
24D
100
AcDbEntity
8
FURNITURE
100
AcDbLine
10
38450
20
13650
30
0
11
37150
21
13650
31
0
0
LINE
5
24E
100
AcDbEntity
8
FURNITURE
100
AcDbLine
10
37150
20
13650
30
0
11
37150
21
13300
31
0
0
LINE
5
24F
100
AcDbEntity
8
WALLS
100
AcDbLine
10
23200
20
22725
30
0
11
29200
21
22725
31
0
0
LINE
5
250
100
AcDbEntity
8
WALLS
100
AcDbLine
10
23125
20
20000
30
0
11
23125
21
20800
31
0
0
LINE
5
251
100
AcDbEntity
8
WALLS
100
AcDbLine
10
23125
20
22000
30
0
11
23125
21
22800
31
0
0
LINE
5
252
100
AcDbEntity
8
WALLS
100
AcDbLine
10
29125
20
20000
30
0
11
29125
21
20950
31
0
0
LINE
5
253
100
AcDbEntity
8
WALLS
100
AcDbLine
10
29125
20
21850
30
0
11
29125
21
22800
31
0
0
LINE
5
254
100
AcDbEntity
8
WALLS
100
AcDbLine
10
23200
20
22875
30
0
11
29200
21
22875
31
0
0
LINE
5
255
100
AcDbEntity
8
WALLS
100
AcDbLine
10
23275
20
20000
30
0
11
23275
21
20800
31
0
0
LINE
5
256
100
AcDbEntity
8
WALLS
100
AcDbLine
10
23275
20
22000
30
0
11
23275
21
22800
31
0
0
LINE
5
257
100
AcDbEntity
8
WALLS
100
AcDbLine
10
29275
20
20000
30
0
11
29275
21
20950
31
0
0
LINE
5
258
100
AcDbEntity
8
WALLS
100
AcDbLine
10
29275
20
21850
30
0
11
29275
21
22800
31
0
0
LINE
5
259
100
AcDbEntity
8
WINDOWS
100
AcDbLine
10
23160
20
20800
30
0
11
23160
21
22000
31
0
0
LINE
5
25A
100
AcDbEntity
8
WINDOWS
100
AcDbLine
10
23240
20
20800
30
0
11
23240
21
22000
31
0
0
LINE
5
25B
100
AcDbEntity
8
DOORS
100
AcDbLine
10
29200
20
20950
30
0
11
28300
21
20950
31
0
0
LINE
5
25C
100
AcDbEntity
8
DOORS
100
AcDbLine
10
28300
20
20950
30
0
11
28307.7
21
21067.5
31
0
0
LINE
5
25D
100
AcDbEntity
8
DOORS
100
AcDbLine
10
28307.7
20
21067.5
30
0
11
28330.7
21
21182.9
31
0
0
LINE
5
25E
100
AcDbEntity
8
DOORS
100
AcDbLine
10
28330.7
20
21182.9
30
0
11
28368.5
21
21294.4
31
0
0
LINE
5
25F
100
AcDbEntity
8
DOORS
100
AcDbLine
10
28368.5
20
21294.4
30
0
11
28420.6
21
21400
31
0
0
LINE
5
260
100
AcDbEntity
8
DOORS
100
AcDbLine
10
28420.6
20
21400
30
0
11
28486
21
21497.9
31
0
0
LINE
5
261
100
AcDbEntity
8
DOORS
100
AcDbLine
10
28486
20
21497.9
30
0
11
28563.6
21
21586.4
31
0
0
LINE
5
262
100
AcDbEntity
8
DOORS
100
AcDbLine
10
28563.6
20
21586.4
30
0
11
28652.1
21
21664
31
0
0
LINE
5
263
100
AcDbEntity
8
DOORS
100
AcDbLine
10
28652.1
20
21664
30
0
11
28750
21
21729.4
31
0
0
LINE
5
264
100
AcDbEntity
8
DOORS
100
AcDbLine
10
28750
20
21729.4
30
0
11
28855.6
21
21781.5
31
0
0
LINE
5
265
100
AcDbEntity
8
DOORS
100
AcDbLine
10
28855.6
20
21781.5
30
0
11
28967.1
21
21819.3
31
0
0
LINE
5
266
100
AcDbEntity
8
DOORS
100
AcDbLine
10
28967.1
20
21819.3
30
0
11
29082.5
21
21842.3
31
0
0
LINE
5
267
100
AcDbEntity
8
DOORS
100
AcDbLine
10
29082.5
20
21842.3
30
0
11
29200
21
21850
31
0
0
LINE
5
268
100
AcDbEntity
8
FRAME
100
AcDbLine
10
-700
20
-400
30
0
11
43300
21
-400
31
0
0
LINE
5
269
100
AcDbEntity
8
FRAME
100
AcDbLine
10
43300
20
-400
30
0
11
43300
21
26600
31
0
0
LINE
5
26A
100
AcDbEntity
8
FRAME
100
AcDbLine
10
43300
20
26600
30
0
11
-700
21
26600
31
0
0
LINE
5
26B
100
AcDbEntity
8
FRAME
100
AcDbLine
10
-700
20
26600
30
0
11
-700
21
-400
31
0
0
TEXT
5
26C
100
AcDbEntity
8
LABELS
100
AcDbText
10
400
20
25800
30
0
40
300
1
GROUND FLOOR
50
0
7
STANDARD
100
AcDbText
0
TEXT
5
26D
100
AcDbEntity
8
LABELS
100
AcDbText
10
400
20
650
30
0
40
180
1
CONCEPT ONLY - UNITS: MM - REVIEW REQUIRED
50
0
7
STANDARD
100
AcDbText
0
TEXT
5
26E
100
AcDbEntity
8
LABELS
100
AcDbText
10
400
20
1200
30
0
40
180
1
FRONT / SOUTH - 6 m assumed front zone
50
0
7
STANDARD
100
AcDbText
0
TEXT
5
26F
100
AcDbEntity
8
LABELS
100
AcDbText
10
7300
20
6200
30
0
40
100
1
ENTRY E01
50
0
7
STANDARD
100
AcDbText
0
TEXT
5
270
100
AcDbEntity
8
LABELS
100
AcDbText
10
8500
20
24850
30
0
40
200
1
18.00 m
50
0
7
STANDARD
100
AcDbText
0
TEXT
5
271
100
AcDbEntity
8
LABELS
100
AcDbText
10
18700
20
12000
30
0
40
180
1
24.00 m
50
0
7
STANDARD
100
AcDbText
0
TEXT
5
272
100
AcDbEntity
8
LABELS
100
AcDbText
10
14400
20
5600
30
0
40
180
1
PARKING
50
0
7
STANDARD
100
AcDbText
0
TEXT
5
273
100
AcDbEntity
8
LABELS
100
AcDbText
10
22400
20
25800
30
0
40
300
1
LEVEL 1
50
0
7
STANDARD
100
AcDbText
0
TEXT
5
274
100
AcDbEntity
8
LABELS
100
AcDbText
10
22400
20
650
30
0
40
180
1
CONCEPT ONLY - UNITS: MM - REVIEW REQUIRED
50
0
7
STANDARD
100
AcDbText
0
TEXT
5
275
100
AcDbEntity
8
LABELS
100
AcDbText
10
22400
20
1200
30
0
40
180
1
FRONT / SOUTH - 6 m assumed front zone
50
0
7
STANDARD
100
AcDbText
0
TEXT
5
276
100
AcDbEntity
8
LABELS
100
AcDbText
10
29300
20
6200
30
0
40
100
1
CORRIDOR
50
0
7
STANDARD
100
AcDbText
0
TEXT
5
277
100
AcDbEntity
8
LABELS
100
AcDbText
10
30500
20
24850
30
0
40
200
1
18.00 m
50
0
7
STANDARD
100
AcDbText
0
TEXT
5
278
100
AcDbEntity
8
LABELS
100
AcDbText
10
40700
20
12000
30
0
40
180
1
24.00 m
50
0
7
STANDARD
100
AcDbText
0
TEXT
5
279
100
AcDbEntity
8
LABELS
100
AcDbText
10
8600
20
21570
30
0
40
120
1
D01
50
0
7
STANDARD
100
AcDbText
0
TEXT
5
27A
100
AcDbEntity
8
LABELS
100
AcDbText
10
15848
20
19650
30
0
40
180
1
Living
50
0
7
STANDARD
100
AcDbText
0
TEXT
5
27B
100
AcDbEntity
8
LABELS
100
AcDbText
10
15451.5
20
19380
30
0
40
130
1
8.25 x 3.45 m
50
0
7
STANDARD
100
AcDbText
0
TEXT
5
27C
100
AcDbEntity
8
LABELS
100
AcDbText
10
8600
20
14970
30
0
40
120
1
D02
50
0
7
STANDARD
100
AcDbText
0
TEXT
5
27D
100
AcDbEntity
8
LABELS
100
AcDbText
10
15731
20
13050
30
0
40
180
1
Kitchen
50
0
7
STANDARD
100
AcDbText
0
TEXT
5
27E
100
AcDbEntity
8
LABELS
100
AcDbText
10
15451.5
20
12780
30
0
40
130
1
8.25 x 3.45 m
50
0
7
STANDARD
100
AcDbText
0
TEXT
5
27F
100
AcDbEntity
8
LABELS
100
AcDbText
10
6500
20
12070
30
0
40
120
1
D03
50
0
7
STANDARD
100
AcDbText
0
TEXT
5
280
100
AcDbEntity
8
LABELS
100
AcDbText
10
1450
20
9950
30
0
40
180
1
Bedroom 1
50
0
7
STANDARD
100
AcDbText
0
TEXT
5
281
100
AcDbEntity
8
LABELS
100
AcDbText
10
1450
20
9680
30
0
40
130
1
5.85 x 3.85 m
50
0
7
STANDARD
100
AcDbText
0
TEXT
5
282
100
AcDbEntity
8
LABELS
100
AcDbText
10
6500
20
15320
30
0
40
120
1
D04
50
0
7
STANDARD
100
AcDbText
0
TEXT
5
283
100
AcDbEntity
8
LABELS
100
AcDbText
10
1450
20
13950
30
0
40
180
1
Bathroom 1
50
0
7
STANDARD
100
AcDbText
0
TEXT
5
284
100
AcDbEntity
8
LABELS
100
AcDbText
10
1450
20
13680
30
0
40
130
1
5.85 x 2.35 m
50
0
7
STANDARD
100
AcDbText
0
TEXT
5
285
100
AcDbEntity
8
LABELS
100
AcDbText
10
6500
20
8320
30
0
40
120
1
D05
50
0
7
STANDARD
100
AcDbText
0
TEXT
5
286
100
AcDbEntity
8
LABELS
100
AcDbText
10
1450
20
6450
30
0
40
180
1
Office
50
0
7
STANDARD
100
AcDbText
0
TEXT
5
287
100
AcDbEntity
8
LABELS
100
AcDbText
10
1450
20
6180
30
0
40
130
1
5.85 x 3.35 m
50
0
7
STANDARD
100
AcDbText
0
TEXT
5
288
100
AcDbEntity
8
LABELS
100
AcDbText
10
6500
20
18570
30
0
40
120
1
D06
50
0
7
STANDARD
100
AcDbText
0
TEXT
5
289
100
AcDbEntity
8
LABELS
100
AcDbText
10
1450
20
16450
30
0
40
180
1
Stairs
50
0
7
STANDARD
100
AcDbText
0
TEXT
5
28A
100
AcDbEntity
8
LABELS
100
AcDbText
10
1450
20
16180
30
0
40
130
1
5.85 x 3.85 m
50
0
7
STANDARD
100
AcDbText
0
TEXT
5
28B
100
AcDbEntity
8
LABELS
100
AcDbText
10
8600
20
18270
30
0
40
120
1
D07
50
0
7
STANDARD
100
AcDbText
0
TEXT
5
28C
100
AcDbEntity
8
LABELS
100
AcDbText
10
15848
20
16650
30
0
40
180
1
Dining
50
0
7
STANDARD
100
AcDbText
0
TEXT
5
28D
100
AcDbEntity
8
LABELS
100
AcDbText
10
15451.5
20
16380
30
0
40
130
1
8.25 x 2.85 m
50
0
7
STANDARD
100
AcDbText
0
TEXT
5
28E
100
AcDbEntity
8
LABELS
100
AcDbText
10
8600
20
8670
30
0
40
120
1
D08
50
0
7
STANDARD
100
AcDbText
0
TEXT
5
28F
100
AcDbEntity
8
LABELS
100
AcDbText
10
15497
20
6450
30
0
40
180
1
Bedroom 2
50
0
7
STANDARD
100
AcDbText
0
TEXT
5
290
100
AcDbEntity
8
LABELS
100
AcDbText
10
15451.5
20
6180
30
0
40
130
1
8.25 x 4.05 m
50
0
7
STANDARD
100
AcDbText
0
TEXT
5
291
100
AcDbEntity
8
LABELS
100
AcDbText
10
8600
20
11970
30
0
40
120
1
D09
50
0
7
STANDARD
100
AcDbText
0
TEXT
5
292
100
AcDbEntity
8
LABELS
100
AcDbText
10
15380
20
10650
30
0
40
180
1
Bathroom 2
50
0
7
STANDARD
100
AcDbText
0
TEXT
5
293
100
AcDbEntity
8
LABELS
100
AcDbText
10
15451.5
20
10380
30
0
40
130
1
8.25 x 2.25 m
50
0
7
STANDARD
100
AcDbText
0
TEXT
5
294
100
AcDbEntity
8
LABELS
100
AcDbText
10
6500
20
21970
30
0
40
120
1
D10
50
0
7
STANDARD
100
AcDbText
0
TEXT
5
295
100
AcDbEntity
8
LABELS
100
AcDbText
10
1450
20
20450
30
0
40
180
1
Flexible space
50
0
7
STANDARD
100
AcDbText
0
TEXT
5
296
100
AcDbEntity
8
LABELS
100
AcDbText
10
1450
20
20180
30
0
40
130
1
5.85 x 2.65 m
50
0
7
STANDARD
100
AcDbText
0
TEXT
5
297
100
AcDbEntity
8
LABELS
100
AcDbText
10
30600
20
18970
30
0
40
120
1
D11
50
0
7
STANDARD
100
AcDbText
0
TEXT
5
298
100
AcDbEntity
8
LABELS
100
AcDbText
10
37848
20
14450
30
0
40
180
1
Lounge
50
0
7
STANDARD
100
AcDbText
0
TEXT
5
299
100
AcDbEntity
8
LABELS
100
AcDbText
10
37451.5
20
14180
30
0
40
130
1
8.25 x 8.65 m
50
0
7
STANDARD
100
AcDbText
0
TEXT
5
29A
100
AcDbEntity
8
LABELS
100
AcDbText
10
28500
20
9070
30
0
40
120
1
D12
50
0
7
STANDARD
100
AcDbText
0
TEXT
5
29B
100
AcDbEntity
8
LABELS
100
AcDbText
10
23450
20
6450
30
0
40
180
1
Bedroom 3
50
0
7
STANDARD
100
AcDbText
0
TEXT
5
29C
100
AcDbEntity
8
LABELS
100
AcDbText
10
23450
20
6180
30
0
40
130
1
5.85 x 4.85 m
50
0
7
STANDARD
100
AcDbText
0
TEXT
5
29D
100
AcDbEntity
8
LABELS
100
AcDbText
10
28500
20
12820
30
0
40
120
1
D13
50
0
7
STANDARD
100
AcDbText
0
TEXT
5
29E
100
AcDbEntity
8
LABELS
100
AcDbText
10
23450
20
11450
30
0
40
180
1
Bathroom 3
50
0
7
STANDARD
100
AcDbText
0
TEXT
5
29F
100
AcDbEntity
8
LABELS
100
AcDbText
10
23450
20
11180
30
0
40
130
1
5.85 x 2.35 m
50
0
7
STANDARD
100
AcDbText
0
TEXT
5
2A0
100
AcDbEntity
8
LABELS
100
AcDbText
10
28500
20
15320
30
0
40
120
1
D14
50
0
7
STANDARD
100
AcDbText
0
TEXT
5
2A1
100
AcDbEntity
8
LABELS
100
AcDbText
10
23450
20
13950
30
0
40
180
1
Flexible space
50
0
7
STANDARD
100
AcDbText
0
TEXT
5
2A2
100
AcDbEntity
8
LABELS
100
AcDbText
10
23450
20
13680
30
0
40
130
1
5.85 x 2.35 m
50
0
7
STANDARD
100
AcDbText
0
TEXT
5
2A3
100
AcDbEntity
8
LABELS
100
AcDbText
10
28500
20
18570
30
0
40
120
1
D15
50
0
7
STANDARD
100
AcDbText
0
TEXT
5
2A4
100
AcDbEntity
8
LABELS
100
AcDbText
10
23450
20
16450
30
0
40
180
1
Stairs
50
0
7
STANDARD
100
AcDbText
0
TEXT
5
2A5
100
AcDbEntity
8
LABELS
100
AcDbText
10
23450
20
16180
30
0
40
130
1
5.85 x 3.85 m
50
0
7
STANDARD
100
AcDbText
0
TEXT
5
2A6
100
AcDbEntity
8
LABELS
100
AcDbText
10
30600
20
10570
30
0
40
120
1
D16
50
0
7
STANDARD
100
AcDbText
0
TEXT
5
2A7
100
AcDbEntity
8
LABELS
100
AcDbText
10
37497
20
6450
30
0
40
180
1
Bedroom 4
50
0
7
STANDARD
100
AcDbText
0
TEXT
5
2A8
100
AcDbEntity
8
LABELS
100
AcDbText
10
37451.5
20
6180
30
0
40
130
1
8.25 x 7.85 m
50
0
7
STANDARD
100
AcDbText
0
TEXT
5
2A9
100
AcDbEntity
8
LABELS
100
AcDbText
10
28500
20
21970
30
0
40
120
1
D17
50
0
7
STANDARD
100
AcDbText
0
TEXT
5
2AA
100
AcDbEntity
8
LABELS
100
AcDbText
10
23450
20
20450
30
0
40
180
1
Flexible space
50
0
7
STANDARD
100
AcDbText
0
TEXT
5
2AB
100
AcDbEntity
8
LABELS
100
AcDbText
10
23450
20
20180
30
0
40
130
1
5.85 x 2.65 m
50
0
7
STANDARD
100
AcDbText
0
ENDSEC
0
EOF
