0
SECTION
2
HEADER
9
$ACADVER
1
AC1015
9
$MEASUREMENT
70
1
9
$INSUNITS
70
4
0
ENDSEC
0
SECTION
2
TABLES
0
TABLE
2
LAYER
5
10
100
AcDbSymbolTable
70
12
0
LAYER
5
11
100
AcDbSymbolTableRecord
100
AcDbLayerTableRecord
2
0
70
0
62
7
6
CONTINUOUS
0
LAYER
5
12
100
AcDbSymbolTableRecord
100
AcDbLayerTableRecord
2
PLOT
70
0
62
8
6
CONTINUOUS
0
LAYER
5
13
100
AcDbSymbolTableRecord
100
AcDbLayerTableRecord
2
WALLS
70
0
62
7
6
CONTINUOUS
0
LAYER
5
14
100
AcDbSymbolTableRecord
100
AcDbLayerTableRecord
2
DOORS
70
0
62
3
6
CONTINUOUS
0
LAYER
5
15
100
AcDbSymbolTableRecord
100
AcDbLayerTableRecord
2
WINDOWS
70
0
62
4
6
CONTINUOUS
0
LAYER
5
16
100
AcDbSymbolTableRecord
100
AcDbLayerTableRecord
2
LABELS
70
0
62
7
6
CONTINUOUS
0
LAYER
5
17
100
AcDbSymbolTableRecord
100
AcDbLayerTableRecord
2
DIMENSIONS
70
0
62
2
6
CONTINUOUS
0
LAYER
5
18
100
AcDbSymbolTableRecord
100
AcDbLayerTableRecord
2
FURNITURE
70
0
62
8
6
CONTINUOUS
0
LAYER
5
19
100
AcDbSymbolTableRecord
100
AcDbLayerTableRecord
2
STAIRS
70
0
62
6
6
CONTINUOUS
0
LAYER
5
1A
100
AcDbSymbolTableRecord
100
AcDbLayerTableRecord
2
SITE
70
0
62
3
6
CONTINUOUS
0
LAYER
5
1B
100
AcDbSymbolTableRecord
100
AcDbLayerTableRecord
2
SCHEDULE
70
0
62
7
6
CONTINUOUS
0
LAYER
5
1C
100
AcDbSymbolTableRecord
100
AcDbLayerTableRecord
2
FRAME
70
0
62
8
6
CONTINUOUS
0
ENDTAB
0
ENDSEC
0
SECTION
2
BLOCKS
0
ENDSEC
0
SECTION
2
ENTITIES
0
LINE
5
1D
100
AcDbEntity
8
PLOT
100
AcDbLine
10
0
20
0
30
0
11
18000
21
0
31
0
0
LINE
5
1E
100
AcDbEntity
8
PLOT
100
AcDbLine
10
18000
20
0
30
0
11
18000
21
24000
31
0
0
LINE
5
1F
100
AcDbEntity
8
PLOT
100
AcDbLine
10
18000
20
24000
30
0
11
0
21
24000
31
0
0
LINE
5
20
100
AcDbEntity
8
PLOT
100
AcDbLine
10
0
20
24000
30
0
11
0
21
0
31
0
0
LINE
5
21
100
AcDbEntity
8
WALLS
100
AcDbLine
10
8400
20
22800
30
0
11
9600
21
22800
31
0
0
LINE
5
22
100
AcDbEntity
8
WALLS
100
AcDbLine
10
8400
20
6000
30
0
11
9600
21
6000
31
0
0
LINE
5
23
100
AcDbEntity
8
DIMENSIONS
100
AcDbLine
10
0
20
24650
30
0
11
18000
21
24650
31
0
0
LINE
5
24
100
AcDbEntity
8
DIMENSIONS
100
AcDbLine
10
18550
20
0
30
0
11
18550
21
24000
31
0
0
LINE
5
25
100
AcDbEntity
8
WALLS
100
AcDbLine
10
1200
20
5925
30
0
11
8400
21
5925
31
0
0
LINE
5
26
100
AcDbEntity
8
WALLS
100
AcDbLine
10
1200
20
10925
30
0
11
8400
21
10925
31
0
0
LINE
5
27
100
AcDbEntity
8
WALLS
100
AcDbLine
10
1125
20
6000
30
0
11
1125
21
7900
31
0
0
LINE
5
28
100
AcDbEntity
8
WALLS
100
AcDbLine
10
1125
20
9100
30
0
11
1125
21
11000
31
0
0
LINE
5
29
100
AcDbEntity
8
WALLS
100
AcDbLine
10
8325
20
6000
30
0
11
8325
21
8050
31
0
0
LINE
5
2A
100
AcDbEntity
8
WALLS
100
AcDbLine
10
8325
20
8950
30
0
11
8325
21
11000
31
0
0
LINE
5
2B
100
AcDbEntity
8
WALLS
100
AcDbLine
10
1200
20
6075
30
0
11
8400
21
6075
31
0
0
LINE
5
2C
100
AcDbEntity
8
WALLS
100
AcDbLine
10
1200
20
11075
30
0
11
8400
21
11075
31
0
0
LINE
5
2D
100
AcDbEntity
8
WALLS
100
AcDbLine
10
1275
20
6000
30
0
11
1275
21
7900
31
0
0
LINE
5
2E
100
AcDbEntity
8
WALLS
100
AcDbLine
10
1275
20
9100
30
0
11
1275
21
11000
31
0
0
LINE
5
2F
100
AcDbEntity
8
WALLS
100
AcDbLine
10
8475
20
6000
30
0
11
8475
21
8050
31
0
0
LINE
5
30
100
AcDbEntity
8
WALLS
100
AcDbLine
10
8475
20
8950
30
0
11
8475
21
11000
31
0
0
LINE
5
31
100
AcDbEntity
8
WINDOWS
100
AcDbLine
10
1160
20
7900
30
0
11
1160
21
9100
31
0
0
LINE
5
32
100
AcDbEntity
8
WINDOWS
100
AcDbLine
10
1240
20
7900
30
0
11
1240
21
9100
31
0
0
LINE
5
33
100
AcDbEntity
8
DOORS
100
AcDbLine
10
8400
20
8050
30
0
11
7500
21
8050
31
0
0
LINE
5
34
100
AcDbEntity
8
DOORS
100
AcDbLine
10
7500
20
8050
30
0
11
7507.7
21
8167.5
31
0
0
LINE
5
35
100
AcDbEntity
8
DOORS
100
AcDbLine
10
7507.7
20
8167.5
30
0
11
7530.7
21
8282.9
31
0
0
LINE
5
36
100
AcDbEntity
8
DOORS
100
AcDbLine
10
7530.7
20
8282.9
30
0
11
7568.5
21
8394.4
31
0
0
LINE
5
37
100
AcDbEntity
8
DOORS
100
AcDbLine
10
7568.5
20
8394.4
30
0
11
7620.6
21
8500
31
0
0
LINE
5
38
100
AcDbEntity
8
DOORS
100
AcDbLine
10
7620.6
20
8500
30
0
11
7686
21
8597.9
31
0
0
LINE
5
39
100
AcDbEntity
8
DOORS
100
AcDbLine
10
7686
20
8597.9
30
0
11
7763.6
21
8686.4
31
0
0
LINE
5
3A
100
AcDbEntity
8
DOORS
100
AcDbLine
10
7763.6
20
8686.4
30
0
11
7852.1
21
8764
31
0
0
LINE
5
3B
100
AcDbEntity
8
DOORS
100
AcDbLine
10
7852.1
20
8764
30
0
11
7950
21
8829.4
31
0
0
LINE
5
3C
100
AcDbEntity
8
DOORS
100
AcDbLine
10
7950
20
8829.4
30
0
11
8055.6
21
8881.5
31
0
0
LINE
5
3D
100
AcDbEntity
8
DOORS
100
AcDbLine
10
8055.6
20
8881.5
30
0
11
8167.1
21
8919.3
31
0
0
LINE
5
3E
100
AcDbEntity
8
DOORS
100
AcDbLine
10
8167.1
20
8919.3
30
0
11
8282.5
21
8942.3
31
0
0
LINE
5
3F
100
AcDbEntity
8
DOORS
100
AcDbLine
10
8282.5
20
8942.3
30
0
11
8400
21
8950
31
0
0
LINE
5
40
100
AcDbEntity
8
FURNITURE
100
AcDbLine
10
1550
20
9850
30
0
11
3450
21
9850
31
0
0
LINE
5
41
100
AcDbEntity
8
FURNITURE
100
AcDbLine
10
3450
20
9850
30
0
11
3450
21
10600
31
0
0
LINE
5
42
100
AcDbEntity
8
FURNITURE
100
AcDbLine
10
3450
20
10600
30
0
11
1550
21
10600
31
0
0
LINE
5
43
100
AcDbEntity
8
FURNITURE
100
AcDbLine
10
1550
20
10600
30
0
11
1550
21
9850
31
0
0
LINE
5
44
100
AcDbEntity
8
FURNITURE
100
AcDbLine
10
1900
20
9000
30
0
11
3100
21
9000
31
0
0
LINE
5
45
100
AcDbEntity
8
FURNITURE
100
AcDbLine
10
3100
20
9000
30
0
11
3100
21
9550
31
0
0
LINE
5
46
100
AcDbEntity
8
FURNITURE
100
AcDbLine
10
3100
20
9550
30
0
11
1900
21
9550
31
0
0
LINE
5
47
100
AcDbEntity
8
FURNITURE
100
AcDbLine
10
1900
20
9550
30
0
11
1900
21
9000
31
0
0
LINE
5
48
100
AcDbEntity
8
WALLS
100
AcDbLine
10
1200
20
15425
30
0
11
8400
21
15425
31
0
0
LINE
5
49
100
AcDbEntity
8
WALLS
100
AcDbLine
10
1125
20
11000
30
0
11
1125
21
12650
31
0
0
LINE
5
4A
100
AcDbEntity
8
WALLS
100
AcDbLine
10
1125
20
13850
30
0
11
1125
21
15500
31
0
0
LINE
5
4B
100
AcDbEntity
8
WALLS
100
AcDbLine
10
8325
20
11000
30
0
11
8325
21
12800
31
0
0
LINE
5
4C
100
AcDbEntity
8
WALLS
100
AcDbLine
10
8325
20
13700
30
0
11
8325
21
15500
31
0
0
LINE
5
4D
100
AcDbEntity
8
WALLS
100
AcDbLine
10
1200
20
15575
30
0
11
8400
21
15575
31
0
0
LINE
5
4E
100
AcDbEntity
8
WALLS
100
AcDbLine
10
1275
20
11000
30
0
11
1275
21
12650
31
0
0
LINE
5
4F
100
AcDbEntity
8
WALLS
100
AcDbLine
10
1275
20
13850
30
0
11
1275
21
15500
31
0
0
LINE
5
50
100
AcDbEntity
8
WALLS
100
AcDbLine
10
8475
20
11000
30
0
11
8475
21
12800
31
0
0
LINE
5
51
100
AcDbEntity
8
WALLS
100
AcDbLine
10
8475
20
13700
30
0
11
8475
21
15500
31
0
0
LINE
5
52
100
AcDbEntity
8
WINDOWS
100
AcDbLine
10
1160
20
12650
30
0
11
1160
21
13850
31
0
0
LINE
5
53
100
AcDbEntity
8
WINDOWS
100
AcDbLine
10
1240
20
12650
30
0
11
1240
21
13850
31
0
0
LINE
5
54
100
AcDbEntity
8
DOORS
100
AcDbLine
10
8400
20
12800
30
0
11
7500
21
12800
31
0
0
LINE
5
55
100
AcDbEntity
8
DOORS
100
AcDbLine
10
7500
20
12800
30
0
11
7507.7
21
12917.5
31
0
0
LINE
5
56
100
AcDbEntity
8
DOORS
100
AcDbLine
10
7507.7
20
12917.5
30
0
11
7530.7
21
13032.9
31
0
0
LINE
5
57
100
AcDbEntity
8
DOORS
100
AcDbLine
10
7530.7
20
13032.9
30
0
11
7568.5
21
13144.4
31
0
0
LINE
5
58
100
AcDbEntity
8
DOORS
100
AcDbLine
10
7568.5
20
13144.4
30
0
11
7620.6
21
13250
31
0
0
LINE
5
59
100
AcDbEntity
8
DOORS
100
AcDbLine
10
7620.6
20
13250
30
0
11
7686
21
13347.9
31
0
0
LINE
5
5A
100
AcDbEntity
8
DOORS
100
AcDbLine
10
7686
20
13347.9
30
0
11
7763.6
21
13436.4
31
0
0
LINE
5
5B
100
AcDbEntity
8
DOORS
100
AcDbLine
10
7763.6
20
13436.4
30
0
11
7852.1
21
13514
31
0
0
LINE
5
5C
100
AcDbEntity
8
DOORS
100
AcDbLine
10
7852.1
20
13514
30
0
11
7950
21
13579.4
31
0
0
LINE
5
5D
100
AcDbEntity
8
DOORS
100
AcDbLine
10
7950
20
13579.4
30
0
11
8055.6
21
13631.5
31
0
0
LINE
5
5E
100
AcDbEntity
8
DOORS
100
AcDbLine
10
8055.6
20
13631.5
30
0
11
8167.1
21
13669.3
31
0
0
LINE
5
5F
100
AcDbEntity
8
DOORS
100
AcDbLine
10
8167.1
20
13669.3
30
0
11
8282.5
21
13692.3
31
0
0
LINE
5
60
100
AcDbEntity
8
DOORS
100
AcDbLine
10
8282.5
20
13692.3
30
0
11
8400
21
13700
31
0
0
LINE
5
61
100
AcDbEntity
8
FURNITURE
100
AcDbLine
10
1450
20
13450
30
0
11
2950
21
13450
31
0
0
LINE
5
62
100
AcDbEntity
8
FURNITURE
100
AcDbLine
10
2950
20
13450
30
0
11
2950
21
15250
31
0
0
LINE
5
63
100
AcDbEntity
8
FURNITURE
100
AcDbLine
10
2950
20
15250
30
0
11
1450
21
15250
31
0
0
LINE
5
64
100
AcDbEntity
8
FURNITURE
100
AcDbLine
10
1450
20
15250
30
0
11
1450
21
13450
31
0
0
LINE
5
65
100
AcDbEntity
8
FURNITURE
100
AcDbLine
10
1550
20
14800
30
0
11
2850
21
14800
31
0
0
LINE
5
66
100
AcDbEntity
8
FURNITURE
100
AcDbLine
10
2850
20
14800
30
0
11
2850
21
15150
31
0
0
LINE
5
67
100
AcDbEntity
8
FURNITURE
100
AcDbLine
10
2850
20
15150
30
0
11
1550
21
15150
31
0
0
LINE
5
68
100
AcDbEntity
8
FURNITURE
100
AcDbLine
10
1550
20
15150
30
0
11
1550
21
14800
31
0
0
LINE
5
69
100
AcDbEntity
8
WALLS
100
AcDbLine
10
1200
20
17225
30
0
11
8400
21
17225
31
0
0
LINE
5
6A
100
AcDbEntity
8
WALLS
100
AcDbLine
10
1125
20
15500
30
0
11
1125
21
15800
31
0
0
LINE
5
6B
100
AcDbEntity
8
WALLS
100
AcDbLine
10
1125
20
17000
30
0
11
1125
21
17300
31
0
0
LINE
5
6C
100
AcDbEntity
8
WALLS
100
AcDbLine
10
8325
20
15500
30
0
11
8325
21
15950
31
0
0
LINE
5
6D
100
AcDbEntity
8
WALLS
100
AcDbLine
10
8325
20
16850
30
0
11
8325
21
17300
31
0
0
LINE
5
6E
100
AcDbEntity
8
WALLS
100
AcDbLine
10
1200
20
17375
30
0
11
8400
21
17375
31
0
0
LINE
5
6F
100
AcDbEntity
8
WALLS
100
AcDbLine
10
1275
20
15500
30
0
11
1275
21
15800
31
0
0
LINE
5
70
100
AcDbEntity
8
WALLS
100
AcDbLine
10
1275
20
17000
30
0
11
1275
21
17300
31
0
0
LINE
5
71
100
AcDbEntity
8
WALLS
100
AcDbLine
10
8475
20
15500
30
0
11
8475
21
15950
31
0
0
LINE
5
72
100
AcDbEntity
8
WALLS
100
AcDbLine
10
8475
20
16850
30
0
11
8475
21
17300
31
0
0
LINE
5
73
100
AcDbEntity
8
WINDOWS
100
AcDbLine
10
1160
20
15800
30
0
11
1160
21
17000
31
0
0
LINE
5
74
100
AcDbEntity
8
WINDOWS
100
AcDbLine
10
1240
20
15800
30
0
11
1240
21
17000
31
0
0
LINE
5
75
100
AcDbEntity
8
DOORS
100
AcDbLine
10
8400
20
15950
30
0
11
7500
21
15950
31
0
0
LINE
5
76
100
AcDbEntity
8
DOORS
100
AcDbLine
10
7500
20
15950
30
0
11
7507.7
21
16067.5
31
0
0
LINE
5
77
100
AcDbEntity
8
DOORS
100
AcDbLine
10
7507.7
20
16067.5
30
0
11
7530.7
21
16182.9
31
0
0
LINE
5
78
100
AcDbEntity
8
DOORS
100
AcDbLine
10
7530.7
20
16182.9
30
0
11
7568.5
21
16294.4
31
0
0
LINE
5
79
100
AcDbEntity
8
DOORS
100
AcDbLine
10
7568.5
20
16294.4
30
0
11
7620.6
21
16400
31
0
0
LINE
5
7A
100
AcDbEntity
8
DOORS
100
AcDbLine
10
7620.6
20
16400
30
0
11
7686
21
16497.9
31
0
0
LINE
5
7B
100
AcDbEntity
8
DOORS
100
AcDbLine
10
7686
20
16497.9
30
0
11
7763.6
21
16586.4
31
0
0
LINE
5
7C
100
AcDbEntity
8
DOORS
100
AcDbLine
10
7763.6
20
16586.4
30
0
11
7852.1
21
16664
31
0
0
LINE
5
7D
100
AcDbEntity
8
DOORS
100
AcDbLine
10
7852.1
20
16664
30
0
11
7950
21
16729.4
31
0
0
LINE
5
7E
100
AcDbEntity
8
DOORS
100
AcDbLine
10
7950
20
16729.4
30
0
11
8055.6
21
16781.5
31
0
0
LINE
5
7F
100
AcDbEntity
8
DOORS
100
AcDbLine
10
8055.6
20
16781.5
30
0
11
8167.1
21
16819.3
31
0
0
LINE
5
80
100
AcDbEntity
8
DOORS
100
AcDbLine
10
8167.1
20
16819.3
30
0
11
8282.5
21
16842.3
31
0
0
LINE
5
81
100
AcDbEntity
8
DOORS
100
AcDbLine
10
8282.5
20
16842.3
30
0
11
8400
21
16850
31
0
0
LINE
5
82
100
AcDbEntity
8
FURNITURE
100
AcDbLine
10
1450
20
16450
30
0
11
2000
21
16450
31
0
0
LINE
5
83
100
AcDbEntity
8
FURNITURE
100
AcDbLine
10
2000
20
16450
30
0
11
2000
21
17050
31
0
0
LINE
5
84
100
AcDbEntity
8
FURNITURE
100
AcDbLine
10
2000
20
17050
30
0
11
1450
21
17050
31
0
0
LINE
5
85
100
AcDbEntity
8
FURNITURE
100
AcDbLine
10
1450
20
17050
30
0
11
1450
21
16450
31
0
0
LINE
5
86
100
AcDbEntity
8
FURNITURE
100
AcDbLine
10
7350
20
16300
30
0
11
8150
21
16300
31
0
0
LINE
5
87
100
AcDbEntity
8
FURNITURE
100
AcDbLine
10
8150
20
16300
30
0
11
8150
21
17050
31
0
0
LINE
5
88
100
AcDbEntity
8
FURNITURE
100
AcDbLine
10
8150
20
17050
30
0
11
7350
21
17050
31
0
0
LINE
5
89
100
AcDbEntity
8
FURNITURE
100
AcDbLine
10
7350
20
17050
30
0
11
7350
21
16300
31
0
0
LINE
5
8A
100
AcDbEntity
8
WALLS
100
AcDbLine
10
1200
20
22725
30
0
11
8400
21
22725
31
0
0
LINE
5
8B
100
AcDbEntity
8
WALLS
100
AcDbLine
10
1125
20
17300
30
0
11
1125
21
19450
31
0
0
LINE
5
8C
100
AcDbEntity
8
WALLS
100
AcDbLine
10
1125
20
20650
30
0
11
1125
21
22800
31
0
0
LINE
5
8D
100
AcDbEntity
8
WALLS
100
AcDbLine
10
8325
20
17300
30
0
11
8325
21
19600
31
0
0
LINE
5
8E
100
AcDbEntity
8
WALLS
100
AcDbLine
10
8325
20
20500
30
0
11
8325
21
22800
31
0
0
LINE
5
8F
100
AcDbEntity
8
WALLS
100
AcDbLine
10
1200
20
22875
30
0
11
8400
21
22875
31
0
0
LINE
5
90
100
AcDbEntity
8
WALLS
100
AcDbLine
10
1275
20
17300
30
0
11
1275
21
19450
31
0
0
LINE
5
91
100
AcDbEntity
8
WALLS
100
AcDbLine
10
1275
20
20650
30
0
11
1275
21
22800
31
0
0
LINE
5
92
100
AcDbEntity
8
WALLS
100
AcDbLine
10
8475
20
17300
30
0
11
8475
21
19600
31
0
0
LINE
5
93
100
AcDbEntity
8
WALLS
100
AcDbLine
10
8475
20
20500
30
0
11
8475
21
22800
31
0
0
LINE
5
94
100
AcDbEntity
8
WINDOWS
100
AcDbLine
10
1160
20
19450
30
0
11
1160
21
20650
31
0
0
LINE
5
95
100
AcDbEntity
8
WINDOWS
100
AcDbLine
10
1240
20
19450
30
0
11
1240
21
20650
31
0
0
LINE
5
96
100
AcDbEntity
8
DOORS
100
AcDbLine
10
8400
20
19600
30
0
11
7500
21
19600
31
0
0
LINE
5
97
100
AcDbEntity
8
DOORS
100
AcDbLine
10
7500
20
19600
30
0
11
7507.7
21
19717.5
31
0
0
LINE
5
98
100
AcDbEntity
8
DOORS
100
AcDbLine
10
7507.7
20
19717.5
30
0
11
7530.7
21
19832.9
31
0
0
LINE
5
99
100
AcDbEntity
8
DOORS
100
AcDbLine
10
7530.7
20
19832.9
30
0
11
7568.5
21
19944.4
31
0
0
LINE
5
9A
100
AcDbEntity
8
DOORS
100
AcDbLine
10
7568.5
20
19944.4
30
0
11
7620.6
21
20050
31
0
0
LINE
5
9B
100
AcDbEntity
8
DOORS
100
AcDbLine
10
7620.6
20
20050
30
0
11
7686
21
20147.9
31
0
0
LINE
5
9C
100
AcDbEntity
8
DOORS
100
AcDbLine
10
7686
20
20147.9
30
0
11
7763.6
21
20236.4
31
0
0
LINE
5
9D
100
AcDbEntity
8
DOORS
100
AcDbLine
10
7763.6
20
20236.4
30
0
11
7852.1
21
20314
31
0
0
LINE
5
9E
100
AcDbEntity
8
DOORS
100
AcDbLine
10
7852.1
20
20314
30
0
11
7950
21
20379.4
31
0
0
LINE
5
9F
100
AcDbEntity
8
DOORS
100
AcDbLine
10
7950
20
20379.4
30
0
11
8055.6
21
20431.5
31
0
0
LINE
5
A0
100
AcDbEntity
8
DOORS
100
AcDbLine
10
8055.6
20
20431.5
30
0
11
8167.1
21
20469.3
31
0
0
LINE
5
A1
100
AcDbEntity
8
DOORS
100
AcDbLine
10
8167.1
20
20469.3
30
0
11
8282.5
21
20492.3
31
0
0
LINE
5
A2
100
AcDbEntity
8
DOORS
100
AcDbLine
10
8282.5
20
20492.3
30
0
11
8400
21
20500
31
0
0
LINE
5
A3
100
AcDbEntity
8
WALLS
100
AcDbLine
10
9600
20
5925
30
0
11
16800
21
5925
31
0
0
LINE
5
A4
100
AcDbEntity
8
WALLS
100
AcDbLine
10
9600
20
9125
30
0
11
16800
21
9125
31
0
0
LINE
5
A5
100
AcDbEntity
8
WALLS
100
AcDbLine
10
16725
20
6000
30
0
11
16725
21
7000
31
0
0
LINE
5
A6
100
AcDbEntity
8
WALLS
100
AcDbLine
10
16725
20
8200
30
0
11
16725
21
9200
31
0
0
LINE
5
A7
100
AcDbEntity
8
WALLS
100
AcDbLine
10
9525
20
6000
30
0
11
9525
21
7150
31
0
0
LINE
5
A8
100
AcDbEntity
8
WALLS
100
AcDbLine
10
9525
20
8050
30
0
11
9525
21
9200
31
0
0
LINE
5
A9
100
AcDbEntity
8
WALLS
100
AcDbLine
10
9600
20
6075
30
0
11
16800
21
6075
31
0
0
LINE
5
AA
100
AcDbEntity
8
WALLS
100
AcDbLine
10
9600
20
9275
30
0
11
16800
21
9275
31
0
0
LINE
5
AB
100
AcDbEntity
8
WALLS
100
AcDbLine
10
16875
20
6000
30
0
11
16875
21
7000
31
0
0
LINE
5
AC
100
AcDbEntity
8
WALLS
100
AcDbLine
10
16875
20
8200
30
0
11
16875
21
9200
31
0
0
LINE
5
AD
100
AcDbEntity
8
WALLS
100
AcDbLine
10
9675
20
6000
30
0
11
9675
21
7150
31
0
0
LINE
5
AE
100
AcDbEntity
8
WALLS
100
AcDbLine
10
9675
20
8050
30
0
11
9675
21
9200
31
0
0
LINE
5
AF
100
AcDbEntity
8
WINDOWS
100
AcDbLine
10
16760
20
7000
30
0
11
16760
21
8200
31
0
0
LINE
5
B0
100
AcDbEntity
8
WINDOWS
100
AcDbLine
10
16840
20
7000
30
0
11
16840
21
8200
31
0
0
LINE
5
B1
100
AcDbEntity
8
DOORS
100
AcDbLine
10
9600
20
7150
30
0
11
10500
21
7150
31
0
0
LINE
5
B2
100
AcDbEntity
8
DOORS
100
AcDbLine
10
10500
20
7150
30
0
11
10492.3
21
7267.5
31
0
0
LINE
5
B3
100
AcDbEntity
8
DOORS
100
AcDbLine
10
10492.3
20
7267.5
30
0
11
10469.3
21
7382.9
31
0
0
LINE
5
B4
100
AcDbEntity
8
DOORS
100
AcDbLine
10
10469.3
20
7382.9
30
0
11
10431.5
21
7494.4
31
0
0
LINE
5
B5
100
AcDbEntity
8
DOORS
100
AcDbLine
10
10431.5
20
7494.4
30
0
11
10379.4
21
7600
31
0
0
LINE
5
B6
100
AcDbEntity
8
DOORS
100
AcDbLine
10
10379.4
20
7600
30
0
11
10314
21
7697.9
31
0
0
LINE
5
B7
100
AcDbEntity
8
DOORS
100
AcDbLine
10
10314
20
7697.9
30
0
11
10236.4
21
7786.4
31
0
0
LINE
5
B8
100
AcDbEntity
8
DOORS
100
AcDbLine
10
10236.4
20
7786.4
30
0
11
10147.9
21
7864
31
0
0
LINE
5
B9
100
AcDbEntity
8
DOORS
100
AcDbLine
10
10147.9
20
7864
30
0
11
10050
21
7929.4
31
0
0
LINE
5
BA
100
AcDbEntity
8
DOORS
100
AcDbLine
10
10050
20
7929.4
30
0
11
9944.4
21
7981.5
31
0
0
LINE
5
BB
100
AcDbEntity
8
DOORS
100
AcDbLine
10
9944.4
20
7981.5
30
0
11
9832.9
21
8019.3
31
0
0
LINE
5
BC
100
AcDbEntity
8
DOORS
100
AcDbLine
10
9832.9
20
8019.3
30
0
11
9717.5
21
8042.3
31
0
0
LINE
5
BD
100
AcDbEntity
8
DOORS
100
AcDbLine
10
9717.5
20
8042.3
30
0
11
9600
21
8050
31
0
0
LINE
5
BE
100
AcDbEntity
8
STAIRS
100
AcDbLine
10
14350
20
6900
30
0
11
16550
21
6900
31
0
0
LINE
5
BF
100
AcDbEntity
8
STAIRS
100
AcDbLine
10
16550
20
6900
30
0
11
16550
21
8900
31
0
0
LINE
5
C0
100
AcDbEntity
8
STAIRS
100
AcDbLine
10
16550
20
8900
30
0
11
14350
21
8900
31
0
0
LINE
5
C1
100
AcDbEntity
8
STAIRS
100
AcDbLine
10
14350
20
8900
30
0
11
14350
21
6900
31
0
0
LINE
5
C2
100
AcDbEntity
8
STAIRS
100
AcDbLine
10
14350
20
6900
30
0
11
15300
21
6900
31
0
0
LINE
5
C3
100
AcDbEntity
8
STAIRS
100
AcDbLine
10
15600
20
6900
30
0
11
16550
21
6900
31
0
0
LINE
5
C4
100
AcDbEntity
8
STAIRS
100
AcDbLine
10
14350
20
7120
30
0
11
15300
21
7120
31
0
0
LINE
5
C5
100
AcDbEntity
8
STAIRS
100
AcDbLine
10
15600
20
7120
30
0
11
16550
21
7120
31
0
0
LINE
5
C6
100
AcDbEntity
8
STAIRS
100
AcDbLine
10
14350
20
7340
30
0
11
15300
21
7340
31
0
0
LINE
5
C7
100
AcDbEntity
8
STAIRS
100
AcDbLine
10
15600
20
7340
30
0
11
16550
21
7340
31
0
0
LINE
5
C8
100
AcDbEntity
8
STAIRS
100
AcDbLine
10
14350
20
7560
30
0
11
15300
21
7560
31
0
0
LINE
5
C9
100
AcDbEntity
8
STAIRS
100
AcDbLine
10
15600
20
7560
30
0
11
16550
21
7560
31
0
0
LINE
5
CA
100
AcDbEntity
8
STAIRS
100
AcDbLine
10
14350
20
7780
30
0
11
15300
21
7780
31
0
0
LINE
5
CB
100
AcDbEntity
8
STAIRS
100
AcDbLine
10
15600
20
7780
30
0
11
16550
21
7780
31
0
0
LINE
5
CC
100
AcDbEntity
8
STAIRS
100
AcDbLine
10
14350
20
8000
30
0
11
15300
21
8000
31
0
0
LINE
5
CD
100
AcDbEntity
8
STAIRS
100
AcDbLine
10
15600
20
8000
30
0
11
16550
21
8000
31
0
0
LINE
5
CE
100
AcDbEntity
8
STAIRS
100
AcDbLine
10
14350
20
8220
30
0
11
15300
21
8220
31
0
0
LINE
5
CF
100
AcDbEntity
8
STAIRS
100
AcDbLine
10
15600
20
8220
30
0
11
16550
21
8220
31
0
0
LINE
5
D0
100
AcDbEntity
8
STAIRS
100
AcDbLine
10
14350
20
8440
30
0
11
15300
21
8440
31
0
0
LINE
5
D1
100
AcDbEntity
8
STAIRS
100
AcDbLine
10
15600
20
8440
30
0
11
16550
21
8440
31
0
0
LINE
5
D2
100
AcDbEntity
8
WALLS
100
AcDbLine
10
9600
20
13625
30
0
11
16800
21
13625
31
0
0
LINE
5
D3
100
AcDbEntity
8
WALLS
100
AcDbLine
10
16725
20
9200
30
0
11
16725
21
10850
31
0
0
LINE
5
D4
100
AcDbEntity
8
WALLS
100
AcDbLine
10
16725
20
12050
30
0
11
16725
21
13700
31
0
0
LINE
5
D5
100
AcDbEntity
8
WALLS
100
AcDbLine
10
9525
20
9200
30
0
11
9525
21
11000
31
0
0
LINE
5
D6
100
AcDbEntity
8
WALLS
100
AcDbLine
10
9525
20
11900
30
0
11
9525
21
13700
31
0
0
LINE
5
D7
100
AcDbEntity
8
WALLS
100
AcDbLine
10
9600
20
13775
30
0
11
16800
21
13775
31
0
0
LINE
5
D8
100
AcDbEntity
8
WALLS
100
AcDbLine
10
16875
20
9200
30
0
11
16875
21
10850
31
0
0
LINE
5
D9
100
AcDbEntity
8
WALLS
100
AcDbLine
10
16875
20
12050
30
0
11
16875
21
13700
31
0
0
LINE
5
DA
100
AcDbEntity
8
WALLS
100
AcDbLine
10
9675
20
9200
30
0
11
9675
21
11000
31
0
0
LINE
5
DB
100
AcDbEntity
8
WALLS
100
AcDbLine
10
9675
20
11900
30
0
11
9675
21
13700
31
0
0
LINE
5
DC
100
AcDbEntity
8
WINDOWS
100
AcDbLine
10
16760
20
10850
30
0
11
16760
21
12050
31
0
0
LINE
5
DD
100
AcDbEntity
8
WINDOWS
100
AcDbLine
10
16840
20
10850
30
0
11
16840
21
12050
31
0
0
LINE
5
DE
100
AcDbEntity
8
DOORS
100
AcDbLine
10
9600
20
11000
30
0
11
10500
21
11000
31
0
0
LINE
5
DF
100
AcDbEntity
8
DOORS
100
AcDbLine
10
10500
20
11000
30
0
11
10492.3
21
11117.5
31
0
0
LINE
5
E0
100
AcDbEntity
8
DOORS
100
AcDbLine
10
10492.3
20
11117.5
30
0
11
10469.3
21
11232.9
31
0
0
LINE
5
E1
100
AcDbEntity
8
DOORS
100
AcDbLine
10
10469.3
20
11232.9
30
0
11
10431.5
21
11344.4
31
0
0
LINE
5
E2
100
AcDbEntity
8
DOORS
100
AcDbLine
10
10431.5
20
11344.4
30
0
11
10379.4
21
11450
31
0
0
LINE
5
E3
100
AcDbEntity
8
DOORS
100
AcDbLine
10
10379.4
20
11450
30
0
11
10314
21
11547.9
31
0
0
LINE
5
E4
100
AcDbEntity
8
DOORS
100
AcDbLine
10
10314
20
11547.9
30
0
11
10236.4
21
11636.4
31
0
0
LINE
5
E5
100
AcDbEntity
8
DOORS
100
AcDbLine
10
10236.4
20
11636.4
30
0
11
10147.9
21
11714
31
0
0
LINE
5
E6
100
AcDbEntity
8
DOORS
100
AcDbLine
10
10147.9
20
11714
30
0
11
10050
21
11779.4
31
0
0
LINE
5
E7
100
AcDbEntity
8
DOORS
100
AcDbLine
10
10050
20
11779.4
30
0
11
9944.4
21
11831.5
31
0
0
LINE
5
E8
100
AcDbEntity
8
DOORS
100
AcDbLine
10
9944.4
20
11831.5
30
0
11
9832.9
21
11869.3
31
0
0
LINE
5
E9
100
AcDbEntity
8
DOORS
100
AcDbLine
10
9832.9
20
11869.3
30
0
11
9717.5
21
11892.3
31
0
0
LINE
5
EA
100
AcDbEntity
8
DOORS
100
AcDbLine
10
9717.5
20
11892.3
30
0
11
9600
21
11900
31
0
0
LINE
5
EB
100
AcDbEntity
8
FURNITURE
100
AcDbLine
10
15050
20
11650
30
0
11
16550
21
11650
31
0
0
LINE
5
EC
100
AcDbEntity
8
FURNITURE
100
AcDbLine
10
16550
20
11650
30
0
11
16550
21
13450
31
0
0
LINE
5
ED
100
AcDbEntity
8
FURNITURE
100
AcDbLine
10
16550
20
13450
30
0
11
15050
21
13450
31
0
0
LINE
5
EE
100
AcDbEntity
8
FURNITURE
100
AcDbLine
10
15050
20
13450
30
0
11
15050
21
11650
31
0
0
LINE
5
EF
100
AcDbEntity
8
FURNITURE
100
AcDbLine
10
15150
20
13000
30
0
11
16450
21
13000
31
0
0
LINE
5
F0
100
AcDbEntity
8
FURNITURE
100
AcDbLine
10
16450
20
13000
30
0
11
16450
21
13350
31
0
0
LINE
5
F1
100
AcDbEntity
8
FURNITURE
100
AcDbLine
10
16450
20
13350
30
0
11
15150
21
13350
31
0
0
LINE
5
F2
100
AcDbEntity
8
FURNITURE
100
AcDbLine
10
15150
20
13350
30
0
11
15150
21
13000
31
0
0
LINE
5
F3
100
AcDbEntity
8
WALLS
100
AcDbLine
10
9600
20
22725
30
0
11
16800
21
22725
31
0
0
LINE
5
F4
100
AcDbEntity
8
WALLS
100
AcDbLine
10
16725
20
13700
30
0
11
16725
21
17650
31
0
0
LINE
5
F5
100
AcDbEntity
8
WALLS
100
AcDbLine
10
16725
20
18850
30
0
11
16725
21
22800
31
0
0
LINE
5
F6
100
AcDbEntity
8
WALLS
100
AcDbLine
10
9525
20
13700
30
0
11
9525
21
17800
31
0
0
LINE
5
F7
100
AcDbEntity
8
WALLS
100
AcDbLine
10
9525
20
18700
30
0
11
9525
21
22800
31
0
0
LINE
5
F8
100
AcDbEntity
8
WALLS
100
AcDbLine
10
9600
20
22875
30
0
11
16800
21
22875
31
0
0
LINE
5
F9
100
AcDbEntity
8
WALLS
100
AcDbLine
10
16875
20
13700
30
0
11
16875
21
17650
31
0
0
LINE
5
FA
100
AcDbEntity
8
WALLS
100
AcDbLine
10
16875
20
18850
30
0
11
16875
21
22800
31
0
0
LINE
5
FB
100
AcDbEntity
8
WALLS
100
AcDbLine
10
9675
20
13700
30
0
11
9675
21
17800
31
0
0
LINE
5
FC
100
AcDbEntity
8
WALLS
100
AcDbLine
10
9675
20
18700
30
0
11
9675
21
22800
31
0
0
LINE
5
FD
100
AcDbEntity
8
WINDOWS
100
AcDbLine
10
16760
20
17650
30
0
11
16760
21
18850
31
0
0
LINE
5
FE
100
AcDbEntity
8
WINDOWS
100
AcDbLine
10
16840
20
17650
30
0
11
16840
21
18850
31
0
0
LINE
5
FF
100
AcDbEntity
8
DOORS
100
AcDbLine
10
9600
20
17800
30
0
11
10500
21
17800
31
0
0
LINE
5
100
100
AcDbEntity
8
DOORS
100
AcDbLine
10
10500
20
17800
30
0
11
10492.3
21
17917.5
31
0
0
LINE
5
101
100
AcDbEntity
8
DOORS
100
AcDbLine
10
10492.3
20
17917.5
30
0
11
10469.3
21
18032.9
31
0
0
LINE
5
102
100
AcDbEntity
8
DOORS
100
AcDbLine
10
10469.3
20
18032.9
30
0
11
10431.5
21
18144.4
31
0
0
LINE
5
103
100
AcDbEntity
8
DOORS
100
AcDbLine
10
10431.5
20
18144.4
30
0
11
10379.4
21
18250
31
0
0
LINE
5
104
100
AcDbEntity
8
DOORS
100
AcDbLine
10
10379.4
20
18250
30
0
11
10314
21
18347.9
31
0
0
LINE
5
105
100
AcDbEntity
8
DOORS
100
AcDbLine
10
10314
20
18347.9
30
0
11
10236.4
21
18436.4
31
0
0
LINE
5
106
100
AcDbEntity
8
DOORS
100
AcDbLine
10
10236.4
20
18436.4
30
0
11
10147.9
21
18514
31
0
0
LINE
5
107
100
AcDbEntity
8
DOORS
100
AcDbLine
10
10147.9
20
18514
30
0
11
10050
21
18579.4
31
0
0
LINE
5
108
100
AcDbEntity
8
DOORS
100
AcDbLine
10
10050
20
18579.4
30
0
11
9944.4
21
18631.5
31
0
0
LINE
5
109
100
AcDbEntity
8
DOORS
100
AcDbLine
10
9944.4
20
18631.5
30
0
11
9832.9
21
18669.3
31
0
0
LINE
5
10A
100
AcDbEntity
8
DOORS
100
AcDbLine
10
9832.9
20
18669.3
30
0
11
9717.5
21
18692.3
31
0
0
LINE
5
10B
100
AcDbEntity
8
DOORS
100
AcDbLine
10
9717.5
20
18692.3
30
0
11
9600
21
18700
31
0
0
LINE
5
10C
100
AcDbEntity
8
FRAME
100
AcDbLine
10
-700
20
-400
30
0
11
21300
21
-400
31
0
0
LINE
5
10D
100
AcDbEntity
8
FRAME
100
AcDbLine
10
21300
20
-400
30
0
11
21300
21
26600
31
0
0
LINE
5
10E
100
AcDbEntity
8
FRAME
100
AcDbLine
10
21300
20
26600
30
0
11
-700
21
26600
31
0
0
LINE
5
10F
100
AcDbEntity
8
FRAME
100
AcDbLine
10
-700
20
26600
30
0
11
-700
21
-400
31
0
0
TEXT
5
110
100
AcDbEntity
8
LABELS
100
AcDbText
10
400
20
25800
30
0
40
300
1
LEVEL 1
50
0
7
STANDARD
100
AcDbText
0
TEXT
5
111
100
AcDbEntity
8
LABELS
100
AcDbText
10
400
20
650
30
0
40
180
1
CONCEPT ONLY - UNITS: MM - REVIEW REQUIRED
50
0
7
STANDARD
100
AcDbText
0
TEXT
5
112
100
AcDbEntity
8
LABELS
100
AcDbText
10
400
20
1200
30
0
40
180
1
FRONT / SOUTH - 6 m assumed front zone
50
0
7
STANDARD
100
AcDbText
0
TEXT
5
113
100
AcDbEntity
8
LABELS
100
AcDbText
10
8500
20
6200
30
0
40
100
1
CORRIDOR
50
0
7
STANDARD
100
AcDbText
0
TEXT
5
114
100
AcDbEntity
8
LABELS
100
AcDbText
10
8500
20
24850
30
0
40
200
1
18.00 m
50
0
7
STANDARD
100
AcDbText
0
TEXT
5
115
100
AcDbEntity
8
LABELS
100
AcDbText
10
18700
20
12000
30
0
40
180
1
24.00 m
50
0
7
STANDARD
100
AcDbText
0
TEXT
5
116
100
AcDbEntity
8
LABELS
100
AcDbText
10
7700
20
9070
30
0
40
120
1
D11
50
0
7
STANDARD
100
AcDbText
0
TEXT
5
117
100
AcDbEntity
8
LABELS
100
AcDbText
10
1450
20
6450
30
0
40
180
1
Lounge
50
0
7
STANDARD
100
AcDbText
0
TEXT
5
118
100
AcDbEntity
8
LABELS
100
AcDbText
10
1450
20
6180
30
0
40
130
1
7.05 x 4.85 m
50
0
7
STANDARD
100
AcDbText
0
TEXT
5
119
100
AcDbEntity
8
LABELS
100
AcDbText
10
7700
20
13820
30
0
40
120
1
D12
50
0
7
STANDARD
100
AcDbText
0
TEXT
5
11A
100
AcDbEntity
8
LABELS
100
AcDbText
10
1450
20
11450
30
0
40
180
1
Bedroom 3
50
0
7
STANDARD
100
AcDbText
0
TEXT
5
11B
100
AcDbEntity
8
LABELS
100
AcDbText
10
1450
20
11180
30
0
40
130
1
7.05 x 4.35 m
50
0
7
STANDARD
100
AcDbText
0
TEXT
5
11C
100
AcDbEntity
8
LABELS
100
AcDbText
10
7700
20
16970
30
0
40
120
1
D13
50
0
7
STANDARD
100
AcDbText
0
TEXT
5
11D
100
AcDbEntity
8
LABELS
100
AcDbText
10
1450
20
15950
30
0
40
180
1
Bathroom 3
50
0
7
STANDARD
100
AcDbText
0
TEXT
5
11E
100
AcDbEntity
8
LABELS
100
AcDbText
10
1450
20
15680
30
0
40
130
1
7.05 x 1.65 m
50
0
7
STANDARD
100
AcDbText
0
TEXT
5
11F
100
AcDbEntity
8
LABELS
100
AcDbText
10
7700
20
20620
30
0
40
120
1
D14
50
0
7
STANDARD
100
AcDbText
0
TEXT
5
120
100
AcDbEntity
8
LABELS
100
AcDbText
10
1450
20
17750
30
0
40
180
1
Flexible space
50
0
7
STANDARD
100
AcDbText
0
TEXT
5
121
100
AcDbEntity
8
LABELS
100
AcDbText
10
1450
20
17480
30
0
40
130
1
7.05 x 5.35 m
50
0
7
STANDARD
100
AcDbText
0
TEXT
5
122
100
AcDbEntity
8
LABELS
100
AcDbText
10
9800
20
8170
30
0
40
120
1
D15
50
0
7
STANDARD
100
AcDbText
0
TEXT
5
123
100
AcDbEntity
8
LABELS
100
AcDbText
10
15848
20
6450
30
0
40
180
1
Stairs
50
0
7
STANDARD
100
AcDbText
0
TEXT
5
124
100
AcDbEntity
8
LABELS
100
AcDbText
10
15451.5
20
6180
30
0
40
130
1
7.05 x 3.05 m
50
0
7
STANDARD
100
AcDbText
0
TEXT
5
125
100
AcDbEntity
8
LABELS
100
AcDbText
10
9800
20
12020
30
0
40
120
1
D16
50
0
7
STANDARD
100
AcDbText
0
TEXT
5
126
100
AcDbEntity
8
LABELS
100
AcDbText
10
15497
20
9650
30
0
40
180
1
Bedroom 4
50
0
7
STANDARD
100
AcDbText
0
TEXT
5
127
100
AcDbEntity
8
LABELS
100
AcDbText
10
15451.5
20
9380
30
0
40
130
1
7.05 x 4.35 m
50
0
7
STANDARD
100
AcDbText
0
TEXT
5
128
100
AcDbEntity
8
LABELS
100
AcDbText
10
9800
20
18820
30
0
40
120
1
D17
50
0
7
STANDARD
100
AcDbText
0
TEXT
5
129
100
AcDbEntity
8
LABELS
100
AcDbText
10
14912
20
14150
30
0
40
180
1
Flexible space
50
0
7
STANDARD
100
AcDbText
0
TEXT
5
12A
100
AcDbEntity
8
LABELS
100
AcDbText
10
15451.5
20
13880
30
0
40
130
1
7.05 x 8.95 m
50
0
7
STANDARD
100
AcDbText
0
ENDSEC
0
EOF
